<svg xmlns="http://www.w3.org/2000/svg" width="1400" height="730" viewBox="0 0 1400 730">
<rect width="100%" height="100%" fill="#ffffff" />
<text x="60" y="26" font-size="22" font-family="Arial, sans-serif" fill="#111827">Stage2 Example Windows</text>
<text x="60" y="44" font-size="12" font-family="Arial, sans-serif" fill="#4b5563">Original vs lagged stage2_var1</text>
<rect x="578.81" y="60.00" width="402.08" height="135.00" fill="#b91c1c" opacity="0.12" />
<line x1="60" y1="195.00" x2="1370" y2="195.00" stroke="#e2e8f0" stroke-width="1" />
<line x1="60" y1="127.50" x2="1370" y2="127.50" stroke="#e2e8f0" stroke-width="1" />
<line x1="60" y1="60.00" x2="1370" y2="60.00" stroke="#e2e8f0" stroke-width="1" />
<polyline points="60.00,144.61 72.97,156.50 85.94,175.57 98.91,177.15 111.88,154.83 124.85,158.43 137.82,162.03 150.79,145.88 163.76,176.94 176.73,140.01 189.70,151.88 202.67,163.76 215.64,174.19 228.61,143.40 241.58,170.78 254.55,158.05 267.52,172.82 280.50,137.57 293.47,141.97 306.44,178.22 319.41,164.79 332.38,151.36 345.35,183.73 358.32,185.69 371.29,166.05 384.26,165.33 397.23,146.73 410.20,175.44 423.17,148.09 436.14,164.37 449.11,179.00 462.08,125.79 475.05,115.99 488.02,112.34 500.99,108.70 513.96,139.93 526.93,105.07 539.90,146.70 552.87,127.02 565.84,113.01 578.81,113.96 591.78,114.91 604.75,80.91 617.72,122.68 630.69,109.65 643.66,129.88 656.63,78.72 669.60,105.56 682.57,82.76 695.54,69.31 708.51,90.21 721.49,96.33 734.46,102.46 747.43,110.75 760.40,119.04 773.37,92.09 786.34,104.07 799.31,116.06 812.28,86.28 825.25,123.82 838.22,94.18 851.19,111.82 864.16,128.36 877.13,110.82 890.10,86.52 903.07,106.14 916.04,108.49 929.01,110.83 941.98,126.44 954.95,88.51 967.92,110.00 980.89,111.92 993.86,113.84 1006.83,107.23 1019.80,91.63 1032.77,125.25 1045.74,95.05 1058.71,125.29 1071.68,94.31 1084.65,93.97 1097.62,133.87 1110.59,137.00 1123.56,166.67 1136.53,132.04 1149.50,116.16 1162.48,100.28 1175.45,85.40 1188.42,94.08 1201.39,75.31 1214.36,119.39 1227.33,111.07 1240.30,123.45 1253.27,125.78 1266.24,128.11 1279.21,112.88 1292.18,148.89 1305.15,135.79 1318.12,130.73 1331.09,125.68 1344.06,145.00 1357.03,113.53 1370.00,154.63" fill="none" stroke="#64748b" stroke-width="1.80" stroke-linejoin="round" stroke-linecap="round" />
<polyline points="60.00,144.61 72.97,156.50 85.94,175.57 98.91,177.15 111.88,154.83 124.85,158.43 137.82,162.03 150.79,145.88 163.76,176.94 176.73,140.01 189.70,151.88 202.67,163.76 215.64,174.19 228.61,143.40 241.58,170.78 254.55,158.05 267.52,172.82 280.50,137.57 293.47,141.97 306.44,178.22 319.41,164.79 332.38,151.36 345.35,183.73 358.32,185.69 371.29,166.05 384.26,165.33 397.23,146.73 410.20,175.44 423.17,148.09 436.14,164.37 449.11,179.00 462.08,125.79 475.05,115.99 488.02,112.34 500.99,108.70 513.96,139.93 526.93,105.07 539.90,146.70 552.87,127.02 565.84,113.01 578.81,108.70 591.78,139.93 604.75,105.07 617.72,146.70 630.69,127.02 643.66,113.01 656.63,113.96 669.60,114.91 682.57,80.91 695.54,122.68 708.51,109.65 721.49,129.88 734.46,78.72 747.43,105.56 760.40,82.76 773.37,69.31 786.34,90.21 799.31,96.33 812.28,102.46 825.25,110.75 838.22,119.04 851.19,92.09 864.16,104.07 877.13,116.06 890.10,86.28 903.07,123.82 916.04,94.18 929.01,111.82 941.98,128.36 954.95,110.82 967.92,86.52 980.89,106.14 993.86,113.84 1006.83,107.23 1019.80,91.63 1032.77,125.25 1045.74,95.05 1058.71,125.29 1071.68,94.31 1084.65,93.97 1097.62,133.87 1110.59,137.00 1123.56,166.67 1136.53,132.04 1149.50,116.16 1162.48,100.28 1175.45,85.40 1188.42,94.08 1201.39,75.31 1214.36,119.39 1227.33,111.07 1240.30,123.45 1253.27,125.78 1266.24,128.11 1279.21,112.88 1292.18,148.89 1305.15,135.79 1318.12,130.73 1331.09,125.68 1344.06,145.00 1357.03,113.53 1370.00,154.63" fill="none" stroke="#b91c1c" stroke-width="2.20" stroke-linejoin="round" stroke-linecap="round" />
<text x="60" y="50" font-size="13" font-family="Arial, sans-serif" fill="#111827">train | segment 11 | lag=6 steps | 2021-05-27 15:30 -&gt; 2021-05-27 23:15</text>
<text x="60" y="213" font-size="11" font-family="Arial, sans-serif" fill="#475569">2021-05-27 05:30</text>
<text x="1370" y="213" text-anchor="end" font-size="11" font-family="Arial, sans-serif" fill="#475569">2021-05-28 06:45</text>
<text x="60" y="231" font-size="11" font-family="Arial, sans-serif" fill="#64748b">gray = original</text>
<text x="180" y="231" font-size="11" font-family="Arial, sans-serif" fill="#b91c1c">color = lagged</text>
<rect x="532.07" y="290.00" width="365.86" height="135.00" fill="#b45309" opacity="0.12" />
<line x1="60" y1="425.00" x2="1370" y2="425.00" stroke="#e2e8f0" stroke-width="1" />
<line x1="60" y1="357.50" x2="1370" y2="357.50" stroke="#e2e8f0" stroke-width="1" />
<line x1="60" y1="290.00" x2="1370" y2="290.00" stroke="#e2e8f0" stroke-width="1" />
<polyline points="60.00,359.17 71.80,331.34 83.60,332.89 95.41,330.01 107.21,327.14 119.01,333.11 130.81,369.10 142.61,336.63 154.41,347.98 166.22,353.61 178.02,359.23 189.82,338.00 201.62,334.17 213.42,333.65 225.23,326.20 237.03,318.75 248.83,304.34 260.63,358.78 272.43,335.81 284.23,311.03 296.04,334.57 307.84,371.00 319.64,318.04 331.44,398.88 343.24,336.33 355.05,385.40 366.85,315.84 378.65,320.03 390.45,367.87 402.25,335.13 414.05,386.62 425.86,389.96 437.66,317.21 449.46,322.31 461.26,379.42 473.06,338.98 484.86,346.11 496.67,399.09 508.47,378.69 520.27,363.67 532.07,348.65 543.87,359.93 555.68,315.48 567.48,350.27 579.28,315.74 591.08,340.54 602.88,376.44 614.68,362.23 626.49,299.31 638.29,337.04 650.09,311.98 661.89,359.39 673.69,348.96 685.50,338.53 697.30,320.85 709.10,373.36 720.90,330.77 732.70,385.82 744.50,372.68 756.31,359.54 768.11,325.64 779.91,340.28 791.71,309.92 803.51,365.13 815.32,344.96 827.12,377.68 838.92,326.84 850.72,383.23 862.52,313.37 874.32,343.58 886.13,331.11 897.93,386.89 909.73,330.29 921.53,388.54 933.33,359.36 945.14,349.22 956.94,358.25 968.74,367.27 980.54,354.86 992.34,342.46 1004.14,393.52 1015.95,357.15 1027.75,377.47 1039.55,410.13 1051.35,404.70 1063.15,377.76 1074.95,356.33 1086.76,382.61 1098.56,377.20 1110.36,371.79 1122.16,355.13 1133.96,300.96 1145.77,358.80 1157.57,355.75 1169.37,352.70 1181.17,364.87 1192.97,388.11 1204.77,366.34 1216.58,344.57 1228.38,359.73 1240.18,317.36 1251.98,352.86 1263.78,397.92 1275.59,345.88 1287.39,369.89 1299.19,306.65 1310.99,335.39 1322.79,364.13 1334.59,415.69 1346.40,374.33 1358.20,368.01 1370.00,361.69" fill="none" stroke="#64748b" stroke-width="1.80" stroke-linejoin="round" stroke-linecap="round" />
<polyline points="60.00,359.17 71.80,331.34 83.60,332.89 95.41,330.01 107.21,327.14 119.01,333.11 130.81,369.10 142.61,336.63 154.41,347.98 166.22,353.61 178.02,359.23 189.82,338.00 201.62,334.17 213.42,333.65 225.23,326.20 237.03,318.75 248.83,304.34 260.63,358.78 272.43,335.81 284.23,311.03 296.04,334.57 307.84,371.00 319.64,318.04 331.44,398.88 343.24,336.33 355.05,385.40 366.85,315.84 378.65,320.03 390.45,367.87 402.25,335.13 414.05,386.62 425.86,389.96 437.66,317.21 449.46,322.31 461.26,379.42 473.06,338.98 484.86,346.11 496.67,399.09 508.47,378.69 520.27,363.67 532.07,346.11 543.87,399.09 555.68,378.69 567.48,363.67 579.28,348.65 591.08,359.93 602.88,315.48 614.68,350.27 626.49,315.74 638.29,340.54 650.09,376.44 661.89,362.23 673.69,299.31 685.50,337.04 697.30,311.98 709.10,359.39 720.90,348.96 732.70,338.53 744.50,320.85 756.31,373.36 768.11,330.77 779.91,385.82 791.71,372.68 803.51,359.54 815.32,325.64 827.12,340.28 838.92,309.92 850.72,365.13 862.52,344.96 874.32,377.68 886.13,326.84 897.93,383.23 909.73,330.29 921.53,388.54 933.33,359.36 945.14,349.22 956.94,358.25 968.74,367.27 980.54,354.86 992.34,342.46 1004.14,393.52 1015.95,357.15 1027.75,377.47 1039.55,410.13 1051.35,404.70 1063.15,377.76 1074.95,356.33 1086.76,382.61 1098.56,377.20 1110.36,371.79 1122.16,355.13 1133.96,300.96 1145.77,358.80 1157.57,355.75 1169.37,352.70 1181.17,364.87 1192.97,388.11 1204.77,366.34 1216.58,344.57 1228.38,359.73 1240.18,317.36 1251.98,352.86 1263.78,397.92 1275.59,345.88 1287.39,369.89 1299.19,306.65 1310.99,335.39 1322.79,364.13 1334.59,415.69 1346.40,374.33 1358.20,368.01 1370.00,361.69" fill="none" stroke="#b45309" stroke-width="2.20" stroke-linejoin="round" stroke-linecap="round" />
<text x="60" y="280" font-size="13" font-family="Arial, sans-serif" fill="#111827">val | segment 67 | lag=4 steps | 2022-01-27 16:45 -&gt; 2022-01-28 00:30</text>
<text x="60" y="443" font-size="11" font-family="Arial, sans-serif" fill="#475569">2022-01-27 06:45</text>
<text x="1370" y="443" text-anchor="end" font-size="11" font-family="Arial, sans-serif" fill="#475569">2022-01-28 10:30</text>
<text x="60" y="461" font-size="11" font-family="Arial, sans-serif" fill="#64748b">gray = original</text>
<text x="180" y="461" font-size="11" font-family="Arial, sans-serif" fill="#b45309">color = lagged</text>
<rect x="532.07" y="520.00" width="365.86" height="135.00" fill="#b45309" opacity="0.12" />
<line x1="60" y1="655.00" x2="1370" y2="655.00" stroke="#e2e8f0" stroke-width="1" />
<line x1="60" y1="587.50" x2="1370" y2="587.50" stroke="#e2e8f0" stroke-width="1" />
<line x1="60" y1="520.00" x2="1370" y2="520.00" stroke="#e2e8f0" stroke-width="1" />
<polyline points="60.00,615.62 71.80,615.71 83.60,621.91 95.41,625.17 107.21,626.79 119.01,627.17 130.81,623.54 142.61,625.70 154.41,627.37 166.22,638.45 178.02,633.27 189.82,631.52 201.62,633.69 213.42,631.86 225.23,638.75 237.03,632.30 248.83,634.61 260.63,625.86 272.43,618.75 284.23,625.23 296.04,633.02 307.84,640.57 319.64,635.20 331.44,644.96 343.24,636.67 355.05,625.94 366.85,622.13 378.65,626.25 390.45,622.40 402.25,626.92 414.05,630.56 425.86,626.22 437.66,624.35 449.46,610.66 461.26,600.85 473.06,589.49 484.86,593.48 496.67,597.92 508.47,626.75 520.27,637.10 532.07,636.29 543.87,636.37 555.68,634.57 567.48,627.66 579.28,623.88 591.08,623.83 602.88,631.72 614.68,640.47 626.49,645.48 638.29,644.72 650.09,644.25 661.89,645.69 673.69,634.95 685.50,629.70 697.30,625.47 709.10,615.60 720.90,621.97 732.70,619.11 744.50,628.82 756.31,629.07 768.11,627.23 779.91,630.74 791.71,627.45 803.51,622.95 815.32,621.00 827.12,619.90 838.92,617.52 850.72,610.20 862.52,615.94 874.32,608.30 886.13,613.38 897.93,610.87 909.73,609.44 921.53,614.98 933.33,610.31 945.14,618.66 956.94,607.40 968.74,609.63 980.54,573.72 992.34,548.61 1004.14,529.31 1015.95,534.67 1027.75,543.67 1039.55,552.62 1051.35,560.35 1063.15,557.96 1074.95,562.55 1086.76,561.02 1098.56,560.95 1110.36,562.19 1122.16,556.39 1133.96,561.18 1145.77,562.38 1157.57,561.53 1169.37,559.24 1181.17,560.73 1192.97,562.23 1204.77,562.40 1216.58,559.06 1228.38,561.60 1240.18,563.36 1251.98,561.33 1263.78,563.85 1275.59,564.67 1287.39,568.90 1299.19,563.41 1310.99,565.32 1322.79,559.26 1334.59,563.77 1346.40,564.02 1358.20,560.76 1370.00,558.27" fill="none" stroke="#64748b" stroke-width="1.80" stroke-linejoin="round" stroke-linecap="round" />
<polyline points="60.00,615.62 71.80,615.71 83.60,621.91 95.41,625.17 107.21,626.79 119.01,627.17 130.81,623.54 142.61,625.70 154.41,627.37 166.22,638.45 178.02,633.27 189.82,631.52 201.62,633.69 213.42,631.86 225.23,638.75 237.03,632.30 248.83,634.61 260.63,625.86 272.43,618.75 284.23,625.23 296.04,633.02 307.84,640.57 319.64,635.20 331.44,644.96 343.24,636.67 355.05,625.94 366.85,622.13 378.65,626.25 390.45,622.40 402.25,626.92 414.05,630.56 425.86,626.22 437.66,624.35 449.46,610.66 461.26,600.85 473.06,589.49 484.86,593.48 496.67,597.92 508.47,626.75 520.27,637.10 532.07,593.48 543.87,597.92 555.68,626.75 567.48,637.10 579.28,636.29 591.08,636.37 602.88,634.57 614.68,627.66 626.49,623.88 638.29,623.83 650.09,631.72 661.89,640.47 673.69,645.48 685.50,644.72 697.30,644.25 709.10,645.69 720.90,634.95 732.70,629.70 744.50,625.47 756.31,615.60 768.11,621.97 779.91,619.11 791.71,628.82 803.51,629.07 815.32,627.23 827.12,630.74 838.92,627.45 850.72,622.95 862.52,621.00 874.32,619.90 886.13,617.52 897.93,610.20 909.73,609.44 921.53,614.98 933.33,610.31 945.14,618.66 956.94,607.40 968.74,609.63 980.54,573.72 992.34,548.61 1004.14,529.31 1015.95,534.67 1027.75,543.67 1039.55,552.62 1051.35,560.35 1063.15,557.96 1074.95,562.55 1086.76,561.02 1098.56,560.95 1110.36,562.19 1122.16,556.39 1133.96,561.18 1145.77,562.38 1157.57,561.53 1169.37,559.24 1181.17,560.73 1192.97,562.23 1204.77,562.40 1216.58,559.06 1228.38,561.60 1240.18,563.36 1251.98,561.33 1263.78,563.85 1275.59,564.67 1287.39,568.90 1299.19,563.41 1310.99,565.32 1322.79,559.26 1334.59,563.77 1346.40,564.02 1358.20,560.76 1370.00,558.27" fill="none" stroke="#b45309" stroke-width="2.20" stroke-linejoin="round" stroke-linecap="round" />
<text x="60" y="510" font-size="13" font-family="Arial, sans-serif" fill="#111827">test | segment 72 | lag=4 steps | 2022-03-26 09:30 -&gt; 2022-03-26 17:15</text>
<text x="60" y="673" font-size="11" font-family="Arial, sans-serif" fill="#475569">2022-03-25 23:30</text>
<text x="1370" y="673" text-anchor="end" font-size="11" font-family="Arial, sans-serif" fill="#475569">2022-03-27 03:15</text>
<text x="60" y="691" font-size="11" font-family="Arial, sans-serif" fill="#64748b">gray = original</text>
<text x="180" y="691" font-size="11" font-family="Arial, sans-serif" fill="#b45309">color = lagged</text>
</svg>