<svg xmlns="http://www.w3.org/2000/svg" width="1500" height="858" viewBox="0 0 1500 858">
<rect width="100%" height="100%" fill="#ffffff" />
<text x="78" y="28" font-size="22" font-family="Arial, sans-serif" fill="#111827">Stage2 Lag Block Detail</text>
<text x="78" y="48" font-size="12" font-family="Arial, sans-serif" fill="#475569">test | segment 75 | lag=2 steps (30 min) | block=32 steps (8h 00m)</text>
<text x="78" y="66" font-size="12" font-family="Arial, sans-serif" fill="#475569">injected: 2022-04-12 03:30 -> 2022-04-12 11:15 | source: 2022-04-12 03:00 -> 2022-04-12 10:45</text>
<text x="78" y="84" font-size="11" font-family="Arial, sans-serif" fill="#64748b">gray shade = source slice, color shade = injected slice, gray line = original, color line = lagged</text>
<rect x="489.26" y="96.00" width="531.21" height="86.00" fill="#cbd5e1" opacity="0.40" />
<rect x="523.53" y="96.00" width="531.21" height="86.00" fill="#0f766e" opacity="0.14" />
<line x1="523.53" y1="96.00" x2="523.53" y2="182.00" stroke="#0f766e" stroke-width="1.4" stroke-dasharray="5 4" />
<line x1="1054.74" y1="96.00" x2="1054.74" y2="182.00" stroke="#0f766e" stroke-width="1.4" stroke-dasharray="5 4" />
<line x1="78" y1="182.00" x2="1466" y2="182.00" stroke="#e2e8f0" stroke-width="1" />
<text x="66" y="186.00" text-anchor="end" font-size="11" font-family="Arial, sans-serif" fill="#475569">0</text>
<line x1="78" y1="153.33" x2="1466" y2="153.33" stroke="#e2e8f0" stroke-width="1" />
<text x="66" y="157.33" text-anchor="end" font-size="11" font-family="Arial, sans-serif" fill="#475569">2</text>
<line x1="78" y1="124.67" x2="1466" y2="124.67" stroke="#e2e8f0" stroke-width="1" />
<text x="66" y="128.67" text-anchor="end" font-size="11" font-family="Arial, sans-serif" fill="#475569">4</text>
<line x1="78" y1="96.00" x2="1466" y2="96.00" stroke="#e2e8f0" stroke-width="1" />
<text x="66" y="100.00" text-anchor="end" font-size="11" font-family="Arial, sans-serif" fill="#475569">6</text>
<path d="M 78.00 182.00 L 95.14 182.00 L 95.14 182.00 L 112.27 182.00 L 112.27 182.00 L 129.41 182.00 L 129.41 182.00 L 146.54 182.00 L 146.54 182.00 L 163.68 182.00 L 163.68 182.00 L 180.81 182.00 L 180.81 182.00 L 197.95 182.00 L 197.95 182.00 L 215.09 182.00 L 215.09 182.00 L 232.22 182.00 L 232.22 182.00 L 249.36 182.00 L 249.36 182.00 L 266.49 182.00 L 266.49 182.00 L 283.63 182.00 L 283.63 182.00 L 300.77 182.00 L 300.77 182.00 L 317.90 182.00 L 317.90 182.00 L 335.04 182.00 L 335.04 182.00 L 352.17 182.00 L 352.17 182.00 L 369.31 182.00 L 369.31 182.00 L 386.44 182.00 L 386.44 182.00 L 403.58 182.00 L 403.58 182.00 L 420.72 182.00 L 420.72 182.00 L 437.85 182.00 L 437.85 182.00 L 454.99 182.00 L 454.99 182.00 L 472.12 182.00 L 472.12 182.00 L 489.26 182.00 L 489.26 182.00 L 506.40 182.00 L 506.40 182.00 L 523.53 182.00 L 523.53 153.33 L 540.67 153.33 L 540.67 153.33 L 557.80 153.33 L 557.80 153.33 L 574.94 153.33 L 574.94 153.33 L 592.07 153.33 L 592.07 153.33 L 609.21 153.33 L 609.21 153.33 L 626.35 153.33 L 626.35 153.33 L 643.48 153.33 L 643.48 153.33 L 660.62 153.33 L 660.62 153.33 L 677.75 153.33 L 677.75 153.33 L 694.89 153.33 L 694.89 153.33 L 712.02 153.33 L 712.02 153.33 L 729.16 153.33 L 729.16 153.33 L 746.30 153.33 L 746.30 153.33 L 763.43 153.33 L 763.43 153.33 L 780.57 153.33 L 780.57 153.33 L 797.70 153.33 L 797.70 153.33 L 814.84 153.33 L 814.84 153.33 L 831.98 153.33 L 831.98 153.33 L 849.11 153.33 L 849.11 153.33 L 866.25 153.33 L 866.25 153.33 L 883.38 153.33 L 883.38 153.33 L 900.52 153.33 L 900.52 153.33 L 917.65 153.33 L 917.65 153.33 L 934.79 153.33 L 934.79 153.33 L 951.93 153.33 L 951.93 153.33 L 969.06 153.33 L 969.06 153.33 L 986.20 153.33 L 986.20 153.33 L 1003.33 153.33 L 1003.33 153.33 L 1020.47 153.33 L 1020.47 153.33 L 1037.60 153.33 L 1037.60 153.33 L 1054.74 153.33 L 1054.74 153.33 L 1071.88 153.33 L 1071.88 182.00 L 1089.01 182.00 L 1089.01 182.00 L 1106.15 182.00 L 1106.15 182.00 L 1123.28 182.00 L 1123.28 182.00 L 1140.42 182.00 L 1140.42 182.00 L 1157.56 182.00 L 1157.56 182.00 L 1174.69 182.00 L 1174.69 182.00 L 1191.83 182.00 L 1191.83 182.00 L 1208.96 182.00 L 1208.96 182.00 L 1226.10 182.00 L 1226.10 182.00 L 1243.23 182.00 L 1243.23 182.00 L 1260.37 182.00 L 1260.37 182.00 L 1277.51 182.00 L 1277.51 182.00 L 1294.64 182.00 L 1294.64 182.00 L 1311.78 182.00 L 1311.78 182.00 L 1328.91 182.00 L 1328.91 182.00 L 1346.05 182.00 L 1346.05 182.00 L 1363.19 182.00 L 1363.19 182.00 L 1380.32 182.00 L 1380.32 182.00 L 1397.46 182.00 L 1397.46 182.00 L 1414.59 182.00 L 1414.59 182.00 L 1431.73 182.00 L 1431.73 182.00 L 1448.86 182.00 L 1448.86 182.00 L 1466.00 182.00 L 1466.00 182.00" fill="none" stroke="#0f766e" stroke-width="2.4" stroke-linejoin="round" stroke-linecap="round" />
<text x="78" y="86" font-size="13" font-family="Arial, sans-serif" fill="#111827">lag_gt around this block</text>
<rect x="489.26" y="214.00" width="531.21" height="118.00" fill="#cbd5e1" opacity="0.40" />
<rect x="523.53" y="214.00" width="531.21" height="118.00" fill="#0f766e" opacity="0.14" />
<line x1="523.53" y1="214.00" x2="523.53" y2="332.00" stroke="#0f766e" stroke-width="1.4" stroke-dasharray="5 4" />
<line x1="1054.74" y1="214.00" x2="1054.74" y2="332.00" stroke="#0f766e" stroke-width="1.4" stroke-dasharray="5 4" />
<line x1="78" y1="332.00" x2="1466" y2="332.00" stroke="#e2e8f0" stroke-width="1" />
<line x1="78" y1="273.00" x2="1466" y2="273.00" stroke="#e2e8f0" stroke-width="1" />
<line x1="78" y1="214.00" x2="1466" y2="214.00" stroke="#e2e8f0" stroke-width="1" />
<polyline points="78.00,307.85 95.14,306.46 112.27,305.07 129.41,312.79 146.54,291.37 163.68,300.16 180.81,292.77 197.95,316.93 215.09,307.55 232.22,306.07 249.36,303.68 266.49,301.30 283.63,308.43 300.77,289.38 317.90,312.69 335.04,293.83 352.17,315.82 369.31,294.70 386.44,316.31 403.58,302.20 420.72,265.13 437.85,254.53 454.99,254.89 472.12,225.17 489.26,234.75 506.40,248.19 523.53,222.14 540.67,240.13 557.80,230.30 574.94,261.22 592.07,244.11 609.21,276.58 626.35,287.42 643.48,306.83 660.62,282.11 677.75,305.99 694.89,294.06 712.02,304.39 729.16,279.70 746.30,301.89 763.43,276.65 780.57,286.93 797.70,287.86 814.84,288.78 831.98,304.20 849.11,293.75 866.25,278.90 883.38,303.64 900.52,299.19 917.65,303.31 934.79,302.54 951.93,301.77 969.06,295.17 986.20,283.99 1003.33,314.56 1020.47,295.31 1037.60,322.24 1054.74,298.07 1071.88,321.94 1089.01,322.67 1106.15,299.01 1123.28,311.44 1140.42,323.86 1157.56,306.90 1174.69,295.74 1191.83,284.59 1208.96,287.83 1226.10,286.88 1243.23,278.63 1260.37,295.34 1277.51,322.21 1294.64,323.02 1311.78,296.87 1328.91,301.57 1346.05,283.40 1363.19,296.57 1380.32,312.09 1397.46,299.99 1414.59,288.85 1431.73,312.82 1448.86,290.25 1466.00,302.71" fill="none" stroke="#64748b" stroke-width="1.70" stroke-linejoin="round" stroke-linecap="round" />
<polyline points="78.00,307.85 95.14,306.46 112.27,305.07 129.41,312.79 146.54,291.37 163.68,300.16 180.81,292.77 197.95,316.93 215.09,307.55 232.22,306.07 249.36,303.68 266.49,301.30 283.63,308.43 300.77,289.38 317.90,312.69 335.04,293.83 352.17,315.82 369.31,294.70 386.44,316.31 403.58,302.20 420.72,265.13 437.85,254.53 454.99,254.89 472.12,225.17 489.26,234.75 506.40,248.19 523.53,234.75 540.67,248.19 557.80,222.14 574.94,240.13 592.07,230.30 609.21,261.22 626.35,244.11 643.48,276.58 660.62,287.42 677.75,306.83 694.89,282.11 712.02,305.99 729.16,294.06 746.30,304.39 763.43,279.70 780.57,301.89 797.70,276.65 814.84,286.93 831.98,287.86 849.11,288.78 866.25,304.20 883.38,293.75 900.52,278.90 917.65,303.64 934.79,299.19 951.93,303.31 969.06,302.54 986.20,301.77 1003.33,295.17 1020.47,283.99 1037.60,314.56 1054.74,295.31 1071.88,321.94 1089.01,322.67 1106.15,299.01 1123.28,311.44 1140.42,323.86 1157.56,306.90 1174.69,295.74 1191.83,284.59 1208.96,287.83 1226.10,286.88 1243.23,278.63 1260.37,295.34 1277.51,322.21 1294.64,323.02 1311.78,296.87 1328.91,301.57 1346.05,283.40 1363.19,296.57 1380.32,312.09 1397.46,299.99 1414.59,288.85 1431.73,312.82 1448.86,290.25 1466.00,302.71" fill="none" stroke="#0f766e" stroke-width="2.30" stroke-linejoin="round" stroke-linecap="round" />
<text x="78" y="204" font-size="13" font-family="Arial, sans-serif" fill="#111827">stage2_var1</text>
<rect x="489.26" y="364.00" width="531.21" height="118.00" fill="#cbd5e1" opacity="0.40" />
<rect x="523.53" y="364.00" width="531.21" height="118.00" fill="#0f766e" opacity="0.14" />
<line x1="523.53" y1="364.00" x2="523.53" y2="482.00" stroke="#0f766e" stroke-width="1.4" stroke-dasharray="5 4" />
<line x1="1054.74" y1="364.00" x2="1054.74" y2="482.00" stroke="#0f766e" stroke-width="1.4" stroke-dasharray="5 4" />
<line x1="78" y1="482.00" x2="1466" y2="482.00" stroke="#e2e8f0" stroke-width="1" />
<line x1="78" y1="423.00" x2="1466" y2="423.00" stroke="#e2e8f0" stroke-width="1" />
<line x1="78" y1="364.00" x2="1466" y2="364.00" stroke="#e2e8f0" stroke-width="1" />
<polyline points="78.00,450.77 95.14,444.68 112.27,438.58 129.41,435.01 146.54,433.95 163.68,436.01 180.81,413.29 197.95,413.10 215.09,395.36 232.22,402.18 249.36,408.37 266.49,414.57 283.63,424.15 300.77,428.90 317.90,434.05 335.04,439.83 352.17,433.92 369.31,428.50 386.44,398.34 403.58,383.69 420.72,372.14 437.85,393.43 454.99,425.55 472.12,426.65 489.26,438.89 506.40,444.46 523.53,442.90 540.67,431.52 557.80,428.79 574.94,426.39 592.07,419.45 609.21,421.34 626.35,416.63 643.48,416.22 660.62,428.72 677.75,430.25 694.89,459.63 712.02,473.11 729.16,472.27 746.30,468.53 763.43,473.86 780.57,471.24 797.70,471.01 814.84,470.77 831.98,471.56 849.11,467.62 866.25,471.53 883.38,467.28 900.52,438.79 917.65,440.96 934.79,445.37 951.93,449.78 969.06,472.26 986.20,461.92 1003.33,460.20 1020.47,433.17 1037.60,429.61 1054.74,425.40 1071.88,427.50 1089.01,424.92 1106.15,425.41 1123.28,420.43 1140.42,415.44 1157.56,399.43 1174.69,397.73 1191.83,396.02 1208.96,384.68 1226.10,395.69 1243.23,449.40 1260.37,455.19 1277.51,452.28 1294.64,432.61 1311.78,430.45 1328.91,425.44 1346.05,423.78 1363.19,439.62 1380.32,452.34 1397.46,460.64 1414.59,466.30 1431.73,461.93 1448.86,470.29 1466.00,468.25" fill="none" stroke="#64748b" stroke-width="1.70" stroke-linejoin="round" stroke-linecap="round" />
<polyline points="78.00,450.77 95.14,444.68 112.27,438.58 129.41,435.01 146.54,433.95 163.68,436.01 180.81,413.29 197.95,413.10 215.09,395.36 232.22,402.18 249.36,408.37 266.49,414.57 283.63,424.15 300.77,428.90 317.90,434.05 335.04,439.83 352.17,433.92 369.31,428.50 386.44,398.34 403.58,383.69 420.72,372.14 437.85,393.43 454.99,425.55 472.12,426.65 489.26,438.89 506.40,444.46 523.53,438.89 540.67,444.46 557.80,442.90 574.94,431.52 592.07,428.79 609.21,426.39 626.35,419.45 643.48,421.34 660.62,416.63 677.75,416.22 694.89,428.72 712.02,430.25 729.16,459.63 746.30,473.11 763.43,472.27 780.57,468.53 797.70,473.86 814.84,471.24 831.98,471.01 849.11,470.77 866.25,471.56 883.38,467.62 900.52,471.53 917.65,467.28 934.79,438.79 951.93,440.96 969.06,445.37 986.20,449.78 1003.33,472.26 1020.47,461.92 1037.60,460.20 1054.74,433.17 1071.88,427.50 1089.01,424.92 1106.15,425.41 1123.28,420.43 1140.42,415.44 1157.56,399.43 1174.69,397.73 1191.83,396.02 1208.96,384.68 1226.10,395.69 1243.23,449.40 1260.37,455.19 1277.51,452.28 1294.64,432.61 1311.78,430.45 1328.91,425.44 1346.05,423.78 1363.19,439.62 1380.32,452.34 1397.46,460.64 1414.59,466.30 1431.73,461.93 1448.86,470.29 1466.00,468.25" fill="none" stroke="#0f766e" stroke-width="2.30" stroke-linejoin="round" stroke-linecap="round" />
<text x="78" y="354" font-size="13" font-family="Arial, sans-serif" fill="#111827">stage2_var5</text>
<rect x="489.26" y="514.00" width="531.21" height="118.00" fill="#cbd5e1" opacity="0.40" />
<rect x="523.53" y="514.00" width="531.21" height="118.00" fill="#0f766e" opacity="0.14" />
<line x1="523.53" y1="514.00" x2="523.53" y2="632.00" stroke="#0f766e" stroke-width="1.4" stroke-dasharray="5 4" />
<line x1="1054.74" y1="514.00" x2="1054.74" y2="632.00" stroke="#0f766e" stroke-width="1.4" stroke-dasharray="5 4" />
<line x1="78" y1="632.00" x2="1466" y2="632.00" stroke="#e2e8f0" stroke-width="1" />
<line x1="78" y1="573.00" x2="1466" y2="573.00" stroke="#e2e8f0" stroke-width="1" />
<line x1="78" y1="514.00" x2="1466" y2="514.00" stroke="#e2e8f0" stroke-width="1" />
<polyline points="78.00,573.74 95.14,570.51 112.27,567.29 129.41,587.71 146.54,535.12 163.68,565.19 180.81,598.72 197.95,536.09 215.09,563.78 232.22,567.89 249.36,568.99 266.49,570.09 283.63,543.13 300.77,574.58 317.90,608.57 335.04,605.40 352.17,567.78 369.31,533.31 386.44,577.99 403.58,548.02 420.72,522.14 437.85,550.17 454.99,530.20 472.12,585.41 489.26,564.73 506.40,543.77 523.53,600.23 540.67,576.67 557.80,606.15 574.94,547.11 592.07,597.24 609.21,539.37 626.35,564.49 643.48,601.85 660.62,549.25 677.75,611.84 694.89,585.26 712.02,553.09 729.16,583.25 746.30,623.86 763.43,564.18 780.57,613.20 797.70,598.66 814.84,584.12 831.98,551.94 849.11,572.50 866.25,607.88 883.38,558.37 900.52,575.41 917.65,577.68 934.79,578.22 951.93,578.76 969.06,587.11 986.20,598.02 1003.33,546.60 1020.47,589.35 1037.60,542.72 1054.74,557.88 1071.88,604.78 1089.01,544.98 1106.15,594.57 1123.28,579.92 1140.42,565.27 1157.56,562.05 1174.69,549.54 1191.83,537.02 1208.96,563.20 1226.10,575.07 1243.23,551.87 1260.37,612.53 1277.51,542.96 1294.64,542.34 1311.78,594.08 1328.91,569.71 1346.05,546.81 1363.19,577.27 1380.32,607.42 1397.46,579.73 1414.59,552.63 1431.73,614.43 1448.86,551.71 1466.00,613.81" fill="none" stroke="#64748b" stroke-width="1.70" stroke-linejoin="round" stroke-linecap="round" />
<polyline points="78.00,573.74 95.14,570.51 112.27,567.29 129.41,587.71 146.54,535.12 163.68,565.19 180.81,598.72 197.95,536.09 215.09,563.78 232.22,567.89 249.36,568.99 266.49,570.09 283.63,543.13 300.77,574.58 317.90,608.57 335.04,605.40 352.17,567.78 369.31,533.31 386.44,577.99 403.58,548.02 420.72,522.14 437.85,550.17 454.99,530.20 472.12,585.41 489.26,564.73 506.40,543.77 523.53,564.73 540.67,543.77 557.80,600.23 574.94,576.67 592.07,606.15 609.21,547.11 626.35,597.24 643.48,539.37 660.62,564.49 677.75,601.85 694.89,549.25 712.02,611.84 729.16,585.26 746.30,553.09 763.43,583.25 780.57,623.86 797.70,564.18 814.84,613.20 831.98,598.66 849.11,584.12 866.25,551.94 883.38,572.50 900.52,607.88 917.65,558.37 934.79,575.41 951.93,577.68 969.06,578.22 986.20,578.76 1003.33,587.11 1020.47,598.02 1037.60,546.60 1054.74,589.35 1071.88,604.78 1089.01,544.98 1106.15,594.57 1123.28,579.92 1140.42,565.27 1157.56,562.05 1174.69,549.54 1191.83,537.02 1208.96,563.20 1226.10,575.07 1243.23,551.87 1260.37,612.53 1277.51,542.96 1294.64,542.34 1311.78,594.08 1328.91,569.71 1346.05,546.81 1363.19,577.27 1380.32,607.42 1397.46,579.73 1414.59,552.63 1431.73,614.43 1448.86,551.71 1466.00,613.81" fill="none" stroke="#0f766e" stroke-width="2.30" stroke-linejoin="round" stroke-linecap="round" />
<text x="78" y="504" font-size="13" font-family="Arial, sans-serif" fill="#111827">stage2_var8</text>
<rect x="489.26" y="664.00" width="531.21" height="118.00" fill="#cbd5e1" opacity="0.40" />
<rect x="523.53" y="664.00" width="531.21" height="118.00" fill="#0f766e" opacity="0.14" />
<line x1="523.53" y1="664.00" x2="523.53" y2="782.00" stroke="#0f766e" stroke-width="1.4" stroke-dasharray="5 4" />
<line x1="1054.74" y1="664.00" x2="1054.74" y2="782.00" stroke="#0f766e" stroke-width="1.4" stroke-dasharray="5 4" />
<line x1="78" y1="782.00" x2="1466" y2="782.00" stroke="#e2e8f0" stroke-width="1" />
<line x1="78" y1="723.00" x2="1466" y2="723.00" stroke="#e2e8f0" stroke-width="1" />
<line x1="78" y1="664.00" x2="1466" y2="664.00" stroke="#e2e8f0" stroke-width="1" />
<polyline points="78.00,672.14 95.14,672.14 112.27,672.14 129.41,672.14 146.54,672.14 163.68,672.14 180.81,672.14 197.95,672.14 215.09,672.14 232.22,672.14 249.36,672.14 266.49,672.14 283.63,672.14 300.77,672.14 317.90,672.14 335.04,672.14 352.17,672.14 369.31,672.14 386.44,672.14 403.58,672.14 420.72,672.14 437.85,672.14 454.99,672.14 472.12,672.14 489.26,672.14 506.40,672.14 523.53,672.14 540.67,672.14 557.80,672.14 574.94,672.14 592.07,672.14 609.21,672.14 626.35,672.14 643.48,672.14 660.62,672.14 677.75,672.14 694.89,672.14 712.02,672.14 729.16,672.14 746.30,672.14 763.43,672.14 780.57,672.14 797.70,672.14 814.84,672.14 831.98,672.14 849.11,672.14 866.25,672.14 883.38,672.14 900.52,773.86 917.65,773.86 934.79,773.86 951.93,773.86 969.06,773.86 986.20,773.86 1003.33,773.86 1020.47,773.86 1037.60,773.86 1054.74,773.86 1071.88,773.86 1089.01,773.86 1106.15,773.86 1123.28,773.86 1140.42,773.86 1157.56,773.86 1174.69,773.86 1191.83,773.86 1208.96,773.86 1226.10,773.86 1243.23,773.86 1260.37,773.86 1277.51,773.86 1294.64,773.86 1311.78,773.86 1328.91,773.86 1346.05,773.86 1363.19,773.86 1380.32,773.86 1397.46,773.86 1414.59,773.86 1431.73,773.86 1448.86,773.86 1466.00,773.86" fill="none" stroke="#64748b" stroke-width="1.70" stroke-linejoin="round" stroke-linecap="round" />
<polyline points="78.00,672.14 95.14,672.14 112.27,672.14 129.41,672.14 146.54,672.14 163.68,672.14 180.81,672.14 197.95,672.14 215.09,672.14 232.22,672.14 249.36,672.14 266.49,672.14 283.63,672.14 300.77,672.14 317.90,672.14 335.04,672.14 352.17,672.14 369.31,672.14 386.44,672.14 403.58,672.14 420.72,672.14 437.85,672.14 454.99,672.14 472.12,672.14 489.26,672.14 506.40,672.14 523.53,672.14 540.67,672.14 557.80,672.14 574.94,672.14 592.07,672.14 609.21,672.14 626.35,672.14 643.48,672.14 660.62,672.14 677.75,672.14 694.89,672.14 712.02,672.14 729.16,672.14 746.30,672.14 763.43,672.14 780.57,672.14 797.70,672.14 814.84,672.14 831.98,672.14 849.11,672.14 866.25,672.14 883.38,672.14 900.52,672.14 917.65,672.14 934.79,773.86 951.93,773.86 969.06,773.86 986.20,773.86 1003.33,773.86 1020.47,773.86 1037.60,773.86 1054.74,773.86 1071.88,773.86 1089.01,773.86 1106.15,773.86 1123.28,773.86 1140.42,773.86 1157.56,773.86 1174.69,773.86 1191.83,773.86 1208.96,773.86 1226.10,773.86 1243.23,773.86 1260.37,773.86 1277.51,773.86 1294.64,773.86 1311.78,773.86 1328.91,773.86 1346.05,773.86 1363.19,773.86 1380.32,773.86 1397.46,773.86 1414.59,773.86 1431.73,773.86 1448.86,773.86 1466.00,773.86" fill="none" stroke="#0f766e" stroke-width="2.30" stroke-linejoin="round" stroke-linecap="round" />
<text x="78" y="654" font-size="13" font-family="Arial, sans-serif" fill="#111827">stage2_var12</text>
<rect x="1140" y="20" width="14" height="10" fill="#cbd5e1" opacity="0.8" />
<text x="1160" y="29" font-size="11" font-family="Arial, sans-serif" fill="#334155">source slice</text>
<rect x="1250" y="20" width="14" height="10" fill="#0f766e" opacity="0.35" />
<text x="1270" y="29" font-size="11" font-family="Arial, sans-serif" fill="#334155">injected block</text>
<line x1="1390" y1="25" x2="1406" y2="25" stroke="#0f766e" stroke-width="2.3" />
<text x="1414" y="29" font-size="11" font-family="Arial, sans-serif" fill="#334155">lagged curve</text>
<text x="78" y="844" font-size="11" font-family="Arial, sans-serif" fill="#475569">2022-04-11 21:00</text>
<text x="1466" y="844" text-anchor="end" font-size="11" font-family="Arial, sans-serif" fill="#475569">2022-04-12 17:15</text>
<text x="489.26" y="112.00" font-size="10" font-family="Arial, sans-serif" fill="#334155">source</text>
<text x="523.53" y="126.00" font-size="10" font-family="Arial, sans-serif" fill="#0f766e">inject</text>
</svg>