<svg xmlns="http://www.w3.org/2000/svg" width="1500" height="858" viewBox="0 0 1500 858">
<rect width="100%" height="100%" fill="#ffffff" />
<text x="78" y="28" font-size="22" font-family="Arial, sans-serif" fill="#111827">Stage2 Lag Block Detail</text>
<text x="78" y="48" font-size="12" font-family="Arial, sans-serif" fill="#475569">train | segment 65 | lag=4 steps (60 min) | block=32 steps (8h 00m)</text>
<text x="78" y="66" font-size="12" font-family="Arial, sans-serif" fill="#475569">injected: 2022-01-12 17:15 -> 2022-01-13 01:00 | source: 2022-01-12 16:15 -> 2022-01-13 00:00</text>
<text x="78" y="84" font-size="11" font-family="Arial, sans-serif" fill="#64748b">gray shade = source slice, color shade = injected slice, gray line = original, color line = lagged</text>
<rect x="479.35" y="96.00" width="518.41" height="86.00" fill="#cbd5e1" opacity="0.40" />
<rect x="546.24" y="96.00" width="518.41" height="86.00" fill="#b45309" opacity="0.14" />
<line x1="546.24" y1="96.00" x2="546.24" y2="182.00" stroke="#b45309" stroke-width="1.4" stroke-dasharray="5 4" />
<line x1="1064.65" y1="96.00" x2="1064.65" y2="182.00" stroke="#b45309" stroke-width="1.4" stroke-dasharray="5 4" />
<line x1="78" y1="182.00" x2="1466" y2="182.00" stroke="#e2e8f0" stroke-width="1" />
<text x="66" y="186.00" text-anchor="end" font-size="11" font-family="Arial, sans-serif" fill="#475569">0</text>
<line x1="78" y1="153.33" x2="1466" y2="153.33" stroke="#e2e8f0" stroke-width="1" />
<text x="66" y="157.33" text-anchor="end" font-size="11" font-family="Arial, sans-serif" fill="#475569">2</text>
<line x1="78" y1="124.67" x2="1466" y2="124.67" stroke="#e2e8f0" stroke-width="1" />
<text x="66" y="128.67" text-anchor="end" font-size="11" font-family="Arial, sans-serif" fill="#475569">4</text>
<line x1="78" y1="96.00" x2="1466" y2="96.00" stroke="#e2e8f0" stroke-width="1" />
<text x="66" y="100.00" text-anchor="end" font-size="11" font-family="Arial, sans-serif" fill="#475569">6</text>
<path d="M 78.00 182.00 L 94.72 182.00 L 94.72 182.00 L 111.45 182.00 L 111.45 182.00 L 128.17 182.00 L 128.17 182.00 L 144.89 182.00 L 144.89 182.00 L 161.61 182.00 L 161.61 182.00 L 178.34 182.00 L 178.34 182.00 L 195.06 182.00 L 195.06 182.00 L 211.78 182.00 L 211.78 182.00 L 228.51 182.00 L 228.51 182.00 L 245.23 182.00 L 245.23 182.00 L 261.95 182.00 L 261.95 182.00 L 278.67 182.00 L 278.67 182.00 L 295.40 182.00 L 295.40 182.00 L 312.12 182.00 L 312.12 182.00 L 328.84 182.00 L 328.84 182.00 L 345.57 182.00 L 345.57 182.00 L 362.29 182.00 L 362.29 182.00 L 379.01 182.00 L 379.01 182.00 L 395.73 182.00 L 395.73 182.00 L 412.46 182.00 L 412.46 182.00 L 429.18 182.00 L 429.18 182.00 L 445.90 182.00 L 445.90 182.00 L 462.63 182.00 L 462.63 182.00 L 479.35 182.00 L 479.35 182.00 L 496.07 182.00 L 496.07 182.00 L 512.80 182.00 L 512.80 182.00 L 529.52 182.00 L 529.52 182.00 L 546.24 182.00 L 546.24 124.67 L 562.96 124.67 L 562.96 124.67 L 579.69 124.67 L 579.69 124.67 L 596.41 124.67 L 596.41 124.67 L 613.13 124.67 L 613.13 124.67 L 629.86 124.67 L 629.86 124.67 L 646.58 124.67 L 646.58 124.67 L 663.30 124.67 L 663.30 124.67 L 680.02 124.67 L 680.02 124.67 L 696.75 124.67 L 696.75 124.67 L 713.47 124.67 L 713.47 124.67 L 730.19 124.67 L 730.19 124.67 L 746.92 124.67 L 746.92 124.67 L 763.64 124.67 L 763.64 124.67 L 780.36 124.67 L 780.36 124.67 L 797.08 124.67 L 797.08 124.67 L 813.81 124.67 L 813.81 124.67 L 830.53 124.67 L 830.53 124.67 L 847.25 124.67 L 847.25 124.67 L 863.98 124.67 L 863.98 124.67 L 880.70 124.67 L 880.70 124.67 L 897.42 124.67 L 897.42 124.67 L 914.14 124.67 L 914.14 124.67 L 930.87 124.67 L 930.87 124.67 L 947.59 124.67 L 947.59 124.67 L 964.31 124.67 L 964.31 124.67 L 981.04 124.67 L 981.04 124.67 L 997.76 124.67 L 997.76 124.67 L 1014.48 124.67 L 1014.48 124.67 L 1031.20 124.67 L 1031.20 124.67 L 1047.93 124.67 L 1047.93 124.67 L 1064.65 124.67 L 1064.65 124.67 L 1081.37 124.67 L 1081.37 182.00 L 1098.10 182.00 L 1098.10 182.00 L 1114.82 182.00 L 1114.82 182.00 L 1131.54 182.00 L 1131.54 182.00 L 1148.27 182.00 L 1148.27 182.00 L 1164.99 182.00 L 1164.99 182.00 L 1181.71 182.00 L 1181.71 182.00 L 1198.43 182.00 L 1198.43 182.00 L 1215.16 182.00 L 1215.16 182.00 L 1231.88 182.00 L 1231.88 182.00 L 1248.60 182.00 L 1248.60 182.00 L 1265.33 182.00 L 1265.33 182.00 L 1282.05 182.00 L 1282.05 182.00 L 1298.77 182.00 L 1298.77 182.00 L 1315.49 182.00 L 1315.49 182.00 L 1332.22 182.00 L 1332.22 182.00 L 1348.94 182.00 L 1348.94 182.00 L 1365.66 182.00 L 1365.66 182.00 L 1382.39 182.00 L 1382.39 182.00 L 1399.11 182.00 L 1399.11 182.00 L 1415.83 182.00 L 1415.83 182.00 L 1432.55 182.00 L 1432.55 182.00 L 1449.28 182.00 L 1449.28 182.00 L 1466.00 182.00 L 1466.00 182.00" fill="none" stroke="#b45309" stroke-width="2.4" stroke-linejoin="round" stroke-linecap="round" />
<text x="78" y="86" font-size="13" font-family="Arial, sans-serif" fill="#111827">lag_gt around this block</text>
<rect x="479.35" y="214.00" width="518.41" height="118.00" fill="#cbd5e1" opacity="0.40" />
<rect x="546.24" y="214.00" width="518.41" height="118.00" fill="#b45309" opacity="0.14" />
<line x1="546.24" y1="214.00" x2="546.24" y2="332.00" stroke="#b45309" stroke-width="1.4" stroke-dasharray="5 4" />
<line x1="1064.65" y1="214.00" x2="1064.65" y2="332.00" stroke="#b45309" stroke-width="1.4" stroke-dasharray="5 4" />
<line x1="78" y1="332.00" x2="1466" y2="332.00" stroke="#e2e8f0" stroke-width="1" />
<line x1="78" y1="273.00" x2="1466" y2="273.00" stroke="#e2e8f0" stroke-width="1" />
<line x1="78" y1="214.00" x2="1466" y2="214.00" stroke="#e2e8f0" stroke-width="1" />
<polyline points="78.00,277.84 94.72,250.97 111.45,285.00 128.17,286.67 144.89,288.33 161.61,245.05 178.34,260.49 195.06,260.51 211.78,293.58 228.51,241.51 245.23,262.68 261.95,263.97 278.67,304.87 295.40,279.39 312.12,292.00 328.84,246.88 345.57,285.23 362.29,284.27 379.01,283.31 395.73,297.52 412.46,310.74 429.18,290.86 445.90,270.99 462.63,266.74 479.35,247.69 496.07,250.83 512.80,253.97 529.52,243.49 546.24,258.94 562.96,265.93 579.69,246.80 596.41,273.00 613.13,266.92 629.86,222.50 646.58,222.14 663.30,259.17 680.02,256.85 696.75,258.11 713.47,259.36 730.19,244.54 746.92,275.04 763.64,254.98 780.36,234.93 797.08,275.07 813.81,274.20 830.53,277.69 847.25,281.18 863.98,276.35 880.70,322.69 897.42,279.96 914.14,313.32 930.87,309.01 947.59,304.71 964.31,316.31 981.04,270.52 997.76,323.86 1014.48,286.47 1031.20,278.25 1047.93,270.02 1064.65,293.61 1081.37,311.14 1098.10,265.98 1114.82,264.01 1131.54,262.04 1148.27,278.44 1164.99,294.85 1181.71,290.42 1198.43,318.65 1215.16,300.18 1231.88,282.52 1248.60,314.10 1265.33,245.60 1282.05,260.76 1298.77,249.41 1315.49,269.61 1332.22,282.53 1348.94,281.06 1365.66,235.13 1382.39,238.57 1399.11,276.84 1415.83,264.19 1432.55,247.20 1449.28,275.28 1466.00,302.25" fill="none" stroke="#64748b" stroke-width="1.70" stroke-linejoin="round" stroke-linecap="round" />
<polyline points="78.00,277.84 94.72,250.97 111.45,285.00 128.17,286.67 144.89,288.33 161.61,245.05 178.34,260.49 195.06,260.51 211.78,293.58 228.51,241.51 245.23,262.68 261.95,263.97 278.67,304.87 295.40,279.39 312.12,292.00 328.84,246.88 345.57,285.23 362.29,284.27 379.01,283.31 395.73,297.52 412.46,310.74 429.18,290.86 445.90,270.99 462.63,266.74 479.35,247.69 496.07,250.83 512.80,253.97 529.52,243.49 546.24,247.69 562.96,250.83 579.69,253.97 596.41,243.49 613.13,258.94 629.86,265.93 646.58,246.80 663.30,273.00 680.02,266.92 696.75,222.50 713.47,222.14 730.19,259.17 746.92,256.85 763.64,258.11 780.36,259.36 797.08,244.54 813.81,275.04 830.53,254.98 847.25,234.93 863.98,275.07 880.70,274.20 897.42,277.69 914.14,281.18 930.87,276.35 947.59,322.69 964.31,279.96 981.04,313.32 997.76,309.01 1014.48,304.71 1031.20,316.31 1047.93,270.52 1064.65,323.86 1081.37,311.14 1098.10,265.98 1114.82,264.01 1131.54,262.04 1148.27,278.44 1164.99,294.85 1181.71,290.42 1198.43,318.65 1215.16,300.18 1231.88,282.52 1248.60,314.10 1265.33,245.60 1282.05,260.76 1298.77,249.41 1315.49,269.61 1332.22,282.53 1348.94,281.06 1365.66,235.13 1382.39,238.57 1399.11,276.84 1415.83,264.19 1432.55,247.20 1449.28,275.28 1466.00,302.25" fill="none" stroke="#b45309" stroke-width="2.30" stroke-linejoin="round" stroke-linecap="round" />
<text x="78" y="204" font-size="13" font-family="Arial, sans-serif" fill="#111827">stage2_var1</text>
<rect x="479.35" y="364.00" width="518.41" height="118.00" fill="#cbd5e1" opacity="0.40" />
<rect x="546.24" y="364.00" width="518.41" height="118.00" fill="#b45309" opacity="0.14" />
<line x1="546.24" y1="364.00" x2="546.24" y2="482.00" stroke="#b45309" stroke-width="1.4" stroke-dasharray="5 4" />
<line x1="1064.65" y1="364.00" x2="1064.65" y2="482.00" stroke="#b45309" stroke-width="1.4" stroke-dasharray="5 4" />
<line x1="78" y1="482.00" x2="1466" y2="482.00" stroke="#e2e8f0" stroke-width="1" />
<line x1="78" y1="423.00" x2="1466" y2="423.00" stroke="#e2e8f0" stroke-width="1" />
<line x1="78" y1="364.00" x2="1466" y2="364.00" stroke="#e2e8f0" stroke-width="1" />
<polyline points="78.00,466.31 94.72,473.86 111.45,467.18 128.17,467.09 144.89,466.99 161.61,454.11 178.34,424.31 195.06,426.71 211.78,425.51 228.51,397.65 245.23,402.20 261.95,408.17 278.67,402.29 295.40,403.99 312.12,411.21 328.84,404.63 345.57,431.14 362.29,436.76 379.01,442.38 395.73,445.67 412.46,439.04 429.18,431.70 445.90,424.36 462.63,411.22 479.35,397.61 496.07,402.88 512.80,408.15 529.52,411.99 546.24,426.49 562.96,434.03 579.69,432.97 596.41,426.62 613.13,412.76 629.86,415.92 646.58,410.98 663.30,426.61 680.02,433.03 696.75,438.36 713.47,443.69 730.19,450.30 746.92,444.37 763.64,446.14 780.36,447.90 797.08,455.10 813.81,459.44 830.53,463.64 847.25,467.84 863.98,472.97 880.70,458.27 897.42,439.04 914.14,429.78 930.87,422.55 947.59,415.32 964.31,417.22 981.04,409.41 997.76,395.21 1014.48,397.94 1031.20,401.98 1047.93,406.02 1064.65,387.15 1081.37,389.75 1098.10,396.12 1114.82,392.32 1131.54,388.51 1148.27,391.88 1164.99,395.24 1181.71,398.38 1198.43,395.88 1215.16,401.77 1231.88,392.25 1248.60,390.68 1265.33,376.41 1282.05,375.90 1298.77,378.14 1315.49,396.75 1332.22,385.31 1348.94,384.98 1365.66,372.36 1382.39,372.14 1399.11,378.39 1415.83,382.22 1432.55,382.26 1449.28,387.99 1466.00,380.89" fill="none" stroke="#64748b" stroke-width="1.70" stroke-linejoin="round" stroke-linecap="round" />
<polyline points="78.00,466.31 94.72,473.86 111.45,467.18 128.17,467.09 144.89,466.99 161.61,454.11 178.34,424.31 195.06,426.71 211.78,425.51 228.51,397.65 245.23,402.20 261.95,408.17 278.67,402.29 295.40,403.99 312.12,411.21 328.84,404.63 345.57,431.14 362.29,436.76 379.01,442.38 395.73,445.67 412.46,439.04 429.18,431.70 445.90,424.36 462.63,411.22 479.35,397.61 496.07,402.88 512.80,408.15 529.52,411.99 546.24,397.61 562.96,402.88 579.69,408.15 596.41,411.99 613.13,426.49 629.86,434.03 646.58,432.97 663.30,426.62 680.02,412.76 696.75,415.92 713.47,410.98 730.19,426.61 746.92,433.03 763.64,438.36 780.36,443.69 797.08,450.30 813.81,444.37 830.53,446.14 847.25,447.90 863.98,455.10 880.70,459.44 897.42,463.64 914.14,467.84 930.87,472.97 947.59,458.27 964.31,439.04 981.04,429.78 997.76,422.55 1014.48,415.32 1031.20,417.22 1047.93,409.41 1064.65,395.21 1081.37,389.75 1098.10,396.12 1114.82,392.32 1131.54,388.51 1148.27,391.88 1164.99,395.24 1181.71,398.38 1198.43,395.88 1215.16,401.77 1231.88,392.25 1248.60,390.68 1265.33,376.41 1282.05,375.90 1298.77,378.14 1315.49,396.75 1332.22,385.31 1348.94,384.98 1365.66,372.36 1382.39,372.14 1399.11,378.39 1415.83,382.22 1432.55,382.26 1449.28,387.99 1466.00,380.89" fill="none" stroke="#b45309" stroke-width="2.30" stroke-linejoin="round" stroke-linecap="round" />
<text x="78" y="354" font-size="13" font-family="Arial, sans-serif" fill="#111827">stage2_var5</text>
<rect x="479.35" y="514.00" width="518.41" height="118.00" fill="#cbd5e1" opacity="0.40" />
<rect x="546.24" y="514.00" width="518.41" height="118.00" fill="#b45309" opacity="0.14" />
<line x1="546.24" y1="514.00" x2="546.24" y2="632.00" stroke="#b45309" stroke-width="1.4" stroke-dasharray="5 4" />
<line x1="1064.65" y1="514.00" x2="1064.65" y2="632.00" stroke="#b45309" stroke-width="1.4" stroke-dasharray="5 4" />
<line x1="78" y1="632.00" x2="1466" y2="632.00" stroke="#e2e8f0" stroke-width="1" />
<line x1="78" y1="573.00" x2="1466" y2="573.00" stroke="#e2e8f0" stroke-width="1" />
<line x1="78" y1="514.00" x2="1466" y2="514.00" stroke="#e2e8f0" stroke-width="1" />
<polyline points="78.00,547.08 94.72,542.66 111.45,527.10 128.17,538.89 144.89,550.68 161.61,526.59 178.34,555.75 195.06,547.92 211.78,570.26 228.51,533.50 245.23,549.78 261.95,566.81 278.67,529.11 295.40,545.85 312.12,529.02 328.84,548.90 345.57,623.86 362.29,596.86 379.01,569.86 395.73,529.40 412.46,522.14 429.18,529.64 445.90,537.15 462.63,543.53 479.35,562.00 496.07,554.31 512.80,546.61 529.52,558.95 546.24,544.16 562.96,530.69 579.69,543.72 596.41,528.03 613.13,529.71 629.86,542.36 646.58,529.07 663.30,548.39 680.02,544.32 696.75,545.53 713.47,546.73 730.19,554.25 746.92,529.18 763.64,550.43 780.36,571.67 797.08,532.75 813.81,557.97 830.53,550.05 847.25,542.12 863.98,546.13 880.70,536.09 897.42,525.66 914.14,536.80 930.87,536.26 947.59,535.71 964.31,527.84 981.04,538.04 997.76,549.98 1014.48,537.22 1031.20,533.76 1047.93,530.31 1064.65,543.68 1081.37,533.17 1098.10,557.89 1114.82,553.49 1131.54,549.09 1148.27,540.47 1164.99,531.86 1181.71,544.13 1198.43,550.77 1215.16,539.62 1231.88,528.32 1248.60,526.96 1265.33,551.78 1282.05,545.06 1298.77,565.60 1315.49,542.57 1332.22,529.68 1348.94,531.51 1365.66,562.39 1382.39,560.19 1399.11,530.47 1415.83,540.40 1432.55,528.14 1449.28,547.55 1466.00,570.16" fill="none" stroke="#64748b" stroke-width="1.70" stroke-linejoin="round" stroke-linecap="round" />
<polyline points="78.00,547.08 94.72,542.66 111.45,527.10 128.17,538.89 144.89,550.68 161.61,526.59 178.34,555.75 195.06,547.92 211.78,570.26 228.51,533.50 245.23,549.78 261.95,566.81 278.67,529.11 295.40,545.85 312.12,529.02 328.84,548.90 345.57,623.86 362.29,596.86 379.01,569.86 395.73,529.40 412.46,522.14 429.18,529.64 445.90,537.15 462.63,543.53 479.35,562.00 496.07,554.31 512.80,546.61 529.52,558.95 546.24,562.00 562.96,554.31 579.69,546.61 596.41,558.95 613.13,544.16 629.86,530.69 646.58,543.72 663.30,528.03 680.02,529.71 696.75,542.36 713.47,529.07 730.19,548.39 746.92,544.32 763.64,545.53 780.36,546.73 797.08,554.25 813.81,529.18 830.53,550.43 847.25,571.67 863.98,532.75 880.70,557.97 897.42,550.05 914.14,542.12 930.87,546.13 947.59,536.09 964.31,525.66 981.04,536.80 997.76,536.26 1014.48,535.71 1031.20,527.84 1047.93,538.04 1064.65,549.98 1081.37,533.17 1098.10,557.89 1114.82,553.49 1131.54,549.09 1148.27,540.47 1164.99,531.86 1181.71,544.13 1198.43,550.77 1215.16,539.62 1231.88,528.32 1248.60,526.96 1265.33,551.78 1282.05,545.06 1298.77,565.60 1315.49,542.57 1332.22,529.68 1348.94,531.51 1365.66,562.39 1382.39,560.19 1399.11,530.47 1415.83,540.40 1432.55,528.14 1449.28,547.55 1466.00,570.16" fill="none" stroke="#b45309" stroke-width="2.30" stroke-linejoin="round" stroke-linecap="round" />
<text x="78" y="504" font-size="13" font-family="Arial, sans-serif" fill="#111827">stage2_var8</text>
<rect x="479.35" y="664.00" width="518.41" height="118.00" fill="#cbd5e1" opacity="0.40" />
<rect x="546.24" y="664.00" width="518.41" height="118.00" fill="#b45309" opacity="0.14" />
<line x1="546.24" y1="664.00" x2="546.24" y2="782.00" stroke="#b45309" stroke-width="1.4" stroke-dasharray="5 4" />
<line x1="1064.65" y1="664.00" x2="1064.65" y2="782.00" stroke="#b45309" stroke-width="1.4" stroke-dasharray="5 4" />
<line x1="78" y1="782.00" x2="1466" y2="782.00" stroke="#e2e8f0" stroke-width="1" />
<line x1="78" y1="723.00" x2="1466" y2="723.00" stroke="#e2e8f0" stroke-width="1" />
<line x1="78" y1="664.00" x2="1466" y2="664.00" stroke="#e2e8f0" stroke-width="1" />
<polyline points="78.00,723.00 94.72,723.00 111.45,723.00 128.17,723.00 144.89,723.00 161.61,723.00 178.34,723.00 195.06,723.00 211.78,723.00 228.51,723.00 245.23,723.00 261.95,723.00 278.67,723.00 295.40,723.00 312.12,723.00 328.84,723.00 345.57,723.00 362.29,723.00 379.01,723.00 395.73,723.00 412.46,723.00 429.18,723.00 445.90,723.00 462.63,723.00 479.35,723.00 496.07,723.00 512.80,723.00 529.52,723.00 546.24,723.00 562.96,723.00 579.69,723.00 596.41,723.00 613.13,723.00 629.86,723.00 646.58,723.00 663.30,723.00 680.02,723.00 696.75,723.00 713.47,723.00 730.19,723.00 746.92,723.00 763.64,723.00 780.36,723.00 797.08,723.00 813.81,723.00 830.53,723.00 847.25,723.00 863.98,723.00 880.70,723.00 897.42,723.00 914.14,723.00 930.87,723.00 947.59,723.00 964.31,723.00 981.04,723.00 997.76,723.00 1014.48,723.00 1031.20,723.00 1047.93,723.00 1064.65,723.00 1081.37,723.00 1098.10,723.00 1114.82,723.00 1131.54,723.00 1148.27,723.00 1164.99,723.00 1181.71,723.00 1198.43,723.00 1215.16,723.00 1231.88,723.00 1248.60,723.00 1265.33,723.00 1282.05,723.00 1298.77,723.00 1315.49,723.00 1332.22,723.00 1348.94,723.00 1365.66,723.00 1382.39,723.00 1399.11,723.00 1415.83,723.00 1432.55,723.00 1449.28,723.00 1466.00,723.00" fill="none" stroke="#64748b" stroke-width="1.70" stroke-linejoin="round" stroke-linecap="round" />
<polyline points="78.00,723.00 94.72,723.00 111.45,723.00 128.17,723.00 144.89,723.00 161.61,723.00 178.34,723.00 195.06,723.00 211.78,723.00 228.51,723.00 245.23,723.00 261.95,723.00 278.67,723.00 295.40,723.00 312.12,723.00 328.84,723.00 345.57,723.00 362.29,723.00 379.01,723.00 395.73,723.00 412.46,723.00 429.18,723.00 445.90,723.00 462.63,723.00 479.35,723.00 496.07,723.00 512.80,723.00 529.52,723.00 546.24,723.00 562.96,723.00 579.69,723.00 596.41,723.00 613.13,723.00 629.86,723.00 646.58,723.00 663.30,723.00 680.02,723.00 696.75,723.00 713.47,723.00 730.19,723.00 746.92,723.00 763.64,723.00 780.36,723.00 797.08,723.00 813.81,723.00 830.53,723.00 847.25,723.00 863.98,723.00 880.70,723.00 897.42,723.00 914.14,723.00 930.87,723.00 947.59,723.00 964.31,723.00 981.04,723.00 997.76,723.00 1014.48,723.00 1031.20,723.00 1047.93,723.00 1064.65,723.00 1081.37,723.00 1098.10,723.00 1114.82,723.00 1131.54,723.00 1148.27,723.00 1164.99,723.00 1181.71,723.00 1198.43,723.00 1215.16,723.00 1231.88,723.00 1248.60,723.00 1265.33,723.00 1282.05,723.00 1298.77,723.00 1315.49,723.00 1332.22,723.00 1348.94,723.00 1365.66,723.00 1382.39,723.00 1399.11,723.00 1415.83,723.00 1432.55,723.00 1449.28,723.00 1466.00,723.00" fill="none" stroke="#b45309" stroke-width="2.30" stroke-linejoin="round" stroke-linecap="round" />
<text x="78" y="654" font-size="13" font-family="Arial, sans-serif" fill="#111827">stage2_var12</text>
<rect x="1140" y="20" width="14" height="10" fill="#cbd5e1" opacity="0.8" />
<text x="1160" y="29" font-size="11" font-family="Arial, sans-serif" fill="#334155">source slice</text>
<rect x="1250" y="20" width="14" height="10" fill="#b45309" opacity="0.35" />
<text x="1270" y="29" font-size="11" font-family="Arial, sans-serif" fill="#334155">injected block</text>
<line x1="1390" y1="25" x2="1406" y2="25" stroke="#b45309" stroke-width="2.3" />
<text x="1414" y="29" font-size="11" font-family="Arial, sans-serif" fill="#334155">lagged curve</text>
<text x="78" y="844" font-size="11" font-family="Arial, sans-serif" fill="#475569">2022-01-12 10:15</text>
<text x="1466" y="844" text-anchor="end" font-size="11" font-family="Arial, sans-serif" fill="#475569">2022-01-13 07:00</text>
<text x="479.35" y="112.00" font-size="10" font-family="Arial, sans-serif" fill="#334155">source</text>
<text x="546.24" y="126.00" font-size="10" font-family="Arial, sans-serif" fill="#b45309">inject</text>
</svg>