<svg xmlns="http://www.w3.org/2000/svg" width="1500" height="858" viewBox="0 0 1500 858">
<rect width="100%" height="100%" fill="#ffffff" />
<text x="78" y="28" font-size="22" font-family="Arial, sans-serif" fill="#111827">Stage2 Lag Block Detail</text>
<text x="78" y="48" font-size="12" font-family="Arial, sans-serif" fill="#475569">train | segment 28 | lag=4 steps (60 min) | block=32 steps (8h 00m)</text>
<text x="78" y="66" font-size="12" font-family="Arial, sans-serif" fill="#475569">injected: 2021-07-14 20:00 -> 2021-07-15 03:45 | source: 2021-07-14 19:00 -> 2021-07-15 02:45</text>
<text x="78" y="84" font-size="11" font-family="Arial, sans-serif" fill="#64748b">gray shade = source slice, color shade = injected slice, gray line = original, color line = lagged</text>
<rect x="479.35" y="96.00" width="518.41" height="86.00" fill="#cbd5e1" opacity="0.40" />
<rect x="546.24" y="96.00" width="518.41" height="86.00" fill="#b45309" opacity="0.14" />
<line x1="546.24" y1="96.00" x2="546.24" y2="182.00" stroke="#b45309" stroke-width="1.4" stroke-dasharray="5 4" />
<line x1="1064.65" y1="96.00" x2="1064.65" y2="182.00" stroke="#b45309" stroke-width="1.4" stroke-dasharray="5 4" />
<line x1="78" y1="182.00" x2="1466" y2="182.00" stroke="#e2e8f0" stroke-width="1" />
<text x="66" y="186.00" text-anchor="end" font-size="11" font-family="Arial, sans-serif" fill="#475569">0</text>
<line x1="78" y1="153.33" x2="1466" y2="153.33" stroke="#e2e8f0" stroke-width="1" />
<text x="66" y="157.33" text-anchor="end" font-size="11" font-family="Arial, sans-serif" fill="#475569">2</text>
<line x1="78" y1="124.67" x2="1466" y2="124.67" stroke="#e2e8f0" stroke-width="1" />
<text x="66" y="128.67" text-anchor="end" font-size="11" font-family="Arial, sans-serif" fill="#475569">4</text>
<line x1="78" y1="96.00" x2="1466" y2="96.00" stroke="#e2e8f0" stroke-width="1" />
<text x="66" y="100.00" text-anchor="end" font-size="11" font-family="Arial, sans-serif" fill="#475569">6</text>
<path d="M 78.00 182.00 L 94.72 182.00 L 94.72 182.00 L 111.45 182.00 L 111.45 182.00 L 128.17 182.00 L 128.17 182.00 L 144.89 182.00 L 144.89 182.00 L 161.61 182.00 L 161.61 182.00 L 178.34 182.00 L 178.34 182.00 L 195.06 182.00 L 195.06 182.00 L 211.78 182.00 L 211.78 182.00 L 228.51 182.00 L 228.51 182.00 L 245.23 182.00 L 245.23 182.00 L 261.95 182.00 L 261.95 182.00 L 278.67 182.00 L 278.67 182.00 L 295.40 182.00 L 295.40 182.00 L 312.12 182.00 L 312.12 182.00 L 328.84 182.00 L 328.84 182.00 L 345.57 182.00 L 345.57 182.00 L 362.29 182.00 L 362.29 182.00 L 379.01 182.00 L 379.01 182.00 L 395.73 182.00 L 395.73 182.00 L 412.46 182.00 L 412.46 182.00 L 429.18 182.00 L 429.18 182.00 L 445.90 182.00 L 445.90 182.00 L 462.63 182.00 L 462.63 182.00 L 479.35 182.00 L 479.35 182.00 L 496.07 182.00 L 496.07 182.00 L 512.80 182.00 L 512.80 182.00 L 529.52 182.00 L 529.52 182.00 L 546.24 182.00 L 546.24 124.67 L 562.96 124.67 L 562.96 124.67 L 579.69 124.67 L 579.69 124.67 L 596.41 124.67 L 596.41 124.67 L 613.13 124.67 L 613.13 124.67 L 629.86 124.67 L 629.86 124.67 L 646.58 124.67 L 646.58 124.67 L 663.30 124.67 L 663.30 124.67 L 680.02 124.67 L 680.02 124.67 L 696.75 124.67 L 696.75 124.67 L 713.47 124.67 L 713.47 124.67 L 730.19 124.67 L 730.19 124.67 L 746.92 124.67 L 746.92 124.67 L 763.64 124.67 L 763.64 124.67 L 780.36 124.67 L 780.36 124.67 L 797.08 124.67 L 797.08 124.67 L 813.81 124.67 L 813.81 124.67 L 830.53 124.67 L 830.53 124.67 L 847.25 124.67 L 847.25 124.67 L 863.98 124.67 L 863.98 124.67 L 880.70 124.67 L 880.70 124.67 L 897.42 124.67 L 897.42 124.67 L 914.14 124.67 L 914.14 124.67 L 930.87 124.67 L 930.87 124.67 L 947.59 124.67 L 947.59 124.67 L 964.31 124.67 L 964.31 124.67 L 981.04 124.67 L 981.04 124.67 L 997.76 124.67 L 997.76 124.67 L 1014.48 124.67 L 1014.48 124.67 L 1031.20 124.67 L 1031.20 124.67 L 1047.93 124.67 L 1047.93 124.67 L 1064.65 124.67 L 1064.65 124.67 L 1081.37 124.67 L 1081.37 182.00 L 1098.10 182.00 L 1098.10 182.00 L 1114.82 182.00 L 1114.82 182.00 L 1131.54 182.00 L 1131.54 182.00 L 1148.27 182.00 L 1148.27 182.00 L 1164.99 182.00 L 1164.99 182.00 L 1181.71 182.00 L 1181.71 182.00 L 1198.43 182.00 L 1198.43 182.00 L 1215.16 182.00 L 1215.16 182.00 L 1231.88 182.00 L 1231.88 182.00 L 1248.60 182.00 L 1248.60 182.00 L 1265.33 182.00 L 1265.33 182.00 L 1282.05 182.00 L 1282.05 182.00 L 1298.77 182.00 L 1298.77 182.00 L 1315.49 182.00 L 1315.49 182.00 L 1332.22 182.00 L 1332.22 182.00 L 1348.94 182.00 L 1348.94 182.00 L 1365.66 182.00 L 1365.66 182.00 L 1382.39 182.00 L 1382.39 182.00 L 1399.11 182.00 L 1399.11 182.00 L 1415.83 182.00 L 1415.83 182.00 L 1432.55 182.00 L 1432.55 182.00 L 1449.28 182.00 L 1449.28 182.00 L 1466.00 182.00 L 1466.00 182.00" fill="none" stroke="#b45309" stroke-width="2.4" stroke-linejoin="round" stroke-linecap="round" />
<text x="78" y="86" font-size="13" font-family="Arial, sans-serif" fill="#111827">lag_gt around this block</text>
<rect x="479.35" y="214.00" width="518.41" height="118.00" fill="#cbd5e1" opacity="0.40" />
<rect x="546.24" y="214.00" width="518.41" height="118.00" fill="#b45309" opacity="0.14" />
<line x1="546.24" y1="214.00" x2="546.24" y2="332.00" stroke="#b45309" stroke-width="1.4" stroke-dasharray="5 4" />
<line x1="1064.65" y1="214.00" x2="1064.65" y2="332.00" stroke="#b45309" stroke-width="1.4" stroke-dasharray="5 4" />
<line x1="78" y1="332.00" x2="1466" y2="332.00" stroke="#e2e8f0" stroke-width="1" />
<line x1="78" y1="273.00" x2="1466" y2="273.00" stroke="#e2e8f0" stroke-width="1" />
<line x1="78" y1="214.00" x2="1466" y2="214.00" stroke="#e2e8f0" stroke-width="1" />
<polyline points="78.00,319.38 94.72,315.60 111.45,256.96 128.17,275.22 144.89,247.66 161.61,323.86 178.34,222.14 195.06,268.82 211.78,251.65 228.51,287.26 245.23,272.31 261.95,299.23 278.67,288.35 295.40,296.72 312.12,283.46 328.84,277.66 345.57,271.86 362.29,279.66 379.01,285.61 395.73,291.56 412.46,271.24 429.18,280.14 445.90,294.06 462.63,268.30 479.35,281.16 496.07,294.03 512.80,271.49 529.52,282.47 546.24,271.79 562.96,298.82 579.69,287.54 596.41,285.98 613.13,262.40 629.86,265.70 646.58,293.45 663.30,286.56 680.02,296.08 696.75,276.11 713.47,294.65 730.19,290.06 746.92,292.54 763.64,295.03 780.36,308.28 797.08,277.88 813.81,283.02 830.53,269.00 847.25,283.49 863.98,240.48 880.70,239.58 897.42,275.44 914.14,257.23 930.87,281.90 947.59,298.33 964.31,289.08 981.04,295.39 997.76,275.89 1014.48,287.30 1031.20,288.49 1047.93,306.73 1064.65,292.55 1081.37,278.37 1098.10,300.61 1114.82,288.20 1131.54,275.79 1148.27,287.77 1164.99,277.81 1181.71,300.21 1198.43,294.92 1215.16,285.18 1231.88,287.20 1248.60,292.79 1265.33,298.38 1282.05,270.38 1298.77,296.03 1315.49,283.95 1332.22,278.39 1348.94,272.82 1365.66,292.89 1382.39,276.71 1399.11,264.44 1415.83,252.17 1432.55,251.54 1449.28,251.42 1466.00,277.01" fill="none" stroke="#64748b" stroke-width="1.70" stroke-linejoin="round" stroke-linecap="round" />
<polyline points="78.00,319.38 94.72,315.60 111.45,256.96 128.17,275.22 144.89,247.66 161.61,323.86 178.34,222.14 195.06,268.82 211.78,251.65 228.51,287.26 245.23,272.31 261.95,299.23 278.67,288.35 295.40,296.72 312.12,283.46 328.84,277.66 345.57,271.86 362.29,279.66 379.01,285.61 395.73,291.56 412.46,271.24 429.18,280.14 445.90,294.06 462.63,268.30 479.35,281.16 496.07,294.03 512.80,271.49 529.52,282.47 546.24,281.16 562.96,294.03 579.69,271.49 596.41,282.47 613.13,271.79 629.86,298.82 646.58,287.54 663.30,285.98 680.02,262.40 696.75,265.70 713.47,293.45 730.19,286.56 746.92,296.08 763.64,276.11 780.36,294.65 797.08,290.06 813.81,292.54 830.53,295.03 847.25,308.28 863.98,277.88 880.70,283.02 897.42,269.00 914.14,283.49 930.87,240.48 947.59,239.58 964.31,275.44 981.04,257.23 997.76,281.90 1014.48,298.33 1031.20,289.08 1047.93,295.39 1064.65,275.89 1081.37,278.37 1098.10,300.61 1114.82,288.20 1131.54,275.79 1148.27,287.77 1164.99,277.81 1181.71,300.21 1198.43,294.92 1215.16,285.18 1231.88,287.20 1248.60,292.79 1265.33,298.38 1282.05,270.38 1298.77,296.03 1315.49,283.95 1332.22,278.39 1348.94,272.82 1365.66,292.89 1382.39,276.71 1399.11,264.44 1415.83,252.17 1432.55,251.54 1449.28,251.42 1466.00,277.01" fill="none" stroke="#b45309" stroke-width="2.30" stroke-linejoin="round" stroke-linecap="round" />
<text x="78" y="204" font-size="13" font-family="Arial, sans-serif" fill="#111827">stage2_var1</text>
<rect x="479.35" y="364.00" width="518.41" height="118.00" fill="#cbd5e1" opacity="0.40" />
<rect x="546.24" y="364.00" width="518.41" height="118.00" fill="#b45309" opacity="0.14" />
<line x1="546.24" y1="364.00" x2="546.24" y2="482.00" stroke="#b45309" stroke-width="1.4" stroke-dasharray="5 4" />
<line x1="1064.65" y1="364.00" x2="1064.65" y2="482.00" stroke="#b45309" stroke-width="1.4" stroke-dasharray="5 4" />
<line x1="78" y1="482.00" x2="1466" y2="482.00" stroke="#e2e8f0" stroke-width="1" />
<line x1="78" y1="423.00" x2="1466" y2="423.00" stroke="#e2e8f0" stroke-width="1" />
<line x1="78" y1="364.00" x2="1466" y2="364.00" stroke="#e2e8f0" stroke-width="1" />
<polyline points="78.00,437.89 94.72,462.61 111.45,438.31 128.17,462.84 144.89,462.85 161.61,444.49 178.34,473.58 195.06,469.76 211.78,473.86 228.51,441.50 245.23,470.54 261.95,442.34 278.67,460.52 295.40,468.02 312.12,451.91 328.84,444.90 345.57,437.89 362.29,451.18 379.01,443.75 395.73,436.33 412.46,462.89 429.18,450.60 445.90,468.61 462.63,441.82 479.35,456.21 496.07,470.61 512.80,441.51 529.52,450.64 546.24,468.44 562.96,442.18 579.69,454.60 596.41,468.46 613.13,437.57 629.86,463.46 646.58,434.99 663.30,445.63 680.02,443.05 696.75,471.38 713.47,450.23 730.19,461.90 746.92,462.88 763.64,463.86 780.36,469.20 797.08,445.09 813.81,451.74 830.53,463.23 847.25,435.72 863.98,457.97 880.70,433.61 897.42,462.90 914.14,467.26 930.87,453.99 947.59,443.38 964.31,455.64 981.04,469.04 997.76,438.98 1014.48,456.02 1031.20,456.12 1047.93,465.76 1064.65,459.25 1081.37,452.73 1098.10,450.80 1114.82,445.00 1131.54,439.20 1148.27,454.79 1164.99,469.59 1181.71,439.34 1198.43,453.23 1215.16,455.16 1231.88,454.80 1248.60,462.20 1265.33,469.60 1282.05,451.75 1298.77,438.21 1315.49,449.00 1332.22,449.63 1348.94,450.26 1365.66,463.74 1382.39,448.77 1399.11,440.09 1415.83,431.41 1432.55,444.18 1449.28,372.14 1466.00,428.75" fill="none" stroke="#64748b" stroke-width="1.70" stroke-linejoin="round" stroke-linecap="round" />
<polyline points="78.00,437.89 94.72,462.61 111.45,438.31 128.17,462.84 144.89,462.85 161.61,444.49 178.34,473.58 195.06,469.76 211.78,473.86 228.51,441.50 245.23,470.54 261.95,442.34 278.67,460.52 295.40,468.02 312.12,451.91 328.84,444.90 345.57,437.89 362.29,451.18 379.01,443.75 395.73,436.33 412.46,462.89 429.18,450.60 445.90,468.61 462.63,441.82 479.35,456.21 496.07,470.61 512.80,441.51 529.52,450.64 546.24,456.21 562.96,470.61 579.69,441.51 596.41,450.64 613.13,468.44 629.86,442.18 646.58,454.60 663.30,468.46 680.02,437.57 696.75,463.46 713.47,434.99 730.19,445.63 746.92,443.05 763.64,471.38 780.36,450.23 797.08,461.90 813.81,462.88 830.53,463.86 847.25,469.20 863.98,445.09 880.70,451.74 897.42,463.23 914.14,435.72 930.87,457.97 947.59,433.61 964.31,462.90 981.04,467.26 997.76,453.99 1014.48,443.38 1031.20,455.64 1047.93,469.04 1064.65,438.98 1081.37,452.73 1098.10,450.80 1114.82,445.00 1131.54,439.20 1148.27,454.79 1164.99,469.59 1181.71,439.34 1198.43,453.23 1215.16,455.16 1231.88,454.80 1248.60,462.20 1265.33,469.60 1282.05,451.75 1298.77,438.21 1315.49,449.00 1332.22,449.63 1348.94,450.26 1365.66,463.74 1382.39,448.77 1399.11,440.09 1415.83,431.41 1432.55,444.18 1449.28,372.14 1466.00,428.75" fill="none" stroke="#b45309" stroke-width="2.30" stroke-linejoin="round" stroke-linecap="round" />
<text x="78" y="354" font-size="13" font-family="Arial, sans-serif" fill="#111827">stage2_var5</text>
<rect x="479.35" y="514.00" width="518.41" height="118.00" fill="#cbd5e1" opacity="0.40" />
<rect x="546.24" y="514.00" width="518.41" height="118.00" fill="#b45309" opacity="0.14" />
<line x1="546.24" y1="514.00" x2="546.24" y2="632.00" stroke="#b45309" stroke-width="1.4" stroke-dasharray="5 4" />
<line x1="1064.65" y1="514.00" x2="1064.65" y2="632.00" stroke="#b45309" stroke-width="1.4" stroke-dasharray="5 4" />
<line x1="78" y1="632.00" x2="1466" y2="632.00" stroke="#e2e8f0" stroke-width="1" />
<line x1="78" y1="573.00" x2="1466" y2="573.00" stroke="#e2e8f0" stroke-width="1" />
<line x1="78" y1="514.00" x2="1466" y2="514.00" stroke="#e2e8f0" stroke-width="1" />
<polyline points="78.00,589.73 94.72,592.35 111.45,601.56 128.17,620.08 144.89,581.84 161.61,603.70 178.34,613.09 195.06,607.37 211.78,599.44 228.51,623.86 245.23,603.82 261.95,623.46 278.67,606.90 295.40,605.36 312.12,580.41 328.84,592.20 345.57,604.00 362.29,599.57 379.01,596.02 395.73,592.47 412.46,611.23 429.18,600.67 445.90,590.51 462.63,612.86 479.35,610.17 496.07,607.48 512.80,589.66 529.52,599.60 546.24,590.13 562.96,610.97 579.69,592.51 596.41,603.44 613.13,587.93 629.86,588.86 646.58,607.81 663.30,597.30 680.02,587.52 696.75,603.61 713.47,586.61 730.19,594.80 746.92,598.19 763.64,601.59 780.36,609.18 797.08,587.04 813.81,595.04 830.53,597.84 847.25,594.00 863.98,587.40 880.70,586.14 897.42,621.09 914.14,587.15 930.87,614.90 947.59,614.29 964.31,602.28 981.04,609.54 997.76,588.39 1014.48,592.34 1031.20,599.59 1047.93,605.66 1064.65,597.10 1081.37,588.55 1098.10,597.10 1114.82,603.37 1131.54,609.65 1148.27,600.09 1164.99,609.85 1181.71,588.06 1198.43,599.81 1215.16,599.87 1231.88,596.81 1248.60,592.40 1265.33,588.00 1282.05,615.71 1298.77,590.55 1315.49,592.64 1332.22,593.26 1348.94,593.87 1365.66,588.98 1382.39,604.30 1399.11,612.65 1415.83,621.00 1432.55,607.57 1449.28,598.12 1466.00,522.14" fill="none" stroke="#64748b" stroke-width="1.70" stroke-linejoin="round" stroke-linecap="round" />
<polyline points="78.00,589.73 94.72,592.35 111.45,601.56 128.17,620.08 144.89,581.84 161.61,603.70 178.34,613.09 195.06,607.37 211.78,599.44 228.51,623.86 245.23,603.82 261.95,623.46 278.67,606.90 295.40,605.36 312.12,580.41 328.84,592.20 345.57,604.00 362.29,599.57 379.01,596.02 395.73,592.47 412.46,611.23 429.18,600.67 445.90,590.51 462.63,612.86 479.35,610.17 496.07,607.48 512.80,589.66 529.52,599.60 546.24,610.17 562.96,607.48 579.69,589.66 596.41,599.60 613.13,590.13 629.86,610.97 646.58,592.51 663.30,603.44 680.02,587.93 696.75,588.86 713.47,607.81 730.19,597.30 746.92,587.52 763.64,603.61 780.36,586.61 797.08,594.80 813.81,598.19 830.53,601.59 847.25,609.18 863.98,587.04 880.70,595.04 897.42,597.84 914.14,594.00 930.87,587.40 947.59,586.14 964.31,621.09 981.04,587.15 997.76,614.90 1014.48,614.29 1031.20,602.28 1047.93,609.54 1064.65,588.39 1081.37,588.55 1098.10,597.10 1114.82,603.37 1131.54,609.65 1148.27,600.09 1164.99,609.85 1181.71,588.06 1198.43,599.81 1215.16,599.87 1231.88,596.81 1248.60,592.40 1265.33,588.00 1282.05,615.71 1298.77,590.55 1315.49,592.64 1332.22,593.26 1348.94,593.87 1365.66,588.98 1382.39,604.30 1399.11,612.65 1415.83,621.00 1432.55,607.57 1449.28,598.12 1466.00,522.14" fill="none" stroke="#b45309" stroke-width="2.30" stroke-linejoin="round" stroke-linecap="round" />
<text x="78" y="504" font-size="13" font-family="Arial, sans-serif" fill="#111827">stage2_var8</text>
<rect x="479.35" y="664.00" width="518.41" height="118.00" fill="#cbd5e1" opacity="0.40" />
<rect x="546.24" y="664.00" width="518.41" height="118.00" fill="#b45309" opacity="0.14" />
<line x1="546.24" y1="664.00" x2="546.24" y2="782.00" stroke="#b45309" stroke-width="1.4" stroke-dasharray="5 4" />
<line x1="1064.65" y1="664.00" x2="1064.65" y2="782.00" stroke="#b45309" stroke-width="1.4" stroke-dasharray="5 4" />
<line x1="78" y1="782.00" x2="1466" y2="782.00" stroke="#e2e8f0" stroke-width="1" />
<line x1="78" y1="723.00" x2="1466" y2="723.00" stroke="#e2e8f0" stroke-width="1" />
<line x1="78" y1="664.00" x2="1466" y2="664.00" stroke="#e2e8f0" stroke-width="1" />
<polyline points="78.00,773.86 94.72,773.86 111.45,773.86 128.17,773.86 144.89,773.86 161.61,773.86 178.34,773.86 195.06,773.86 211.78,773.86 228.51,773.86 245.23,773.86 261.95,773.86 278.67,773.86 295.40,773.86 312.12,773.86 328.84,773.86 345.57,773.86 362.29,773.86 379.01,773.86 395.73,773.86 412.46,773.86 429.18,773.86 445.90,773.86 462.63,773.86 479.35,773.86 496.07,773.86 512.80,773.86 529.52,773.86 546.24,773.86 562.96,773.86 579.69,773.86 596.41,773.86 613.13,773.86 629.86,773.86 646.58,773.86 663.30,773.86 680.02,773.86 696.75,773.86 713.47,773.86 730.19,773.86 746.92,773.86 763.64,773.86 780.36,773.86 797.08,773.86 813.81,773.86 830.53,773.86 847.25,773.86 863.98,773.86 880.70,773.86 897.42,773.86 914.14,773.86 930.87,773.86 947.59,773.86 964.31,773.86 981.04,773.86 997.76,773.86 1014.48,773.86 1031.20,773.86 1047.93,773.86 1064.65,773.86 1081.37,773.86 1098.10,773.86 1114.82,773.86 1131.54,773.86 1148.27,773.86 1164.99,773.86 1181.71,773.86 1198.43,773.86 1215.16,773.86 1231.88,773.86 1248.60,773.86 1265.33,773.86 1282.05,773.86 1298.77,773.86 1315.49,773.86 1332.22,773.86 1348.94,773.86 1365.66,773.86 1382.39,773.86 1399.11,773.86 1415.83,672.14 1432.55,672.14 1449.28,672.14 1466.00,672.14" fill="none" stroke="#64748b" stroke-width="1.70" stroke-linejoin="round" stroke-linecap="round" />
<polyline points="78.00,773.86 94.72,773.86 111.45,773.86 128.17,773.86 144.89,773.86 161.61,773.86 178.34,773.86 195.06,773.86 211.78,773.86 228.51,773.86 245.23,773.86 261.95,773.86 278.67,773.86 295.40,773.86 312.12,773.86 328.84,773.86 345.57,773.86 362.29,773.86 379.01,773.86 395.73,773.86 412.46,773.86 429.18,773.86 445.90,773.86 462.63,773.86 479.35,773.86 496.07,773.86 512.80,773.86 529.52,773.86 546.24,773.86 562.96,773.86 579.69,773.86 596.41,773.86 613.13,773.86 629.86,773.86 646.58,773.86 663.30,773.86 680.02,773.86 696.75,773.86 713.47,773.86 730.19,773.86 746.92,773.86 763.64,773.86 780.36,773.86 797.08,773.86 813.81,773.86 830.53,773.86 847.25,773.86 863.98,773.86 880.70,773.86 897.42,773.86 914.14,773.86 930.87,773.86 947.59,773.86 964.31,773.86 981.04,773.86 997.76,773.86 1014.48,773.86 1031.20,773.86 1047.93,773.86 1064.65,773.86 1081.37,773.86 1098.10,773.86 1114.82,773.86 1131.54,773.86 1148.27,773.86 1164.99,773.86 1181.71,773.86 1198.43,773.86 1215.16,773.86 1231.88,773.86 1248.60,773.86 1265.33,773.86 1282.05,773.86 1298.77,773.86 1315.49,773.86 1332.22,773.86 1348.94,773.86 1365.66,773.86 1382.39,773.86 1399.11,773.86 1415.83,672.14 1432.55,672.14 1449.28,672.14 1466.00,672.14" fill="none" stroke="#b45309" stroke-width="2.30" stroke-linejoin="round" stroke-linecap="round" />
<text x="78" y="654" font-size="13" font-family="Arial, sans-serif" fill="#111827">stage2_var12</text>
<rect x="1140" y="20" width="14" height="10" fill="#cbd5e1" opacity="0.8" />
<text x="1160" y="29" font-size="11" font-family="Arial, sans-serif" fill="#334155">source slice</text>
<rect x="1250" y="20" width="14" height="10" fill="#b45309" opacity="0.35" />
<text x="1270" y="29" font-size="11" font-family="Arial, sans-serif" fill="#334155">injected block</text>
<line x1="1390" y1="25" x2="1406" y2="25" stroke="#b45309" stroke-width="2.3" />
<text x="1414" y="29" font-size="11" font-family="Arial, sans-serif" fill="#334155">lagged curve</text>
<text x="78" y="844" font-size="11" font-family="Arial, sans-serif" fill="#475569">2021-07-14 13:00</text>
<text x="1466" y="844" text-anchor="end" font-size="11" font-family="Arial, sans-serif" fill="#475569">2021-07-15 09:45</text>
<text x="479.35" y="112.00" font-size="10" font-family="Arial, sans-serif" fill="#334155">source</text>
<text x="546.24" y="126.00" font-size="10" font-family="Arial, sans-serif" fill="#b45309">inject</text>
</svg>