<svg xmlns="http://www.w3.org/2000/svg" width="1600" height="980" viewBox="0 0 1600 980">
<rect width="100%" height="100%" fill="#fffdf8"/>
<text x="70" y="42" font-size="30" font-family="Arial, sans-serif" fill="#111827">LiquidSugar local_bump mixed balanced</text>
<text x="70" y="68" font-size="14" font-family="Arial, sans-serif" fill="#475569">Final mixed version uses shape=smooth with dmax_choices=[2,4,6], not a single d4-only setup. Test split is forced to contain 2 injected segments for each true dmax.</text>
<rect x="80" y="110" width="1440" height="120" rx="20" fill="#ffffff" stroke="#e5e7eb"/>
<text x="104" y="144" font-size="21" font-family="Arial, sans-serif" fill="#111827">Test split summary from local_bump_summary.json</text>
<text x="104" y="174" font-size="14" font-family="Arial, sans-serif" fill="#475569">requested_min_segments_per_dmax = 2, effective_min_segments_per_dmax = 2, all_dmax_present = true</text>
<circle cx="104" cy="202" r="8" fill="#0f766e"/>
<text x="122" y="207" font-size="14" font-family="Arial, sans-serif" fill="#111827">dmax=2: test segments=2, effective windows=1213, ratio=0.470</text>
<circle cx="554" cy="202" r="8" fill="#b45309"/>
<text x="572" y="207" font-size="14" font-family="Arial, sans-serif" fill="#111827">dmax=4: test segments=2, effective windows=842, ratio=0.326</text>
<circle cx="1004" cy="202" r="8" fill="#b91c1c"/>
<text x="1022" y="207" font-size="14" font-family="Arial, sans-serif" fill="#111827">dmax=6: test segments=2, effective windows=526, ratio=0.204</text>
<rect x="80" y="280" width="1440" height="180" rx="20" fill="#ffffff" stroke="#e5e7eb"/>
<text x="102" y="308" font-size="20" font-family="Arial, sans-serif" fill="#111827">dmax=2</text>
<text x="190" y="308" font-size="13" font-family="Arial, sans-serif" fill="#475569">smooth cosine bump -> rounded lag_gt -> pointwise time-varying shift</text>
<line x1="104" y1="426.0" x2="644" y2="426.0" stroke="#e5e7eb"/>
<text x="94" y="430.0" text-anchor="end" font-size="11" font-family="Arial, sans-serif" fill="#64748b">0</text>
<line x1="104" y1="380.0" x2="644" y2="380.0" stroke="#e5e7eb"/>
<text x="94" y="384.0" text-anchor="end" font-size="11" font-family="Arial, sans-serif" fill="#64748b">1</text>
<line x1="104" y1="334.0" x2="644" y2="334.0" stroke="#e5e7eb"/>
<text x="94" y="338.0" text-anchor="end" font-size="11" font-family="Arial, sans-serif" fill="#64748b">2</text>
<polyline points="104.0,426.0 153.1,418.7 202.2,399.1 251.3,373.5 300.4,349.9 349.5,335.9 398.5,335.9 447.6,349.9 496.7,373.5 545.8,399.1 594.9,418.7 644.0,426.0" fill="none" stroke="#0f766e" stroke-width="3" stroke-linecap="round" stroke-linejoin="round"/>
<polyline points="104.0,426.0 153.1,426.0 202.2,380.0 251.3,380.0 300.4,334.0 349.5,334.0 398.5,334.0 447.6,334.0 496.7,380.0 545.8,380.0 594.9,426.0 644.0,426.0" fill="none" stroke="#111827" stroke-width="2" stroke-dasharray="6 4" stroke-linecap="round" stroke-linejoin="round"/>
<text x="104" y="450" font-size="12" font-family="Arial, sans-serif" fill="#475569">rounded lag_gt: [0, 0, 1, 1, 2, 2, 2, 2, 1, 1, 0, 0]</text>
<line x1="840" y1="426.0" x2="1460" y2="426.0" stroke="#e5e7eb"/>
<text x="830" y="430.0" text-anchor="end" font-size="11" font-family="Arial, sans-serif" fill="#64748b">0</text>
<line x1="840" y1="380.0" x2="1460" y2="380.0" stroke="#e5e7eb"/>
<text x="830" y="384.0" text-anchor="end" font-size="11" font-family="Arial, sans-serif" fill="#64748b">1</text>
<line x1="840" y1="334.0" x2="1460" y2="334.0" stroke="#e5e7eb"/>
<text x="830" y="338.0" text-anchor="end" font-size="11" font-family="Arial, sans-serif" fill="#64748b">2</text>
<rect x="1035.8" y="334" width="228.4" height="92" fill="#fde68a" opacity="0.35"/>
<polyline points="840.0,426.0 872.6,426.0 905.3,426.0 937.9,426.0 970.5,426.0 1003.2,426.0 1035.8,380.0 1068.4,380.0 1101.1,334.0 1133.7,334.0 1166.3,334.0 1198.9,334.0 1231.6,380.0 1264.2,380.0 1296.8,426.0 1329.5,426.0 1362.1,426.0 1394.7,426.0 1427.4,426.0 1460.0,426.0" fill="none" stroke="#0f766e" stroke-width="3" stroke-linecap="round" stroke-linejoin="round"/>
<text x="840" y="450" font-size="12" font-family="Arial, sans-serif" fill="#475569">real test example from segment 72</text>
<text x="840.0" y="468" text-anchor="middle" font-size="10" font-family="Arial, sans-serif" fill="#64748b">03-25 05:45</text>
<text x="970.5" y="468" text-anchor="middle" font-size="10" font-family="Arial, sans-serif" fill="#64748b">03-25 06:45</text>
<text x="1101.1" y="468" text-anchor="middle" font-size="10" font-family="Arial, sans-serif" fill="#64748b">03-25 07:45</text>
<text x="1231.6" y="468" text-anchor="middle" font-size="10" font-family="Arial, sans-serif" fill="#64748b">03-25 08:45</text>
<text x="1362.1" y="468" text-anchor="middle" font-size="10" font-family="Arial, sans-serif" fill="#64748b">03-25 09:45</text>
<rect x="80" y="500" width="1440" height="180" rx="20" fill="#ffffff" stroke="#e5e7eb"/>
<text x="102" y="528" font-size="20" font-family="Arial, sans-serif" fill="#111827">dmax=4</text>
<text x="190" y="528" font-size="13" font-family="Arial, sans-serif" fill="#475569">smooth cosine bump -> rounded lag_gt -> pointwise time-varying shift</text>
<line x1="104" y1="646.0" x2="644" y2="646.0" stroke="#e5e7eb"/>
<text x="94" y="650.0" text-anchor="end" font-size="11" font-family="Arial, sans-serif" fill="#64748b">0</text>
<line x1="104" y1="623.0" x2="644" y2="623.0" stroke="#e5e7eb"/>
<text x="94" y="627.0" text-anchor="end" font-size="11" font-family="Arial, sans-serif" fill="#64748b">1</text>
<line x1="104" y1="600.0" x2="644" y2="600.0" stroke="#e5e7eb"/>
<text x="94" y="604.0" text-anchor="end" font-size="11" font-family="Arial, sans-serif" fill="#64748b">2</text>
<line x1="104" y1="577.0" x2="644" y2="577.0" stroke="#e5e7eb"/>
<text x="94" y="581.0" text-anchor="end" font-size="11" font-family="Arial, sans-serif" fill="#64748b">3</text>
<line x1="104" y1="554.0" x2="644" y2="554.0" stroke="#e5e7eb"/>
<text x="94" y="558.0" text-anchor="end" font-size="11" font-family="Arial, sans-serif" fill="#64748b">4</text>
<polyline points="104.0,646.0 153.1,638.7 202.2,619.1 251.3,593.5 300.4,569.9 349.5,555.9 398.5,555.9 447.6,569.9 496.7,593.5 545.8,619.1 594.9,638.7 644.0,646.0" fill="none" stroke="#b45309" stroke-width="3" stroke-linecap="round" stroke-linejoin="round"/>
<polyline points="104.0,646.0 153.1,646.0 202.2,623.0 251.3,600.0 300.4,577.0 349.5,554.0 398.5,554.0 447.6,577.0 496.7,600.0 545.8,623.0 594.9,646.0 644.0,646.0" fill="none" stroke="#111827" stroke-width="2" stroke-dasharray="6 4" stroke-linecap="round" stroke-linejoin="round"/>
<text x="104" y="670" font-size="12" font-family="Arial, sans-serif" fill="#475569">rounded lag_gt: [0, 0, 1, 2, 3, 4, 4, 3, 2, 1, 0, 0]</text>
<line x1="840" y1="646.0" x2="1460" y2="646.0" stroke="#e5e7eb"/>
<text x="830" y="650.0" text-anchor="end" font-size="11" font-family="Arial, sans-serif" fill="#64748b">0</text>
<line x1="840" y1="623.0" x2="1460" y2="623.0" stroke="#e5e7eb"/>
<text x="830" y="627.0" text-anchor="end" font-size="11" font-family="Arial, sans-serif" fill="#64748b">1</text>
<line x1="840" y1="600.0" x2="1460" y2="600.0" stroke="#e5e7eb"/>
<text x="830" y="604.0" text-anchor="end" font-size="11" font-family="Arial, sans-serif" fill="#64748b">2</text>
<line x1="840" y1="577.0" x2="1460" y2="577.0" stroke="#e5e7eb"/>
<text x="830" y="581.0" text-anchor="end" font-size="11" font-family="Arial, sans-serif" fill="#64748b">3</text>
<line x1="840" y1="554.0" x2="1460" y2="554.0" stroke="#e5e7eb"/>
<text x="830" y="558.0" text-anchor="end" font-size="11" font-family="Arial, sans-serif" fill="#64748b">4</text>
<rect x="1035.8" y="554" width="228.4" height="92" fill="#fde68a" opacity="0.35"/>
<polyline points="840.0,646.0 872.6,646.0 905.3,646.0 937.9,646.0 970.5,646.0 1003.2,646.0 1035.8,623.0 1068.4,600.0 1101.1,577.0 1133.7,554.0 1166.3,554.0 1198.9,577.0 1231.6,600.0 1264.2,623.0 1296.8,646.0 1329.5,646.0 1362.1,646.0 1394.7,646.0 1427.4,646.0 1460.0,646.0" fill="none" stroke="#b45309" stroke-width="3" stroke-linecap="round" stroke-linejoin="round"/>
<text x="840" y="670" font-size="12" font-family="Arial, sans-serif" fill="#475569">real test example from segment 77</text>
<text x="840.0" y="688" text-anchor="middle" font-size="10" font-family="Arial, sans-serif" fill="#64748b">04-18 16:00</text>
<text x="970.5" y="688" text-anchor="middle" font-size="10" font-family="Arial, sans-serif" fill="#64748b">04-18 17:00</text>
<text x="1101.1" y="688" text-anchor="middle" font-size="10" font-family="Arial, sans-serif" fill="#64748b">04-18 18:00</text>
<text x="1231.6" y="688" text-anchor="middle" font-size="10" font-family="Arial, sans-serif" fill="#64748b">04-18 19:00</text>
<text x="1362.1" y="688" text-anchor="middle" font-size="10" font-family="Arial, sans-serif" fill="#64748b">04-18 20:00</text>
<rect x="80" y="720" width="1440" height="180" rx="20" fill="#ffffff" stroke="#e5e7eb"/>
<text x="102" y="748" font-size="20" font-family="Arial, sans-serif" fill="#111827">dmax=6</text>
<text x="190" y="748" font-size="13" font-family="Arial, sans-serif" fill="#475569">smooth cosine bump -> rounded lag_gt -> pointwise time-varying shift</text>
<line x1="104" y1="866.0" x2="644" y2="866.0" stroke="#e5e7eb"/>
<text x="94" y="870.0" text-anchor="end" font-size="11" font-family="Arial, sans-serif" fill="#64748b">0</text>
<line x1="104" y1="850.7" x2="644" y2="850.7" stroke="#e5e7eb"/>
<text x="94" y="854.7" text-anchor="end" font-size="11" font-family="Arial, sans-serif" fill="#64748b">1</text>
<line x1="104" y1="835.3" x2="644" y2="835.3" stroke="#e5e7eb"/>
<text x="94" y="839.3" text-anchor="end" font-size="11" font-family="Arial, sans-serif" fill="#64748b">2</text>
<line x1="104" y1="820.0" x2="644" y2="820.0" stroke="#e5e7eb"/>
<text x="94" y="824.0" text-anchor="end" font-size="11" font-family="Arial, sans-serif" fill="#64748b">3</text>
<line x1="104" y1="804.7" x2="644" y2="804.7" stroke="#e5e7eb"/>
<text x="94" y="808.7" text-anchor="end" font-size="11" font-family="Arial, sans-serif" fill="#64748b">4</text>
<line x1="104" y1="789.3" x2="644" y2="789.3" stroke="#e5e7eb"/>
<text x="94" y="793.3" text-anchor="end" font-size="11" font-family="Arial, sans-serif" fill="#64748b">5</text>
<line x1="104" y1="774.0" x2="644" y2="774.0" stroke="#e5e7eb"/>
<text x="94" y="778.0" text-anchor="end" font-size="11" font-family="Arial, sans-serif" fill="#64748b">6</text>
<polyline points="104.0,866.0 153.1,858.7 202.2,839.1 251.3,813.5 300.4,789.9 349.5,775.9 398.5,775.9 447.6,789.9 496.7,813.5 545.8,839.1 594.9,858.7 644.0,866.0" fill="none" stroke="#b91c1c" stroke-width="3" stroke-linecap="round" stroke-linejoin="round"/>
<polyline points="104.0,866.0 153.1,866.0 202.2,835.3 251.3,820.0 300.4,789.3 349.5,774.0 398.5,774.0 447.6,789.3 496.7,820.0 545.8,835.3 594.9,866.0 644.0,866.0" fill="none" stroke="#111827" stroke-width="2" stroke-dasharray="6 4" stroke-linecap="round" stroke-linejoin="round"/>
<text x="104" y="890" font-size="12" font-family="Arial, sans-serif" fill="#475569">rounded lag_gt: [0, 0, 2, 3, 5, 6, 6, 5, 3, 2, 0, 0]</text>
<line x1="840" y1="866.0" x2="1460" y2="866.0" stroke="#e5e7eb"/>
<text x="830" y="870.0" text-anchor="end" font-size="11" font-family="Arial, sans-serif" fill="#64748b">0</text>
<line x1="840" y1="850.7" x2="1460" y2="850.7" stroke="#e5e7eb"/>
<text x="830" y="854.7" text-anchor="end" font-size="11" font-family="Arial, sans-serif" fill="#64748b">1</text>
<line x1="840" y1="835.3" x2="1460" y2="835.3" stroke="#e5e7eb"/>
<text x="830" y="839.3" text-anchor="end" font-size="11" font-family="Arial, sans-serif" fill="#64748b">2</text>
<line x1="840" y1="820.0" x2="1460" y2="820.0" stroke="#e5e7eb"/>
<text x="830" y="824.0" text-anchor="end" font-size="11" font-family="Arial, sans-serif" fill="#64748b">3</text>
<line x1="840" y1="804.7" x2="1460" y2="804.7" stroke="#e5e7eb"/>
<text x="830" y="808.7" text-anchor="end" font-size="11" font-family="Arial, sans-serif" fill="#64748b">4</text>
<line x1="840" y1="789.3" x2="1460" y2="789.3" stroke="#e5e7eb"/>
<text x="830" y="793.3" text-anchor="end" font-size="11" font-family="Arial, sans-serif" fill="#64748b">5</text>
<line x1="840" y1="774.0" x2="1460" y2="774.0" stroke="#e5e7eb"/>
<text x="830" y="778.0" text-anchor="end" font-size="11" font-family="Arial, sans-serif" fill="#64748b">6</text>
<rect x="1035.8" y="774" width="228.4" height="92" fill="#fde68a" opacity="0.35"/>
<polyline points="840.0,866.0 872.6,866.0 905.3,866.0 937.9,866.0 970.5,866.0 1003.2,866.0 1035.8,835.3 1068.4,820.0 1101.1,789.3 1133.7,774.0 1166.3,774.0 1198.9,789.3 1231.6,820.0 1264.2,835.3 1296.8,866.0 1329.5,866.0 1362.1,866.0 1394.7,866.0 1427.4,866.0 1460.0,866.0" fill="none" stroke="#b91c1c" stroke-width="3" stroke-linecap="round" stroke-linejoin="round"/>
<text x="840" y="890" font-size="12" font-family="Arial, sans-serif" fill="#475569">real test example from segment 74</text>
<text x="840.0" y="908" text-anchor="middle" font-size="10" font-family="Arial, sans-serif" fill="#64748b">04-07 11:15</text>
<text x="970.5" y="908" text-anchor="middle" font-size="10" font-family="Arial, sans-serif" fill="#64748b">04-07 12:15</text>
<text x="1101.1" y="908" text-anchor="middle" font-size="10" font-family="Arial, sans-serif" fill="#64748b">04-07 13:15</text>
<text x="1231.6" y="908" text-anchor="middle" font-size="10" font-family="Arial, sans-serif" fill="#64748b">04-07 14:15</text>
<text x="1362.1" y="908" text-anchor="middle" font-size="10" font-family="Arial, sans-serif" fill="#64748b">04-07 15:15</text>
</svg>