<svg xmlns="http://www.w3.org/2000/svg" width="1500" height="858" viewBox="0 0 1500 858">
<rect width="100%" height="100%" fill="#ffffff" />
<text x="78" y="28" font-size="22" font-family="Arial, sans-serif" fill="#111827">Stage2 Lag Block Detail</text>
<text x="78" y="48" font-size="12" font-family="Arial, sans-serif" fill="#475569">train | segment 34 | lag=2 steps (30 min) | block=32 steps (8h 00m)</text>
<text x="78" y="66" font-size="12" font-family="Arial, sans-serif" fill="#475569">injected: 2021-08-12 11:00 -> 2021-08-12 18:45 | source: 2021-08-12 10:30 -> 2021-08-12 18:15</text>
<text x="78" y="84" font-size="11" font-family="Arial, sans-serif" fill="#64748b">gray shade = source slice, color shade = injected slice, gray line = original, color line = lagged</text>
<rect x="489.26" y="96.00" width="531.21" height="86.00" fill="#cbd5e1" opacity="0.40" />
<rect x="523.53" y="96.00" width="531.21" height="86.00" fill="#0f766e" opacity="0.14" />
<line x1="523.53" y1="96.00" x2="523.53" y2="182.00" stroke="#0f766e" stroke-width="1.4" stroke-dasharray="5 4" />
<line x1="1054.74" y1="96.00" x2="1054.74" y2="182.00" stroke="#0f766e" stroke-width="1.4" stroke-dasharray="5 4" />
<line x1="78" y1="182.00" x2="1466" y2="182.00" stroke="#e2e8f0" stroke-width="1" />
<text x="66" y="186.00" text-anchor="end" font-size="11" font-family="Arial, sans-serif" fill="#475569">0</text>
<line x1="78" y1="153.33" x2="1466" y2="153.33" stroke="#e2e8f0" stroke-width="1" />
<text x="66" y="157.33" text-anchor="end" font-size="11" font-family="Arial, sans-serif" fill="#475569">2</text>
<line x1="78" y1="124.67" x2="1466" y2="124.67" stroke="#e2e8f0" stroke-width="1" />
<text x="66" y="128.67" text-anchor="end" font-size="11" font-family="Arial, sans-serif" fill="#475569">4</text>
<line x1="78" y1="96.00" x2="1466" y2="96.00" stroke="#e2e8f0" stroke-width="1" />
<text x="66" y="100.00" text-anchor="end" font-size="11" font-family="Arial, sans-serif" fill="#475569">6</text>
<path d="M 78.00 182.00 L 95.14 182.00 L 95.14 182.00 L 112.27 182.00 L 112.27 182.00 L 129.41 182.00 L 129.41 182.00 L 146.54 182.00 L 146.54 182.00 L 163.68 182.00 L 163.68 182.00 L 180.81 182.00 L 180.81 182.00 L 197.95 182.00 L 197.95 182.00 L 215.09 182.00 L 215.09 182.00 L 232.22 182.00 L 232.22 182.00 L 249.36 182.00 L 249.36 182.00 L 266.49 182.00 L 266.49 182.00 L 283.63 182.00 L 283.63 182.00 L 300.77 182.00 L 300.77 182.00 L 317.90 182.00 L 317.90 182.00 L 335.04 182.00 L 335.04 182.00 L 352.17 182.00 L 352.17 182.00 L 369.31 182.00 L 369.31 182.00 L 386.44 182.00 L 386.44 182.00 L 403.58 182.00 L 403.58 182.00 L 420.72 182.00 L 420.72 182.00 L 437.85 182.00 L 437.85 182.00 L 454.99 182.00 L 454.99 182.00 L 472.12 182.00 L 472.12 182.00 L 489.26 182.00 L 489.26 182.00 L 506.40 182.00 L 506.40 182.00 L 523.53 182.00 L 523.53 153.33 L 540.67 153.33 L 540.67 153.33 L 557.80 153.33 L 557.80 153.33 L 574.94 153.33 L 574.94 153.33 L 592.07 153.33 L 592.07 153.33 L 609.21 153.33 L 609.21 153.33 L 626.35 153.33 L 626.35 153.33 L 643.48 153.33 L 643.48 153.33 L 660.62 153.33 L 660.62 153.33 L 677.75 153.33 L 677.75 153.33 L 694.89 153.33 L 694.89 153.33 L 712.02 153.33 L 712.02 153.33 L 729.16 153.33 L 729.16 153.33 L 746.30 153.33 L 746.30 153.33 L 763.43 153.33 L 763.43 153.33 L 780.57 153.33 L 780.57 153.33 L 797.70 153.33 L 797.70 153.33 L 814.84 153.33 L 814.84 153.33 L 831.98 153.33 L 831.98 153.33 L 849.11 153.33 L 849.11 153.33 L 866.25 153.33 L 866.25 153.33 L 883.38 153.33 L 883.38 153.33 L 900.52 153.33 L 900.52 153.33 L 917.65 153.33 L 917.65 153.33 L 934.79 153.33 L 934.79 153.33 L 951.93 153.33 L 951.93 153.33 L 969.06 153.33 L 969.06 153.33 L 986.20 153.33 L 986.20 153.33 L 1003.33 153.33 L 1003.33 153.33 L 1020.47 153.33 L 1020.47 153.33 L 1037.60 153.33 L 1037.60 153.33 L 1054.74 153.33 L 1054.74 153.33 L 1071.88 153.33 L 1071.88 182.00 L 1089.01 182.00 L 1089.01 182.00 L 1106.15 182.00 L 1106.15 182.00 L 1123.28 182.00 L 1123.28 182.00 L 1140.42 182.00 L 1140.42 182.00 L 1157.56 182.00 L 1157.56 182.00 L 1174.69 182.00 L 1174.69 182.00 L 1191.83 182.00 L 1191.83 182.00 L 1208.96 182.00 L 1208.96 182.00 L 1226.10 182.00 L 1226.10 182.00 L 1243.23 182.00 L 1243.23 182.00 L 1260.37 182.00 L 1260.37 182.00 L 1277.51 182.00 L 1277.51 182.00 L 1294.64 182.00 L 1294.64 182.00 L 1311.78 182.00 L 1311.78 182.00 L 1328.91 182.00 L 1328.91 182.00 L 1346.05 182.00 L 1346.05 182.00 L 1363.19 182.00 L 1363.19 182.00 L 1380.32 182.00 L 1380.32 182.00 L 1397.46 182.00 L 1397.46 182.00 L 1414.59 182.00 L 1414.59 182.00 L 1431.73 182.00 L 1431.73 182.00 L 1448.86 182.00 L 1448.86 182.00 L 1466.00 182.00 L 1466.00 182.00" fill="none" stroke="#0f766e" stroke-width="2.4" stroke-linejoin="round" stroke-linecap="round" />
<text x="78" y="86" font-size="13" font-family="Arial, sans-serif" fill="#111827">lag_gt around this block</text>
<rect x="489.26" y="214.00" width="531.21" height="118.00" fill="#cbd5e1" opacity="0.40" />
<rect x="523.53" y="214.00" width="531.21" height="118.00" fill="#0f766e" opacity="0.14" />
<line x1="523.53" y1="214.00" x2="523.53" y2="332.00" stroke="#0f766e" stroke-width="1.4" stroke-dasharray="5 4" />
<line x1="1054.74" y1="214.00" x2="1054.74" y2="332.00" stroke="#0f766e" stroke-width="1.4" stroke-dasharray="5 4" />
<line x1="78" y1="332.00" x2="1466" y2="332.00" stroke="#e2e8f0" stroke-width="1" />
<line x1="78" y1="273.00" x2="1466" y2="273.00" stroke="#e2e8f0" stroke-width="1" />
<line x1="78" y1="214.00" x2="1466" y2="214.00" stroke="#e2e8f0" stroke-width="1" />
<polyline points="78.00,279.06 95.14,280.86 112.27,279.19 129.41,295.41 146.54,286.26 163.68,278.55 180.81,270.84 197.95,274.51 215.09,275.57 232.22,276.64 249.36,302.08 266.49,264.32 283.63,268.95 300.77,245.98 317.90,243.95 335.04,240.27 352.17,236.60 369.31,276.04 386.44,276.81 403.58,258.40 420.72,278.48 437.85,260.58 454.99,276.77 472.12,263.13 489.26,249.49 506.40,243.36 523.53,261.61 540.67,254.39 557.80,269.26 574.94,260.49 592.07,251.71 609.21,243.09 626.35,258.48 643.48,256.11 660.62,253.74 677.75,244.66 694.89,263.41 712.02,222.14 729.16,239.17 746.30,256.21 763.43,258.73 780.57,261.25 797.70,222.99 814.84,249.26 831.98,283.12 849.11,272.85 866.25,290.58 883.38,276.08 900.52,275.23 917.65,296.63 934.79,280.71 951.93,285.02 969.06,289.33 986.20,291.12 1003.33,283.57 1020.47,296.53 1037.60,292.22 1054.74,287.91 1071.88,289.47 1089.01,297.28 1106.15,278.84 1123.28,316.98 1140.42,304.51 1157.56,308.45 1174.69,291.41 1191.83,283.99 1208.96,290.21 1226.10,296.71 1243.23,296.97 1260.37,297.22 1277.51,314.92 1294.64,314.18 1311.78,323.86 1328.91,297.84 1346.05,297.56 1363.19,297.28 1380.32,293.24 1397.46,271.68 1414.59,279.39 1431.73,268.66 1448.86,291.99 1466.00,289.87" fill="none" stroke="#64748b" stroke-width="1.70" stroke-linejoin="round" stroke-linecap="round" />
<polyline points="78.00,279.06 95.14,280.86 112.27,279.19 129.41,295.41 146.54,286.26 163.68,278.55 180.81,270.84 197.95,274.51 215.09,275.57 232.22,276.64 249.36,302.08 266.49,264.32 283.63,268.95 300.77,245.98 317.90,243.95 335.04,240.27 352.17,236.60 369.31,276.04 386.44,276.81 403.58,258.40 420.72,278.48 437.85,260.58 454.99,276.77 472.12,263.13 489.26,249.49 506.40,243.36 523.53,249.49 540.67,243.36 557.80,261.61 574.94,254.39 592.07,269.26 609.21,260.49 626.35,251.71 643.48,243.09 660.62,258.48 677.75,256.11 694.89,253.74 712.02,244.66 729.16,263.41 746.30,222.14 763.43,239.17 780.57,256.21 797.70,258.73 814.84,261.25 831.98,222.99 849.11,249.26 866.25,283.12 883.38,272.85 900.52,290.58 917.65,276.08 934.79,275.23 951.93,296.63 969.06,280.71 986.20,285.02 1003.33,289.33 1020.47,291.12 1037.60,283.57 1054.74,296.53 1071.88,289.47 1089.01,297.28 1106.15,278.84 1123.28,316.98 1140.42,304.51 1157.56,308.45 1174.69,291.41 1191.83,283.99 1208.96,290.21 1226.10,296.71 1243.23,296.97 1260.37,297.22 1277.51,314.92 1294.64,314.18 1311.78,323.86 1328.91,297.84 1346.05,297.56 1363.19,297.28 1380.32,293.24 1397.46,271.68 1414.59,279.39 1431.73,268.66 1448.86,291.99 1466.00,289.87" fill="none" stroke="#0f766e" stroke-width="2.30" stroke-linejoin="round" stroke-linecap="round" />
<text x="78" y="204" font-size="13" font-family="Arial, sans-serif" fill="#111827">stage2_var1</text>
<rect x="489.26" y="364.00" width="531.21" height="118.00" fill="#cbd5e1" opacity="0.40" />
<rect x="523.53" y="364.00" width="531.21" height="118.00" fill="#0f766e" opacity="0.14" />
<line x1="523.53" y1="364.00" x2="523.53" y2="482.00" stroke="#0f766e" stroke-width="1.4" stroke-dasharray="5 4" />
<line x1="1054.74" y1="364.00" x2="1054.74" y2="482.00" stroke="#0f766e" stroke-width="1.4" stroke-dasharray="5 4" />
<line x1="78" y1="482.00" x2="1466" y2="482.00" stroke="#e2e8f0" stroke-width="1" />
<line x1="78" y1="423.00" x2="1466" y2="423.00" stroke="#e2e8f0" stroke-width="1" />
<line x1="78" y1="364.00" x2="1466" y2="364.00" stroke="#e2e8f0" stroke-width="1" />
<polyline points="78.00,453.38 95.14,437.33 112.27,418.22 129.41,450.76 146.54,441.25 163.68,443.82 180.81,446.39 197.95,460.02 215.09,461.16 232.22,462.30 249.36,465.74 266.49,445.97 283.63,443.25 300.77,461.86 317.90,473.86 335.04,467.97 352.17,462.08 369.31,441.06 386.44,425.72 403.58,440.28 420.72,426.07 437.85,429.62 454.99,415.74 472.12,420.69 489.26,425.64 506.40,423.87 523.53,407.05 540.67,412.30 557.80,393.49 574.94,398.04 592.07,402.59 609.21,423.47 626.35,434.90 643.48,434.22 660.62,433.55 677.75,443.59 694.89,427.77 712.02,446.40 729.16,445.72 746.30,445.05 763.43,429.97 780.57,414.89 797.70,419.77 814.84,452.29 831.98,439.43 849.11,448.04 866.25,424.85 883.38,397.40 900.52,413.37 917.65,372.14 934.79,390.81 951.93,389.89 969.06,388.97 986.20,379.77 1003.33,373.65 1020.47,390.81 1037.60,389.86 1054.74,388.91 1071.88,401.51 1089.01,404.14 1106.15,402.34 1123.28,389.60 1140.42,397.77 1157.56,407.17 1174.69,430.00 1191.83,421.17 1208.96,442.72 1226.10,450.04 1243.23,437.52 1260.37,424.99 1277.51,470.09 1294.64,435.49 1311.78,411.99 1328.91,394.35 1346.05,394.88 1363.19,395.40 1380.32,405.74 1397.46,394.85 1414.59,411.07 1431.73,411.01 1448.86,424.96 1466.00,407.51" fill="none" stroke="#64748b" stroke-width="1.70" stroke-linejoin="round" stroke-linecap="round" />
<polyline points="78.00,453.38 95.14,437.33 112.27,418.22 129.41,450.76 146.54,441.25 163.68,443.82 180.81,446.39 197.95,460.02 215.09,461.16 232.22,462.30 249.36,465.74 266.49,445.97 283.63,443.25 300.77,461.86 317.90,473.86 335.04,467.97 352.17,462.08 369.31,441.06 386.44,425.72 403.58,440.28 420.72,426.07 437.85,429.62 454.99,415.74 472.12,420.69 489.26,425.64 506.40,423.87 523.53,425.64 540.67,423.87 557.80,407.05 574.94,412.30 592.07,393.49 609.21,398.04 626.35,402.59 643.48,423.47 660.62,434.90 677.75,434.22 694.89,433.55 712.02,443.59 729.16,427.77 746.30,446.40 763.43,445.72 780.57,445.05 797.70,429.97 814.84,414.89 831.98,419.77 849.11,452.29 866.25,439.43 883.38,448.04 900.52,424.85 917.65,397.40 934.79,413.37 951.93,372.14 969.06,390.81 986.20,389.89 1003.33,388.97 1020.47,379.77 1037.60,373.65 1054.74,390.81 1071.88,401.51 1089.01,404.14 1106.15,402.34 1123.28,389.60 1140.42,397.77 1157.56,407.17 1174.69,430.00 1191.83,421.17 1208.96,442.72 1226.10,450.04 1243.23,437.52 1260.37,424.99 1277.51,470.09 1294.64,435.49 1311.78,411.99 1328.91,394.35 1346.05,394.88 1363.19,395.40 1380.32,405.74 1397.46,394.85 1414.59,411.07 1431.73,411.01 1448.86,424.96 1466.00,407.51" fill="none" stroke="#0f766e" stroke-width="2.30" stroke-linejoin="round" stroke-linecap="round" />
<text x="78" y="354" font-size="13" font-family="Arial, sans-serif" fill="#111827">stage2_var5</text>
<rect x="489.26" y="514.00" width="531.21" height="118.00" fill="#cbd5e1" opacity="0.40" />
<rect x="523.53" y="514.00" width="531.21" height="118.00" fill="#0f766e" opacity="0.14" />
<line x1="523.53" y1="514.00" x2="523.53" y2="632.00" stroke="#0f766e" stroke-width="1.4" stroke-dasharray="5 4" />
<line x1="1054.74" y1="514.00" x2="1054.74" y2="632.00" stroke="#0f766e" stroke-width="1.4" stroke-dasharray="5 4" />
<line x1="78" y1="632.00" x2="1466" y2="632.00" stroke="#e2e8f0" stroke-width="1" />
<line x1="78" y1="573.00" x2="1466" y2="573.00" stroke="#e2e8f0" stroke-width="1" />
<line x1="78" y1="514.00" x2="1466" y2="514.00" stroke="#e2e8f0" stroke-width="1" />
<polyline points="78.00,568.59 95.14,563.18 112.27,557.27 129.41,550.47 146.54,557.45 163.68,560.90 180.81,564.35 197.95,565.29 215.09,565.05 232.22,564.81 249.36,568.78 266.49,558.26 283.63,558.44 300.77,571.73 317.90,590.41 335.04,594.17 352.17,597.93 369.31,571.78 386.44,571.54 403.58,575.02 420.72,589.24 437.85,556.47 454.99,588.62 472.12,592.75 489.26,596.87 506.40,594.62 523.53,577.03 540.67,581.25 557.80,568.83 574.94,579.84 592.07,590.85 609.21,583.19 626.35,588.81 643.48,588.07 660.62,587.33 677.75,587.07 694.89,588.24 712.02,601.29 729.16,593.94 746.30,586.59 763.43,584.08 780.57,581.57 797.70,614.78 814.84,623.86 831.98,583.00 849.11,582.96 866.25,581.32 883.38,576.95 900.52,584.55 917.65,566.61 934.79,561.55 951.93,568.04 969.06,574.53 986.20,566.47 1003.33,561.63 1020.47,555.48 1037.60,555.81 1054.74,556.13 1071.88,552.85 1089.01,546.65 1106.15,564.03 1123.28,546.20 1140.42,549.00 1157.56,546.81 1174.69,556.32 1191.83,547.45 1208.96,555.30 1226.10,563.21 1243.23,557.44 1260.37,551.67 1277.51,526.60 1294.64,545.61 1311.78,522.14 1328.91,542.02 1346.05,542.99 1363.19,543.96 1380.32,548.28 1397.46,561.10 1414.59,563.54 1431.73,559.27 1448.86,574.03 1466.00,563.99" fill="none" stroke="#64748b" stroke-width="1.70" stroke-linejoin="round" stroke-linecap="round" />
<polyline points="78.00,568.59 95.14,563.18 112.27,557.27 129.41,550.47 146.54,557.45 163.68,560.90 180.81,564.35 197.95,565.29 215.09,565.05 232.22,564.81 249.36,568.78 266.49,558.26 283.63,558.44 300.77,571.73 317.90,590.41 335.04,594.17 352.17,597.93 369.31,571.78 386.44,571.54 403.58,575.02 420.72,589.24 437.85,556.47 454.99,588.62 472.12,592.75 489.26,596.87 506.40,594.62 523.53,596.87 540.67,594.62 557.80,577.03 574.94,581.25 592.07,568.83 609.21,579.84 626.35,590.85 643.48,583.19 660.62,588.81 677.75,588.07 694.89,587.33 712.02,587.07 729.16,588.24 746.30,601.29 763.43,593.94 780.57,586.59 797.70,584.08 814.84,581.57 831.98,614.78 849.11,623.86 866.25,583.00 883.38,582.96 900.52,581.32 917.65,576.95 934.79,584.55 951.93,566.61 969.06,561.55 986.20,568.04 1003.33,574.53 1020.47,566.47 1037.60,561.63 1054.74,555.48 1071.88,552.85 1089.01,546.65 1106.15,564.03 1123.28,546.20 1140.42,549.00 1157.56,546.81 1174.69,556.32 1191.83,547.45 1208.96,555.30 1226.10,563.21 1243.23,557.44 1260.37,551.67 1277.51,526.60 1294.64,545.61 1311.78,522.14 1328.91,542.02 1346.05,542.99 1363.19,543.96 1380.32,548.28 1397.46,561.10 1414.59,563.54 1431.73,559.27 1448.86,574.03 1466.00,563.99" fill="none" stroke="#0f766e" stroke-width="2.30" stroke-linejoin="round" stroke-linecap="round" />
<text x="78" y="504" font-size="13" font-family="Arial, sans-serif" fill="#111827">stage2_var8</text>
<rect x="489.26" y="664.00" width="531.21" height="118.00" fill="#cbd5e1" opacity="0.40" />
<rect x="523.53" y="664.00" width="531.21" height="118.00" fill="#0f766e" opacity="0.14" />
<line x1="523.53" y1="664.00" x2="523.53" y2="782.00" stroke="#0f766e" stroke-width="1.4" stroke-dasharray="5 4" />
<line x1="1054.74" y1="664.00" x2="1054.74" y2="782.00" stroke="#0f766e" stroke-width="1.4" stroke-dasharray="5 4" />
<line x1="78" y1="782.00" x2="1466" y2="782.00" stroke="#e2e8f0" stroke-width="1" />
<line x1="78" y1="723.00" x2="1466" y2="723.00" stroke="#e2e8f0" stroke-width="1" />
<line x1="78" y1="664.00" x2="1466" y2="664.00" stroke="#e2e8f0" stroke-width="1" />
<polyline points="78.00,773.86 95.14,773.86 112.27,773.86 129.41,773.86 146.54,773.86 163.68,773.86 180.81,773.86 197.95,773.86 215.09,773.86 232.22,773.86 249.36,773.86 266.49,773.86 283.63,773.86 300.77,773.86 317.90,773.86 335.04,773.86 352.17,773.86 369.31,773.86 386.44,672.14 403.58,672.14 420.72,672.14 437.85,672.14 454.99,672.14 472.12,672.14 489.26,672.14 506.40,672.14 523.53,672.14 540.67,672.14 557.80,672.14 574.94,672.14 592.07,672.14 609.21,672.14 626.35,672.14 643.48,672.14 660.62,672.14 677.75,672.14 694.89,672.14 712.02,672.14 729.16,672.14 746.30,672.14 763.43,672.14 780.57,672.14 797.70,672.14 814.84,672.14 831.98,672.14 849.11,672.14 866.25,672.14 883.38,672.14 900.52,672.14 917.65,672.14 934.79,672.14 951.93,672.14 969.06,672.14 986.20,672.14 1003.33,672.14 1020.47,672.14 1037.60,672.14 1054.74,672.14 1071.88,672.14 1089.01,672.14 1106.15,672.14 1123.28,672.14 1140.42,672.14 1157.56,672.14 1174.69,672.14 1191.83,672.14 1208.96,672.14 1226.10,672.14 1243.23,672.14 1260.37,672.14 1277.51,672.14 1294.64,672.14 1311.78,672.14 1328.91,672.14 1346.05,672.14 1363.19,672.14 1380.32,672.14 1397.46,672.14 1414.59,672.14 1431.73,672.14 1448.86,672.14 1466.00,672.14" fill="none" stroke="#64748b" stroke-width="1.70" stroke-linejoin="round" stroke-linecap="round" />
<polyline points="78.00,773.86 95.14,773.86 112.27,773.86 129.41,773.86 146.54,773.86 163.68,773.86 180.81,773.86 197.95,773.86 215.09,773.86 232.22,773.86 249.36,773.86 266.49,773.86 283.63,773.86 300.77,773.86 317.90,773.86 335.04,773.86 352.17,773.86 369.31,773.86 386.44,672.14 403.58,672.14 420.72,672.14 437.85,672.14 454.99,672.14 472.12,672.14 489.26,672.14 506.40,672.14 523.53,672.14 540.67,672.14 557.80,672.14 574.94,672.14 592.07,672.14 609.21,672.14 626.35,672.14 643.48,672.14 660.62,672.14 677.75,672.14 694.89,672.14 712.02,672.14 729.16,672.14 746.30,672.14 763.43,672.14 780.57,672.14 797.70,672.14 814.84,672.14 831.98,672.14 849.11,672.14 866.25,672.14 883.38,672.14 900.52,672.14 917.65,672.14 934.79,672.14 951.93,672.14 969.06,672.14 986.20,672.14 1003.33,672.14 1020.47,672.14 1037.60,672.14 1054.74,672.14 1071.88,672.14 1089.01,672.14 1106.15,672.14 1123.28,672.14 1140.42,672.14 1157.56,672.14 1174.69,672.14 1191.83,672.14 1208.96,672.14 1226.10,672.14 1243.23,672.14 1260.37,672.14 1277.51,672.14 1294.64,672.14 1311.78,672.14 1328.91,672.14 1346.05,672.14 1363.19,672.14 1380.32,672.14 1397.46,672.14 1414.59,672.14 1431.73,672.14 1448.86,672.14 1466.00,672.14" fill="none" stroke="#0f766e" stroke-width="2.30" stroke-linejoin="round" stroke-linecap="round" />
<text x="78" y="654" font-size="13" font-family="Arial, sans-serif" fill="#111827">stage2_var12</text>
<rect x="1140" y="20" width="14" height="10" fill="#cbd5e1" opacity="0.8" />
<text x="1160" y="29" font-size="11" font-family="Arial, sans-serif" fill="#334155">source slice</text>
<rect x="1250" y="20" width="14" height="10" fill="#0f766e" opacity="0.35" />
<text x="1270" y="29" font-size="11" font-family="Arial, sans-serif" fill="#334155">injected block</text>
<line x1="1390" y1="25" x2="1406" y2="25" stroke="#0f766e" stroke-width="2.3" />
<text x="1414" y="29" font-size="11" font-family="Arial, sans-serif" fill="#334155">lagged curve</text>
<text x="78" y="844" font-size="11" font-family="Arial, sans-serif" fill="#475569">2021-08-12 04:30</text>
<text x="1466" y="844" text-anchor="end" font-size="11" font-family="Arial, sans-serif" fill="#475569">2021-08-13 00:45</text>
<text x="489.26" y="112.00" font-size="10" font-family="Arial, sans-serif" fill="#334155">source</text>
<text x="523.53" y="126.00" font-size="10" font-family="Arial, sans-serif" fill="#0f766e">inject</text>
</svg>