<svg xmlns="http://www.w3.org/2000/svg" width="1500" height="858" viewBox="0 0 1500 858">
<rect width="100%" height="100%" fill="#ffffff" />
<text x="78" y="28" font-size="22" font-family="Arial, sans-serif" fill="#111827">Stage2 Lag Block Detail</text>
<text x="78" y="48" font-size="12" font-family="Arial, sans-serif" fill="#475569">train | segment 55 | lag=2 steps (30 min) | block=32 steps (8h 00m)</text>
<text x="78" y="66" font-size="12" font-family="Arial, sans-serif" fill="#475569">injected: 2021-11-17 02:15 -> 2021-11-17 10:00 | source: 2021-11-17 01:45 -> 2021-11-17 09:30</text>
<text x="78" y="84" font-size="11" font-family="Arial, sans-serif" fill="#64748b">gray shade = source slice, color shade = injected slice, gray line = original, color line = lagged</text>
<rect x="489.26" y="96.00" width="531.21" height="86.00" fill="#cbd5e1" opacity="0.40" />
<rect x="523.53" y="96.00" width="531.21" height="86.00" fill="#0f766e" opacity="0.14" />
<line x1="523.53" y1="96.00" x2="523.53" y2="182.00" stroke="#0f766e" stroke-width="1.4" stroke-dasharray="5 4" />
<line x1="1054.74" y1="96.00" x2="1054.74" y2="182.00" stroke="#0f766e" stroke-width="1.4" stroke-dasharray="5 4" />
<line x1="78" y1="182.00" x2="1466" y2="182.00" stroke="#e2e8f0" stroke-width="1" />
<text x="66" y="186.00" text-anchor="end" font-size="11" font-family="Arial, sans-serif" fill="#475569">0</text>
<line x1="78" y1="153.33" x2="1466" y2="153.33" stroke="#e2e8f0" stroke-width="1" />
<text x="66" y="157.33" text-anchor="end" font-size="11" font-family="Arial, sans-serif" fill="#475569">2</text>
<line x1="78" y1="124.67" x2="1466" y2="124.67" stroke="#e2e8f0" stroke-width="1" />
<text x="66" y="128.67" text-anchor="end" font-size="11" font-family="Arial, sans-serif" fill="#475569">4</text>
<line x1="78" y1="96.00" x2="1466" y2="96.00" stroke="#e2e8f0" stroke-width="1" />
<text x="66" y="100.00" text-anchor="end" font-size="11" font-family="Arial, sans-serif" fill="#475569">6</text>
<path d="M 78.00 182.00 L 95.14 182.00 L 95.14 182.00 L 112.27 182.00 L 112.27 182.00 L 129.41 182.00 L 129.41 182.00 L 146.54 182.00 L 146.54 182.00 L 163.68 182.00 L 163.68 182.00 L 180.81 182.00 L 180.81 182.00 L 197.95 182.00 L 197.95 182.00 L 215.09 182.00 L 215.09 182.00 L 232.22 182.00 L 232.22 182.00 L 249.36 182.00 L 249.36 182.00 L 266.49 182.00 L 266.49 182.00 L 283.63 182.00 L 283.63 182.00 L 300.77 182.00 L 300.77 182.00 L 317.90 182.00 L 317.90 182.00 L 335.04 182.00 L 335.04 182.00 L 352.17 182.00 L 352.17 182.00 L 369.31 182.00 L 369.31 182.00 L 386.44 182.00 L 386.44 182.00 L 403.58 182.00 L 403.58 182.00 L 420.72 182.00 L 420.72 182.00 L 437.85 182.00 L 437.85 182.00 L 454.99 182.00 L 454.99 182.00 L 472.12 182.00 L 472.12 182.00 L 489.26 182.00 L 489.26 182.00 L 506.40 182.00 L 506.40 182.00 L 523.53 182.00 L 523.53 153.33 L 540.67 153.33 L 540.67 153.33 L 557.80 153.33 L 557.80 153.33 L 574.94 153.33 L 574.94 153.33 L 592.07 153.33 L 592.07 153.33 L 609.21 153.33 L 609.21 153.33 L 626.35 153.33 L 626.35 153.33 L 643.48 153.33 L 643.48 153.33 L 660.62 153.33 L 660.62 153.33 L 677.75 153.33 L 677.75 153.33 L 694.89 153.33 L 694.89 153.33 L 712.02 153.33 L 712.02 153.33 L 729.16 153.33 L 729.16 153.33 L 746.30 153.33 L 746.30 153.33 L 763.43 153.33 L 763.43 153.33 L 780.57 153.33 L 780.57 153.33 L 797.70 153.33 L 797.70 153.33 L 814.84 153.33 L 814.84 153.33 L 831.98 153.33 L 831.98 153.33 L 849.11 153.33 L 849.11 153.33 L 866.25 153.33 L 866.25 153.33 L 883.38 153.33 L 883.38 153.33 L 900.52 153.33 L 900.52 153.33 L 917.65 153.33 L 917.65 153.33 L 934.79 153.33 L 934.79 153.33 L 951.93 153.33 L 951.93 153.33 L 969.06 153.33 L 969.06 153.33 L 986.20 153.33 L 986.20 153.33 L 1003.33 153.33 L 1003.33 153.33 L 1020.47 153.33 L 1020.47 153.33 L 1037.60 153.33 L 1037.60 153.33 L 1054.74 153.33 L 1054.74 153.33 L 1071.88 153.33 L 1071.88 182.00 L 1089.01 182.00 L 1089.01 182.00 L 1106.15 182.00 L 1106.15 182.00 L 1123.28 182.00 L 1123.28 182.00 L 1140.42 182.00 L 1140.42 182.00 L 1157.56 182.00 L 1157.56 182.00 L 1174.69 182.00 L 1174.69 182.00 L 1191.83 182.00 L 1191.83 182.00 L 1208.96 182.00 L 1208.96 182.00 L 1226.10 182.00 L 1226.10 182.00 L 1243.23 182.00 L 1243.23 182.00 L 1260.37 182.00 L 1260.37 182.00 L 1277.51 182.00 L 1277.51 182.00 L 1294.64 182.00 L 1294.64 182.00 L 1311.78 182.00 L 1311.78 182.00 L 1328.91 182.00 L 1328.91 182.00 L 1346.05 182.00 L 1346.05 182.00 L 1363.19 182.00 L 1363.19 182.00 L 1380.32 182.00 L 1380.32 182.00 L 1397.46 182.00 L 1397.46 182.00 L 1414.59 182.00 L 1414.59 182.00 L 1431.73 182.00 L 1431.73 182.00 L 1448.86 182.00 L 1448.86 182.00 L 1466.00 182.00 L 1466.00 182.00" fill="none" stroke="#0f766e" stroke-width="2.4" stroke-linejoin="round" stroke-linecap="round" />
<text x="78" y="86" font-size="13" font-family="Arial, sans-serif" fill="#111827">lag_gt around this block</text>
<rect x="489.26" y="214.00" width="531.21" height="118.00" fill="#cbd5e1" opacity="0.40" />
<rect x="523.53" y="214.00" width="531.21" height="118.00" fill="#0f766e" opacity="0.14" />
<line x1="523.53" y1="214.00" x2="523.53" y2="332.00" stroke="#0f766e" stroke-width="1.4" stroke-dasharray="5 4" />
<line x1="1054.74" y1="214.00" x2="1054.74" y2="332.00" stroke="#0f766e" stroke-width="1.4" stroke-dasharray="5 4" />
<line x1="78" y1="332.00" x2="1466" y2="332.00" stroke="#e2e8f0" stroke-width="1" />
<line x1="78" y1="273.00" x2="1466" y2="273.00" stroke="#e2e8f0" stroke-width="1" />
<line x1="78" y1="214.00" x2="1466" y2="214.00" stroke="#e2e8f0" stroke-width="1" />
<polyline points="78.00,230.62 95.14,242.43 112.27,235.19 129.41,241.58 146.54,229.81 163.68,237.32 180.81,239.58 197.95,241.85 215.09,242.37 232.22,242.53 249.36,242.69 266.49,244.08 283.63,244.24 300.77,244.40 317.90,248.98 335.04,237.31 352.17,235.57 369.31,222.14 386.44,240.10 403.58,235.40 420.72,241.26 437.85,252.60 454.99,242.18 472.12,245.41 489.26,245.04 506.40,244.68 523.53,246.69 540.67,234.26 557.80,237.33 574.94,238.38 592.07,235.15 609.21,246.57 626.35,240.36 643.48,235.82 660.62,247.06 677.75,247.27 694.89,234.45 712.02,238.78 729.16,240.91 746.30,248.98 763.43,234.73 780.57,242.42 797.70,249.26 814.84,235.11 831.98,240.64 849.11,240.94 866.25,241.25 883.38,234.93 900.52,259.49 917.65,260.31 934.79,261.47 951.93,261.09 969.06,249.02 986.20,251.91 1003.33,307.07 1020.47,286.70 1037.60,311.46 1054.74,289.11 1071.88,284.47 1089.01,266.50 1106.15,229.81 1123.28,236.29 1140.42,232.24 1157.56,232.20 1174.69,234.89 1191.83,237.58 1208.96,228.29 1226.10,238.42 1243.23,241.83 1260.37,233.61 1277.51,230.73 1294.64,224.68 1311.78,235.28 1328.91,244.45 1346.05,231.59 1363.19,246.23 1380.32,240.51 1397.46,237.70 1414.59,303.27 1431.73,318.39 1448.86,313.40 1466.00,323.86" fill="none" stroke="#64748b" stroke-width="1.70" stroke-linejoin="round" stroke-linecap="round" />
<polyline points="78.00,230.62 95.14,242.43 112.27,235.19 129.41,241.58 146.54,229.81 163.68,237.32 180.81,239.58 197.95,241.85 215.09,242.37 232.22,242.53 249.36,242.69 266.49,244.08 283.63,244.24 300.77,244.40 317.90,248.98 335.04,237.31 352.17,235.57 369.31,222.14 386.44,240.10 403.58,235.40 420.72,241.26 437.85,252.60 454.99,242.18 472.12,245.41 489.26,245.04 506.40,244.68 523.53,245.04 540.67,244.68 557.80,246.69 574.94,234.26 592.07,237.33 609.21,238.38 626.35,235.15 643.48,246.57 660.62,240.36 677.75,235.82 694.89,247.06 712.02,247.27 729.16,234.45 746.30,238.78 763.43,240.91 780.57,248.98 797.70,234.73 814.84,242.42 831.98,249.26 849.11,235.11 866.25,240.64 883.38,240.94 900.52,241.25 917.65,234.93 934.79,259.49 951.93,260.31 969.06,261.47 986.20,261.09 1003.33,249.02 1020.47,251.91 1037.60,307.07 1054.74,286.70 1071.88,284.47 1089.01,266.50 1106.15,229.81 1123.28,236.29 1140.42,232.24 1157.56,232.20 1174.69,234.89 1191.83,237.58 1208.96,228.29 1226.10,238.42 1243.23,241.83 1260.37,233.61 1277.51,230.73 1294.64,224.68 1311.78,235.28 1328.91,244.45 1346.05,231.59 1363.19,246.23 1380.32,240.51 1397.46,237.70 1414.59,303.27 1431.73,318.39 1448.86,313.40 1466.00,323.86" fill="none" stroke="#0f766e" stroke-width="2.30" stroke-linejoin="round" stroke-linecap="round" />
<text x="78" y="204" font-size="13" font-family="Arial, sans-serif" fill="#111827">stage2_var1</text>
<rect x="489.26" y="364.00" width="531.21" height="118.00" fill="#cbd5e1" opacity="0.40" />
<rect x="523.53" y="364.00" width="531.21" height="118.00" fill="#0f766e" opacity="0.14" />
<line x1="523.53" y1="364.00" x2="523.53" y2="482.00" stroke="#0f766e" stroke-width="1.4" stroke-dasharray="5 4" />
<line x1="1054.74" y1="364.00" x2="1054.74" y2="482.00" stroke="#0f766e" stroke-width="1.4" stroke-dasharray="5 4" />
<line x1="78" y1="482.00" x2="1466" y2="482.00" stroke="#e2e8f0" stroke-width="1" />
<line x1="78" y1="423.00" x2="1466" y2="423.00" stroke="#e2e8f0" stroke-width="1" />
<line x1="78" y1="364.00" x2="1466" y2="364.00" stroke="#e2e8f0" stroke-width="1" />
<polyline points="78.00,392.96 95.14,380.54 112.27,378.32 129.41,372.14 146.54,377.54 163.68,381.91 180.81,386.92 197.95,391.93 215.09,397.57 232.22,396.27 249.36,394.96 266.49,392.80 283.63,392.24 300.77,391.68 317.90,389.46 335.04,400.87 352.17,397.88 369.31,395.42 386.44,405.02 403.58,394.67 420.72,400.21 437.85,396.73 454.99,411.44 472.12,400.18 489.26,395.10 506.40,390.03 523.53,389.63 540.67,383.81 557.80,394.46 574.94,403.31 592.07,407.24 609.21,395.49 626.35,396.70 643.48,394.78 660.62,386.45 677.75,388.47 694.89,398.79 712.02,396.42 729.16,396.04 746.30,383.50 763.43,393.01 780.57,387.45 797.70,388.26 814.84,381.62 831.98,379.43 849.11,378.10 866.25,376.77 883.38,375.52 900.52,394.33 917.65,396.07 934.79,399.24 951.93,400.39 969.06,392.77 986.20,393.12 1003.33,420.16 1020.47,452.01 1037.60,453.81 1054.74,473.86 1071.88,466.72 1089.01,457.80 1106.15,409.95 1123.28,403.57 1140.42,400.89 1157.56,405.58 1174.69,405.59 1191.83,405.59 1208.96,416.00 1226.10,409.02 1243.23,405.23 1260.37,399.45 1277.51,389.81 1294.64,389.61 1311.78,394.71 1328.91,402.66 1346.05,401.20 1363.19,392.44 1380.32,396.69 1397.46,406.03 1414.59,412.14 1431.73,389.13 1448.86,386.87 1466.00,387.44" fill="none" stroke="#64748b" stroke-width="1.70" stroke-linejoin="round" stroke-linecap="round" />
<polyline points="78.00,392.96 95.14,380.54 112.27,378.32 129.41,372.14 146.54,377.54 163.68,381.91 180.81,386.92 197.95,391.93 215.09,397.57 232.22,396.27 249.36,394.96 266.49,392.80 283.63,392.24 300.77,391.68 317.90,389.46 335.04,400.87 352.17,397.88 369.31,395.42 386.44,405.02 403.58,394.67 420.72,400.21 437.85,396.73 454.99,411.44 472.12,400.18 489.26,395.10 506.40,390.03 523.53,395.10 540.67,390.03 557.80,389.63 574.94,383.81 592.07,394.46 609.21,403.31 626.35,407.24 643.48,395.49 660.62,396.70 677.75,394.78 694.89,386.45 712.02,388.47 729.16,398.79 746.30,396.42 763.43,396.04 780.57,383.50 797.70,393.01 814.84,387.45 831.98,388.26 849.11,381.62 866.25,379.43 883.38,378.10 900.52,376.77 917.65,375.52 934.79,394.33 951.93,396.07 969.06,399.24 986.20,400.39 1003.33,392.77 1020.47,393.12 1037.60,420.16 1054.74,452.01 1071.88,466.72 1089.01,457.80 1106.15,409.95 1123.28,403.57 1140.42,400.89 1157.56,405.58 1174.69,405.59 1191.83,405.59 1208.96,416.00 1226.10,409.02 1243.23,405.23 1260.37,399.45 1277.51,389.81 1294.64,389.61 1311.78,394.71 1328.91,402.66 1346.05,401.20 1363.19,392.44 1380.32,396.69 1397.46,406.03 1414.59,412.14 1431.73,389.13 1448.86,386.87 1466.00,387.44" fill="none" stroke="#0f766e" stroke-width="2.30" stroke-linejoin="round" stroke-linecap="round" />
<text x="78" y="354" font-size="13" font-family="Arial, sans-serif" fill="#111827">stage2_var5</text>
<rect x="489.26" y="514.00" width="531.21" height="118.00" fill="#cbd5e1" opacity="0.40" />
<rect x="523.53" y="514.00" width="531.21" height="118.00" fill="#0f766e" opacity="0.14" />
<line x1="523.53" y1="514.00" x2="523.53" y2="632.00" stroke="#0f766e" stroke-width="1.4" stroke-dasharray="5 4" />
<line x1="1054.74" y1="514.00" x2="1054.74" y2="632.00" stroke="#0f766e" stroke-width="1.4" stroke-dasharray="5 4" />
<line x1="78" y1="632.00" x2="1466" y2="632.00" stroke="#e2e8f0" stroke-width="1" />
<line x1="78" y1="573.00" x2="1466" y2="573.00" stroke="#e2e8f0" stroke-width="1" />
<line x1="78" y1="514.00" x2="1466" y2="514.00" stroke="#e2e8f0" stroke-width="1" />
<polyline points="78.00,607.54 95.14,601.34 112.27,600.64 129.41,600.66 146.54,607.31 163.68,609.50 180.81,608.03 197.95,606.57 215.09,602.43 232.22,602.43 249.36,602.43 266.49,595.45 283.63,593.41 300.77,591.37 317.90,586.78 335.04,594.81 352.17,595.70 369.31,599.96 386.44,619.65 403.58,617.19 420.72,606.17 437.85,600.98 454.99,590.45 472.12,588.80 489.26,593.74 506.40,598.67 523.53,600.64 540.67,612.50 557.80,607.01 574.94,604.39 592.07,605.22 609.21,595.81 626.35,600.82 643.48,602.32 660.62,588.09 677.75,596.95 694.89,589.67 712.02,594.19 729.16,599.50 746.30,605.86 763.43,595.21 780.57,602.36 797.70,602.60 814.84,615.77 831.98,615.16 849.11,615.08 866.25,615.00 883.38,623.86 900.52,604.98 917.65,598.97 934.79,587.36 951.93,582.69 969.06,599.51 986.20,602.72 1003.33,565.77 1020.47,546.50 1037.60,547.90 1054.74,530.23 1071.88,522.14 1089.01,523.79 1106.15,566.79 1123.28,578.32 1140.42,587.73 1157.56,588.51 1174.69,593.14 1191.83,597.76 1208.96,588.62 1226.10,590.66 1243.23,590.05 1260.37,597.88 1277.51,603.30 1294.64,600.38 1311.78,606.58 1328.91,611.12 1346.05,610.55 1363.19,605.15 1380.32,608.19 1397.46,611.42 1414.59,600.12 1431.73,597.83 1448.86,597.91 1466.00,593.39" fill="none" stroke="#64748b" stroke-width="1.70" stroke-linejoin="round" stroke-linecap="round" />
<polyline points="78.00,607.54 95.14,601.34 112.27,600.64 129.41,600.66 146.54,607.31 163.68,609.50 180.81,608.03 197.95,606.57 215.09,602.43 232.22,602.43 249.36,602.43 266.49,595.45 283.63,593.41 300.77,591.37 317.90,586.78 335.04,594.81 352.17,595.70 369.31,599.96 386.44,619.65 403.58,617.19 420.72,606.17 437.85,600.98 454.99,590.45 472.12,588.80 489.26,593.74 506.40,598.67 523.53,593.74 540.67,598.67 557.80,600.64 574.94,612.50 592.07,607.01 609.21,604.39 626.35,605.22 643.48,595.81 660.62,600.82 677.75,602.32 694.89,588.09 712.02,596.95 729.16,589.67 746.30,594.19 763.43,599.50 780.57,605.86 797.70,595.21 814.84,602.36 831.98,602.60 849.11,615.77 866.25,615.16 883.38,615.08 900.52,615.00 917.65,623.86 934.79,604.98 951.93,598.97 969.06,587.36 986.20,582.69 1003.33,599.51 1020.47,602.72 1037.60,565.77 1054.74,546.50 1071.88,522.14 1089.01,523.79 1106.15,566.79 1123.28,578.32 1140.42,587.73 1157.56,588.51 1174.69,593.14 1191.83,597.76 1208.96,588.62 1226.10,590.66 1243.23,590.05 1260.37,597.88 1277.51,603.30 1294.64,600.38 1311.78,606.58 1328.91,611.12 1346.05,610.55 1363.19,605.15 1380.32,608.19 1397.46,611.42 1414.59,600.12 1431.73,597.83 1448.86,597.91 1466.00,593.39" fill="none" stroke="#0f766e" stroke-width="2.30" stroke-linejoin="round" stroke-linecap="round" />
<text x="78" y="504" font-size="13" font-family="Arial, sans-serif" fill="#111827">stage2_var8</text>
<rect x="489.26" y="664.00" width="531.21" height="118.00" fill="#cbd5e1" opacity="0.40" />
<rect x="523.53" y="664.00" width="531.21" height="118.00" fill="#0f766e" opacity="0.14" />
<line x1="523.53" y1="664.00" x2="523.53" y2="782.00" stroke="#0f766e" stroke-width="1.4" stroke-dasharray="5 4" />
<line x1="1054.74" y1="664.00" x2="1054.74" y2="782.00" stroke="#0f766e" stroke-width="1.4" stroke-dasharray="5 4" />
<line x1="78" y1="782.00" x2="1466" y2="782.00" stroke="#e2e8f0" stroke-width="1" />
<line x1="78" y1="723.00" x2="1466" y2="723.00" stroke="#e2e8f0" stroke-width="1" />
<line x1="78" y1="664.00" x2="1466" y2="664.00" stroke="#e2e8f0" stroke-width="1" />
<polyline points="78.00,773.86 95.14,773.86 112.27,773.86 129.41,773.86 146.54,773.86 163.68,773.86 180.81,773.86 197.95,773.86 215.09,773.86 232.22,773.86 249.36,773.86 266.49,773.86 283.63,773.86 300.77,773.86 317.90,773.86 335.04,773.86 352.17,773.86 369.31,773.86 386.44,773.86 403.58,773.86 420.72,773.86 437.85,773.86 454.99,773.86 472.12,773.86 489.26,773.86 506.40,773.86 523.53,773.86 540.67,773.86 557.80,773.86 574.94,773.86 592.07,773.86 609.21,773.86 626.35,773.86 643.48,773.86 660.62,773.86 677.75,773.86 694.89,773.86 712.02,773.86 729.16,773.86 746.30,773.86 763.43,773.86 780.57,773.86 797.70,773.86 814.84,773.86 831.98,773.86 849.11,773.86 866.25,773.86 883.38,773.86 900.52,773.86 917.65,773.86 934.79,773.86 951.93,773.86 969.06,773.86 986.20,672.14 1003.33,672.14 1020.47,672.14 1037.60,672.14 1054.74,672.14 1071.88,672.14 1089.01,672.14 1106.15,672.14 1123.28,672.14 1140.42,672.14 1157.56,672.14 1174.69,672.14 1191.83,672.14 1208.96,672.14 1226.10,672.14 1243.23,672.14 1260.37,672.14 1277.51,672.14 1294.64,672.14 1311.78,672.14 1328.91,672.14 1346.05,672.14 1363.19,672.14 1380.32,672.14 1397.46,672.14 1414.59,672.14 1431.73,672.14 1448.86,672.14 1466.00,672.14" fill="none" stroke="#64748b" stroke-width="1.70" stroke-linejoin="round" stroke-linecap="round" />
<polyline points="78.00,773.86 95.14,773.86 112.27,773.86 129.41,773.86 146.54,773.86 163.68,773.86 180.81,773.86 197.95,773.86 215.09,773.86 232.22,773.86 249.36,773.86 266.49,773.86 283.63,773.86 300.77,773.86 317.90,773.86 335.04,773.86 352.17,773.86 369.31,773.86 386.44,773.86 403.58,773.86 420.72,773.86 437.85,773.86 454.99,773.86 472.12,773.86 489.26,773.86 506.40,773.86 523.53,773.86 540.67,773.86 557.80,773.86 574.94,773.86 592.07,773.86 609.21,773.86 626.35,773.86 643.48,773.86 660.62,773.86 677.75,773.86 694.89,773.86 712.02,773.86 729.16,773.86 746.30,773.86 763.43,773.86 780.57,773.86 797.70,773.86 814.84,773.86 831.98,773.86 849.11,773.86 866.25,773.86 883.38,773.86 900.52,773.86 917.65,773.86 934.79,773.86 951.93,773.86 969.06,773.86 986.20,773.86 1003.33,773.86 1020.47,672.14 1037.60,672.14 1054.74,672.14 1071.88,672.14 1089.01,672.14 1106.15,672.14 1123.28,672.14 1140.42,672.14 1157.56,672.14 1174.69,672.14 1191.83,672.14 1208.96,672.14 1226.10,672.14 1243.23,672.14 1260.37,672.14 1277.51,672.14 1294.64,672.14 1311.78,672.14 1328.91,672.14 1346.05,672.14 1363.19,672.14 1380.32,672.14 1397.46,672.14 1414.59,672.14 1431.73,672.14 1448.86,672.14 1466.00,672.14" fill="none" stroke="#0f766e" stroke-width="2.30" stroke-linejoin="round" stroke-linecap="round" />
<text x="78" y="654" font-size="13" font-family="Arial, sans-serif" fill="#111827">stage2_var12</text>
<rect x="1140" y="20" width="14" height="10" fill="#cbd5e1" opacity="0.8" />
<text x="1160" y="29" font-size="11" font-family="Arial, sans-serif" fill="#334155">source slice</text>
<rect x="1250" y="20" width="14" height="10" fill="#0f766e" opacity="0.35" />
<text x="1270" y="29" font-size="11" font-family="Arial, sans-serif" fill="#334155">injected block</text>
<line x1="1390" y1="25" x2="1406" y2="25" stroke="#0f766e" stroke-width="2.3" />
<text x="1414" y="29" font-size="11" font-family="Arial, sans-serif" fill="#334155">lagged curve</text>
<text x="78" y="844" font-size="11" font-family="Arial, sans-serif" fill="#475569">2021-11-16 19:45</text>
<text x="1466" y="844" text-anchor="end" font-size="11" font-family="Arial, sans-serif" fill="#475569">2021-11-17 16:00</text>
<text x="489.26" y="112.00" font-size="10" font-family="Arial, sans-serif" fill="#334155">source</text>
<text x="523.53" y="126.00" font-size="10" font-family="Arial, sans-serif" fill="#0f766e">inject</text>
</svg>