<svg xmlns="http://www.w3.org/2000/svg" width="1500" height="858" viewBox="0 0 1500 858">
<rect width="100%" height="100%" fill="#ffffff" />
<text x="78" y="28" font-size="22" font-family="Arial, sans-serif" fill="#111827">Stage2 Lag Block Detail</text>
<text x="78" y="48" font-size="12" font-family="Arial, sans-serif" fill="#475569">train | segment 11 | lag=6 steps (90 min) | block=32 steps (8h 00m)</text>
<text x="78" y="66" font-size="12" font-family="Arial, sans-serif" fill="#475569">injected: 2021-05-27 15:30 -> 2021-05-27 23:15 | source: 2021-05-27 14:00 -> 2021-05-27 21:45</text>
<text x="78" y="84" font-size="11" font-family="Arial, sans-serif" fill="#64748b">gray shade = source slice, color shade = injected slice, gray line = original, color line = lagged</text>
<rect x="469.91" y="96.00" width="506.21" height="86.00" fill="#cbd5e1" opacity="0.40" />
<rect x="567.88" y="96.00" width="506.21" height="86.00" fill="#b91c1c" opacity="0.14" />
<line x1="567.88" y1="96.00" x2="567.88" y2="182.00" stroke="#b91c1c" stroke-width="1.4" stroke-dasharray="5 4" />
<line x1="1074.09" y1="96.00" x2="1074.09" y2="182.00" stroke="#b91c1c" stroke-width="1.4" stroke-dasharray="5 4" />
<line x1="78" y1="182.00" x2="1466" y2="182.00" stroke="#e2e8f0" stroke-width="1" />
<text x="66" y="186.00" text-anchor="end" font-size="11" font-family="Arial, sans-serif" fill="#475569">0</text>
<line x1="78" y1="153.33" x2="1466" y2="153.33" stroke="#e2e8f0" stroke-width="1" />
<text x="66" y="157.33" text-anchor="end" font-size="11" font-family="Arial, sans-serif" fill="#475569">2</text>
<line x1="78" y1="124.67" x2="1466" y2="124.67" stroke="#e2e8f0" stroke-width="1" />
<text x="66" y="128.67" text-anchor="end" font-size="11" font-family="Arial, sans-serif" fill="#475569">4</text>
<line x1="78" y1="96.00" x2="1466" y2="96.00" stroke="#e2e8f0" stroke-width="1" />
<text x="66" y="100.00" text-anchor="end" font-size="11" font-family="Arial, sans-serif" fill="#475569">6</text>
<path d="M 78.00 182.00 L 94.33 182.00 L 94.33 182.00 L 110.66 182.00 L 110.66 182.00 L 126.99 182.00 L 126.99 182.00 L 143.32 182.00 L 143.32 182.00 L 159.65 182.00 L 159.65 182.00 L 175.98 182.00 L 175.98 182.00 L 192.31 182.00 L 192.31 182.00 L 208.64 182.00 L 208.64 182.00 L 224.96 182.00 L 224.96 182.00 L 241.29 182.00 L 241.29 182.00 L 257.62 182.00 L 257.62 182.00 L 273.95 182.00 L 273.95 182.00 L 290.28 182.00 L 290.28 182.00 L 306.61 182.00 L 306.61 182.00 L 322.94 182.00 L 322.94 182.00 L 339.27 182.00 L 339.27 182.00 L 355.60 182.00 L 355.60 182.00 L 371.93 182.00 L 371.93 182.00 L 388.26 182.00 L 388.26 182.00 L 404.59 182.00 L 404.59 182.00 L 420.92 182.00 L 420.92 182.00 L 437.25 182.00 L 437.25 182.00 L 453.58 182.00 L 453.58 182.00 L 469.91 182.00 L 469.91 182.00 L 486.24 182.00 L 486.24 182.00 L 502.56 182.00 L 502.56 182.00 L 518.89 182.00 L 518.89 182.00 L 535.22 182.00 L 535.22 182.00 L 551.55 182.00 L 551.55 182.00 L 567.88 182.00 L 567.88 96.00 L 584.21 96.00 L 584.21 96.00 L 600.54 96.00 L 600.54 96.00 L 616.87 96.00 L 616.87 96.00 L 633.20 96.00 L 633.20 96.00 L 649.53 96.00 L 649.53 96.00 L 665.86 96.00 L 665.86 96.00 L 682.19 96.00 L 682.19 96.00 L 698.52 96.00 L 698.52 96.00 L 714.85 96.00 L 714.85 96.00 L 731.18 96.00 L 731.18 96.00 L 747.51 96.00 L 747.51 96.00 L 763.84 96.00 L 763.84 96.00 L 780.16 96.00 L 780.16 96.00 L 796.49 96.00 L 796.49 96.00 L 812.82 96.00 L 812.82 96.00 L 829.15 96.00 L 829.15 96.00 L 845.48 96.00 L 845.48 96.00 L 861.81 96.00 L 861.81 96.00 L 878.14 96.00 L 878.14 96.00 L 894.47 96.00 L 894.47 96.00 L 910.80 96.00 L 910.80 96.00 L 927.13 96.00 L 927.13 96.00 L 943.46 96.00 L 943.46 96.00 L 959.79 96.00 L 959.79 96.00 L 976.12 96.00 L 976.12 96.00 L 992.45 96.00 L 992.45 96.00 L 1008.78 96.00 L 1008.78 96.00 L 1025.11 96.00 L 1025.11 96.00 L 1041.44 96.00 L 1041.44 96.00 L 1057.76 96.00 L 1057.76 96.00 L 1074.09 96.00 L 1074.09 96.00 L 1090.42 96.00 L 1090.42 182.00 L 1106.75 182.00 L 1106.75 182.00 L 1123.08 182.00 L 1123.08 182.00 L 1139.41 182.00 L 1139.41 182.00 L 1155.74 182.00 L 1155.74 182.00 L 1172.07 182.00 L 1172.07 182.00 L 1188.40 182.00 L 1188.40 182.00 L 1204.73 182.00 L 1204.73 182.00 L 1221.06 182.00 L 1221.06 182.00 L 1237.39 182.00 L 1237.39 182.00 L 1253.72 182.00 L 1253.72 182.00 L 1270.05 182.00 L 1270.05 182.00 L 1286.38 182.00 L 1286.38 182.00 L 1302.71 182.00 L 1302.71 182.00 L 1319.04 182.00 L 1319.04 182.00 L 1335.36 182.00 L 1335.36 182.00 L 1351.69 182.00 L 1351.69 182.00 L 1368.02 182.00 L 1368.02 182.00 L 1384.35 182.00 L 1384.35 182.00 L 1400.68 182.00 L 1400.68 182.00 L 1417.01 182.00 L 1417.01 182.00 L 1433.34 182.00 L 1433.34 182.00 L 1449.67 182.00 L 1449.67 182.00 L 1466.00 182.00 L 1466.00 182.00" fill="none" stroke="#b91c1c" stroke-width="2.4" stroke-linejoin="round" stroke-linecap="round" />
<text x="78" y="86" font-size="13" font-family="Arial, sans-serif" fill="#111827">lag_gt around this block</text>
<rect x="469.91" y="214.00" width="506.21" height="118.00" fill="#cbd5e1" opacity="0.40" />
<rect x="567.88" y="214.00" width="506.21" height="118.00" fill="#b91c1c" opacity="0.14" />
<line x1="567.88" y1="214.00" x2="567.88" y2="332.00" stroke="#b91c1c" stroke-width="1.4" stroke-dasharray="5 4" />
<line x1="1074.09" y1="214.00" x2="1074.09" y2="332.00" stroke="#b91c1c" stroke-width="1.4" stroke-dasharray="5 4" />
<line x1="78" y1="332.00" x2="1466" y2="332.00" stroke="#e2e8f0" stroke-width="1" />
<line x1="78" y1="273.00" x2="1466" y2="273.00" stroke="#e2e8f0" stroke-width="1" />
<line x1="78" y1="214.00" x2="1466" y2="214.00" stroke="#e2e8f0" stroke-width="1" />
<polyline points="78.00,294.31 94.33,304.69 110.66,313.81 126.99,286.90 143.32,310.83 159.65,299.70 175.98,312.61 192.31,281.80 208.64,285.65 224.96,317.33 241.29,305.59 257.62,293.86 273.95,322.15 290.28,323.86 306.61,306.69 322.94,306.07 339.27,289.81 355.60,314.90 371.93,291.00 388.26,305.23 404.59,318.02 420.92,271.50 437.25,262.94 453.58,259.75 469.91,256.56 486.24,283.87 502.56,253.40 518.89,289.79 535.22,272.58 551.55,260.34 567.88,261.17 584.21,261.99 600.54,232.28 616.87,268.78 633.20,257.40 649.53,275.08 665.86,230.36 682.19,253.82 698.52,233.90 714.85,222.14 731.18,240.41 747.51,245.76 763.84,251.11 780.16,258.36 796.49,265.60 812.82,242.05 829.15,252.52 845.48,263.00 861.81,236.97 878.14,269.78 894.47,243.88 910.80,259.30 927.13,273.75 943.46,258.42 959.79,237.18 976.12,254.33 992.45,256.38 1008.78,258.43 1025.11,272.08 1041.44,238.92 1057.76,257.70 1074.09,259.38 1090.42,261.06 1106.75,255.28 1123.08,241.65 1139.41,271.03 1155.74,244.64 1172.07,271.07 1188.40,243.99 1204.73,243.69 1221.06,278.56 1237.39,281.31 1253.72,307.24 1270.05,276.97 1286.38,263.09 1302.71,249.21 1319.04,236.20 1335.36,243.79 1351.69,227.38 1368.02,265.91 1384.35,258.64 1400.68,269.46 1417.01,271.50 1433.34,273.54 1449.67,260.22 1466.00,291.69" fill="none" stroke="#64748b" stroke-width="1.70" stroke-linejoin="round" stroke-linecap="round" />
<polyline points="78.00,294.31 94.33,304.69 110.66,313.81 126.99,286.90 143.32,310.83 159.65,299.70 175.98,312.61 192.31,281.80 208.64,285.65 224.96,317.33 241.29,305.59 257.62,293.86 273.95,322.15 290.28,323.86 306.61,306.69 322.94,306.07 339.27,289.81 355.60,314.90 371.93,291.00 388.26,305.23 404.59,318.02 420.92,271.50 437.25,262.94 453.58,259.75 469.91,256.56 486.24,283.87 502.56,253.40 518.89,289.79 535.22,272.58 551.55,260.34 567.88,256.56 584.21,283.87 600.54,253.40 616.87,289.79 633.20,272.58 649.53,260.34 665.86,261.17 682.19,261.99 698.52,232.28 714.85,268.78 731.18,257.40 747.51,275.08 763.84,230.36 780.16,253.82 796.49,233.90 812.82,222.14 829.15,240.41 845.48,245.76 861.81,251.11 878.14,258.36 894.47,265.60 910.80,242.05 927.13,252.52 943.46,263.00 959.79,236.97 976.12,269.78 992.45,243.88 1008.78,259.30 1025.11,273.75 1041.44,258.42 1057.76,237.18 1074.09,254.33 1090.42,261.06 1106.75,255.28 1123.08,241.65 1139.41,271.03 1155.74,244.64 1172.07,271.07 1188.40,243.99 1204.73,243.69 1221.06,278.56 1237.39,281.31 1253.72,307.24 1270.05,276.97 1286.38,263.09 1302.71,249.21 1319.04,236.20 1335.36,243.79 1351.69,227.38 1368.02,265.91 1384.35,258.64 1400.68,269.46 1417.01,271.50 1433.34,273.54 1449.67,260.22 1466.00,291.69" fill="none" stroke="#b91c1c" stroke-width="2.30" stroke-linejoin="round" stroke-linecap="round" />
<text x="78" y="204" font-size="13" font-family="Arial, sans-serif" fill="#111827">stage2_var1</text>
<rect x="469.91" y="364.00" width="506.21" height="118.00" fill="#cbd5e1" opacity="0.40" />
<rect x="567.88" y="364.00" width="506.21" height="118.00" fill="#b91c1c" opacity="0.14" />
<line x1="567.88" y1="364.00" x2="567.88" y2="482.00" stroke="#b91c1c" stroke-width="1.4" stroke-dasharray="5 4" />
<line x1="1074.09" y1="364.00" x2="1074.09" y2="482.00" stroke="#b91c1c" stroke-width="1.4" stroke-dasharray="5 4" />
<line x1="78" y1="482.00" x2="1466" y2="482.00" stroke="#e2e8f0" stroke-width="1" />
<line x1="78" y1="423.00" x2="1466" y2="423.00" stroke="#e2e8f0" stroke-width="1" />
<line x1="78" y1="364.00" x2="1466" y2="364.00" stroke="#e2e8f0" stroke-width="1" />
<polyline points="78.00,414.86 94.33,419.02 110.66,421.06 126.99,418.51 143.32,422.60 159.65,433.99 175.98,420.83 192.31,473.86 208.64,419.02 224.96,439.65 241.29,445.39 257.62,451.13 273.95,417.81 290.28,415.68 306.61,424.93 322.94,421.03 339.27,415.94 355.60,419.28 371.93,407.63 388.26,408.13 404.59,417.62 420.92,395.23 437.25,406.73 453.58,407.53 469.91,408.33 486.24,394.86 502.56,424.59 518.89,400.69 535.22,411.41 551.55,409.33 567.88,416.07 584.21,422.81 600.54,392.20 616.87,422.92 633.20,405.13 649.53,421.18 665.86,386.27 682.19,386.56 698.52,424.54 714.85,385.74 731.18,403.20 747.51,403.75 763.84,404.30 780.16,406.74 796.49,409.19 812.82,381.86 829.15,394.38 845.48,406.90 861.81,377.78 878.14,376.89 894.47,421.18 910.80,397.96 927.13,419.48 943.46,397.91 959.79,377.68 976.12,398.43 992.45,397.86 1008.78,397.29 1025.11,422.53 1041.44,372.14 1057.76,399.13 1074.09,398.77 1090.42,398.40 1106.75,397.26 1123.08,377.33 1139.41,422.96 1155.74,423.38 1172.07,400.85 1188.40,380.51 1204.73,426.66 1221.06,384.37 1237.39,404.10 1253.72,425.25 1270.05,382.88 1286.38,403.87 1302.71,424.86 1319.04,379.02 1335.36,402.36 1351.69,426.99 1368.02,387.57 1384.35,405.87 1400.68,407.03 1417.01,405.39 1433.34,403.76 1449.67,425.31 1466.00,381.31" fill="none" stroke="#64748b" stroke-width="1.70" stroke-linejoin="round" stroke-linecap="round" />
<polyline points="78.00,414.86 94.33,419.02 110.66,421.06 126.99,418.51 143.32,422.60 159.65,433.99 175.98,420.83 192.31,473.86 208.64,419.02 224.96,439.65 241.29,445.39 257.62,451.13 273.95,417.81 290.28,415.68 306.61,424.93 322.94,421.03 339.27,415.94 355.60,419.28 371.93,407.63 388.26,408.13 404.59,417.62 420.92,395.23 437.25,406.73 453.58,407.53 469.91,408.33 486.24,394.86 502.56,424.59 518.89,400.69 535.22,411.41 551.55,409.33 567.88,408.33 584.21,394.86 600.54,424.59 616.87,400.69 633.20,411.41 649.53,409.33 665.86,416.07 682.19,422.81 698.52,392.20 714.85,422.92 731.18,405.13 747.51,421.18 763.84,386.27 780.16,386.56 796.49,424.54 812.82,385.74 829.15,403.20 845.48,403.75 861.81,404.30 878.14,406.74 894.47,409.19 910.80,381.86 927.13,394.38 943.46,406.90 959.79,377.78 976.12,376.89 992.45,421.18 1008.78,397.96 1025.11,419.48 1041.44,397.91 1057.76,377.68 1074.09,398.43 1090.42,398.40 1106.75,397.26 1123.08,377.33 1139.41,422.96 1155.74,423.38 1172.07,400.85 1188.40,380.51 1204.73,426.66 1221.06,384.37 1237.39,404.10 1253.72,425.25 1270.05,382.88 1286.38,403.87 1302.71,424.86 1319.04,379.02 1335.36,402.36 1351.69,426.99 1368.02,387.57 1384.35,405.87 1400.68,407.03 1417.01,405.39 1433.34,403.76 1449.67,425.31 1466.00,381.31" fill="none" stroke="#b91c1c" stroke-width="2.30" stroke-linejoin="round" stroke-linecap="round" />
<text x="78" y="354" font-size="13" font-family="Arial, sans-serif" fill="#111827">stage2_var5</text>
<rect x="469.91" y="514.00" width="506.21" height="118.00" fill="#cbd5e1" opacity="0.40" />
<rect x="567.88" y="514.00" width="506.21" height="118.00" fill="#b91c1c" opacity="0.14" />
<line x1="567.88" y1="514.00" x2="567.88" y2="632.00" stroke="#b91c1c" stroke-width="1.4" stroke-dasharray="5 4" />
<line x1="1074.09" y1="514.00" x2="1074.09" y2="632.00" stroke="#b91c1c" stroke-width="1.4" stroke-dasharray="5 4" />
<line x1="78" y1="632.00" x2="1466" y2="632.00" stroke="#e2e8f0" stroke-width="1" />
<line x1="78" y1="573.00" x2="1466" y2="573.00" stroke="#e2e8f0" stroke-width="1" />
<line x1="78" y1="514.00" x2="1466" y2="514.00" stroke="#e2e8f0" stroke-width="1" />
<polyline points="78.00,568.45 94.33,586.87 110.66,550.67 126.99,561.49 143.32,559.22 159.65,543.35 175.98,535.39 192.31,542.56 208.64,571.90 224.96,568.23 241.29,559.25 257.62,550.27 273.95,542.24 290.28,568.73 306.61,542.32 322.94,533.54 339.27,530.96 355.60,560.41 371.93,566.08 388.26,535.44 404.59,522.17 420.92,522.14 437.25,540.34 453.58,552.28 469.91,564.21 486.24,601.00 502.56,586.80 518.89,605.99 535.22,594.60 551.55,576.02 567.88,594.73 584.21,613.45 600.54,598.91 616.87,587.19 633.20,613.47 649.53,583.10 665.86,573.21 682.19,595.23 698.52,596.43 714.85,613.86 731.18,585.26 747.51,598.15 763.84,611.05 780.16,594.56 796.49,578.07 812.82,565.62 829.15,581.03 845.48,596.44 861.81,578.40 878.14,600.00 894.47,604.77 910.80,591.63 927.13,576.79 943.46,595.68 959.79,581.68 976.12,596.49 992.45,598.58 1008.78,600.68 1025.11,620.68 1041.44,588.78 1057.76,605.23 1074.09,606.69 1090.42,608.15 1106.75,615.37 1123.08,587.49 1139.41,615.06 1155.74,588.90 1172.07,607.06 1188.40,621.36 1204.73,588.33 1221.06,584.00 1237.39,606.41 1253.72,568.38 1270.05,578.11 1286.38,581.92 1302.71,585.73 1319.04,618.23 1335.36,579.45 1351.69,616.30 1368.02,623.86 1384.35,595.50 1400.68,583.99 1417.01,579.58 1433.34,575.16 1449.67,557.91 1466.00,586.10" fill="none" stroke="#64748b" stroke-width="1.70" stroke-linejoin="round" stroke-linecap="round" />
<polyline points="78.00,568.45 94.33,586.87 110.66,550.67 126.99,561.49 143.32,559.22 159.65,543.35 175.98,535.39 192.31,542.56 208.64,571.90 224.96,568.23 241.29,559.25 257.62,550.27 273.95,542.24 290.28,568.73 306.61,542.32 322.94,533.54 339.27,530.96 355.60,560.41 371.93,566.08 388.26,535.44 404.59,522.17 420.92,522.14 437.25,540.34 453.58,552.28 469.91,564.21 486.24,601.00 502.56,586.80 518.89,605.99 535.22,594.60 551.55,576.02 567.88,564.21 584.21,601.00 600.54,586.80 616.87,605.99 633.20,594.60 649.53,576.02 665.86,594.73 682.19,613.45 698.52,598.91 714.85,587.19 731.18,613.47 747.51,583.10 763.84,573.21 780.16,595.23 796.49,596.43 812.82,613.86 829.15,585.26 845.48,598.15 861.81,611.05 878.14,594.56 894.47,578.07 910.80,565.62 927.13,581.03 943.46,596.44 959.79,578.40 976.12,600.00 992.45,604.77 1008.78,591.63 1025.11,576.79 1041.44,595.68 1057.76,581.68 1074.09,596.49 1090.42,608.15 1106.75,615.37 1123.08,587.49 1139.41,615.06 1155.74,588.90 1172.07,607.06 1188.40,621.36 1204.73,588.33 1221.06,584.00 1237.39,606.41 1253.72,568.38 1270.05,578.11 1286.38,581.92 1302.71,585.73 1319.04,618.23 1335.36,579.45 1351.69,616.30 1368.02,623.86 1384.35,595.50 1400.68,583.99 1417.01,579.58 1433.34,575.16 1449.67,557.91 1466.00,586.10" fill="none" stroke="#b91c1c" stroke-width="2.30" stroke-linejoin="round" stroke-linecap="round" />
<text x="78" y="504" font-size="13" font-family="Arial, sans-serif" fill="#111827">stage2_var8</text>
<rect x="469.91" y="664.00" width="506.21" height="118.00" fill="#cbd5e1" opacity="0.40" />
<rect x="567.88" y="664.00" width="506.21" height="118.00" fill="#b91c1c" opacity="0.14" />
<line x1="567.88" y1="664.00" x2="567.88" y2="782.00" stroke="#b91c1c" stroke-width="1.4" stroke-dasharray="5 4" />
<line x1="1074.09" y1="664.00" x2="1074.09" y2="782.00" stroke="#b91c1c" stroke-width="1.4" stroke-dasharray="5 4" />
<line x1="78" y1="782.00" x2="1466" y2="782.00" stroke="#e2e8f0" stroke-width="1" />
<line x1="78" y1="723.00" x2="1466" y2="723.00" stroke="#e2e8f0" stroke-width="1" />
<line x1="78" y1="664.00" x2="1466" y2="664.00" stroke="#e2e8f0" stroke-width="1" />
<polyline points="78.00,672.14 94.33,672.14 110.66,672.14 126.99,672.14 143.32,773.86 159.65,773.86 175.98,773.86 192.31,773.86 208.64,773.86 224.96,773.86 241.29,773.86 257.62,773.86 273.95,773.86 290.28,773.86 306.61,773.86 322.94,773.86 339.27,773.86 355.60,773.86 371.93,773.86 388.26,773.86 404.59,773.86 420.92,773.86 437.25,773.86 453.58,773.86 469.91,773.86 486.24,773.86 502.56,773.86 518.89,773.86 535.22,773.86 551.55,773.86 567.88,773.86 584.21,773.86 600.54,773.86 616.87,773.86 633.20,773.86 649.53,773.86 665.86,773.86 682.19,773.86 698.52,773.86 714.85,773.86 731.18,773.86 747.51,773.86 763.84,773.86 780.16,773.86 796.49,773.86 812.82,773.86 829.15,773.86 845.48,773.86 861.81,773.86 878.14,773.86 894.47,773.86 910.80,773.86 927.13,773.86 943.46,773.86 959.79,773.86 976.12,773.86 992.45,773.86 1008.78,773.86 1025.11,773.86 1041.44,773.86 1057.76,773.86 1074.09,773.86 1090.42,773.86 1106.75,773.86 1123.08,773.86 1139.41,773.86 1155.74,773.86 1172.07,773.86 1188.40,773.86 1204.73,773.86 1221.06,773.86 1237.39,773.86 1253.72,773.86 1270.05,773.86 1286.38,773.86 1302.71,773.86 1319.04,773.86 1335.36,773.86 1351.69,773.86 1368.02,773.86 1384.35,773.86 1400.68,773.86 1417.01,773.86 1433.34,773.86 1449.67,773.86 1466.00,773.86" fill="none" stroke="#64748b" stroke-width="1.70" stroke-linejoin="round" stroke-linecap="round" />
<polyline points="78.00,672.14 94.33,672.14 110.66,672.14 126.99,672.14 143.32,773.86 159.65,773.86 175.98,773.86 192.31,773.86 208.64,773.86 224.96,773.86 241.29,773.86 257.62,773.86 273.95,773.86 290.28,773.86 306.61,773.86 322.94,773.86 339.27,773.86 355.60,773.86 371.93,773.86 388.26,773.86 404.59,773.86 420.92,773.86 437.25,773.86 453.58,773.86 469.91,773.86 486.24,773.86 502.56,773.86 518.89,773.86 535.22,773.86 551.55,773.86 567.88,773.86 584.21,773.86 600.54,773.86 616.87,773.86 633.20,773.86 649.53,773.86 665.86,773.86 682.19,773.86 698.52,773.86 714.85,773.86 731.18,773.86 747.51,773.86 763.84,773.86 780.16,773.86 796.49,773.86 812.82,773.86 829.15,773.86 845.48,773.86 861.81,773.86 878.14,773.86 894.47,773.86 910.80,773.86 927.13,773.86 943.46,773.86 959.79,773.86 976.12,773.86 992.45,773.86 1008.78,773.86 1025.11,773.86 1041.44,773.86 1057.76,773.86 1074.09,773.86 1090.42,773.86 1106.75,773.86 1123.08,773.86 1139.41,773.86 1155.74,773.86 1172.07,773.86 1188.40,773.86 1204.73,773.86 1221.06,773.86 1237.39,773.86 1253.72,773.86 1270.05,773.86 1286.38,773.86 1302.71,773.86 1319.04,773.86 1335.36,773.86 1351.69,773.86 1368.02,773.86 1384.35,773.86 1400.68,773.86 1417.01,773.86 1433.34,773.86 1449.67,773.86 1466.00,773.86" fill="none" stroke="#b91c1c" stroke-width="2.30" stroke-linejoin="round" stroke-linecap="round" />
<text x="78" y="654" font-size="13" font-family="Arial, sans-serif" fill="#111827">stage2_var12</text>
<rect x="1140" y="20" width="14" height="10" fill="#cbd5e1" opacity="0.8" />
<text x="1160" y="29" font-size="11" font-family="Arial, sans-serif" fill="#334155">source slice</text>
<rect x="1250" y="20" width="14" height="10" fill="#b91c1c" opacity="0.35" />
<text x="1270" y="29" font-size="11" font-family="Arial, sans-serif" fill="#334155">injected block</text>
<line x1="1390" y1="25" x2="1406" y2="25" stroke="#b91c1c" stroke-width="2.3" />
<text x="1414" y="29" font-size="11" font-family="Arial, sans-serif" fill="#334155">lagged curve</text>
<text x="78" y="844" font-size="11" font-family="Arial, sans-serif" fill="#475569">2021-05-27 08:00</text>
<text x="1466" y="844" text-anchor="end" font-size="11" font-family="Arial, sans-serif" fill="#475569">2021-05-28 05:15</text>
<text x="469.91" y="112.00" font-size="10" font-family="Arial, sans-serif" fill="#334155">source</text>
<text x="567.88" y="126.00" font-size="10" font-family="Arial, sans-serif" fill="#b91c1c">inject</text>
</svg>