<svg xmlns="http://www.w3.org/2000/svg" width="1500" height="858" viewBox="0 0 1500 858">
<rect width="100%" height="100%" fill="#ffffff" />
<text x="78" y="28" font-size="22" font-family="Arial, sans-serif" fill="#111827">Stage2 Lag Block Detail</text>
<text x="78" y="48" font-size="12" font-family="Arial, sans-serif" fill="#475569">train | segment 41 | lag=6 steps (90 min) | block=32 steps (8h 00m)</text>
<text x="78" y="66" font-size="12" font-family="Arial, sans-serif" fill="#475569">injected: 2021-09-15 08:00 -> 2021-09-15 15:45 | source: 2021-09-15 06:30 -> 2021-09-15 14:15</text>
<text x="78" y="84" font-size="11" font-family="Arial, sans-serif" fill="#64748b">gray shade = source slice, color shade = injected slice, gray line = original, color line = lagged</text>
<rect x="469.91" y="96.00" width="506.21" height="86.00" fill="#cbd5e1" opacity="0.40" />
<rect x="567.88" y="96.00" width="506.21" height="86.00" fill="#b91c1c" opacity="0.14" />
<line x1="567.88" y1="96.00" x2="567.88" y2="182.00" stroke="#b91c1c" stroke-width="1.4" stroke-dasharray="5 4" />
<line x1="1074.09" y1="96.00" x2="1074.09" y2="182.00" stroke="#b91c1c" stroke-width="1.4" stroke-dasharray="5 4" />
<line x1="78" y1="182.00" x2="1466" y2="182.00" stroke="#e2e8f0" stroke-width="1" />
<text x="66" y="186.00" text-anchor="end" font-size="11" font-family="Arial, sans-serif" fill="#475569">0</text>
<line x1="78" y1="153.33" x2="1466" y2="153.33" stroke="#e2e8f0" stroke-width="1" />
<text x="66" y="157.33" text-anchor="end" font-size="11" font-family="Arial, sans-serif" fill="#475569">2</text>
<line x1="78" y1="124.67" x2="1466" y2="124.67" stroke="#e2e8f0" stroke-width="1" />
<text x="66" y="128.67" text-anchor="end" font-size="11" font-family="Arial, sans-serif" fill="#475569">4</text>
<line x1="78" y1="96.00" x2="1466" y2="96.00" stroke="#e2e8f0" stroke-width="1" />
<text x="66" y="100.00" text-anchor="end" font-size="11" font-family="Arial, sans-serif" fill="#475569">6</text>
<path d="M 78.00 182.00 L 94.33 182.00 L 94.33 182.00 L 110.66 182.00 L 110.66 182.00 L 126.99 182.00 L 126.99 182.00 L 143.32 182.00 L 143.32 182.00 L 159.65 182.00 L 159.65 182.00 L 175.98 182.00 L 175.98 182.00 L 192.31 182.00 L 192.31 182.00 L 208.64 182.00 L 208.64 182.00 L 224.96 182.00 L 224.96 182.00 L 241.29 182.00 L 241.29 182.00 L 257.62 182.00 L 257.62 182.00 L 273.95 182.00 L 273.95 182.00 L 290.28 182.00 L 290.28 182.00 L 306.61 182.00 L 306.61 182.00 L 322.94 182.00 L 322.94 182.00 L 339.27 182.00 L 339.27 182.00 L 355.60 182.00 L 355.60 182.00 L 371.93 182.00 L 371.93 182.00 L 388.26 182.00 L 388.26 182.00 L 404.59 182.00 L 404.59 182.00 L 420.92 182.00 L 420.92 182.00 L 437.25 182.00 L 437.25 182.00 L 453.58 182.00 L 453.58 182.00 L 469.91 182.00 L 469.91 182.00 L 486.24 182.00 L 486.24 182.00 L 502.56 182.00 L 502.56 182.00 L 518.89 182.00 L 518.89 182.00 L 535.22 182.00 L 535.22 182.00 L 551.55 182.00 L 551.55 182.00 L 567.88 182.00 L 567.88 96.00 L 584.21 96.00 L 584.21 96.00 L 600.54 96.00 L 600.54 96.00 L 616.87 96.00 L 616.87 96.00 L 633.20 96.00 L 633.20 96.00 L 649.53 96.00 L 649.53 96.00 L 665.86 96.00 L 665.86 96.00 L 682.19 96.00 L 682.19 96.00 L 698.52 96.00 L 698.52 96.00 L 714.85 96.00 L 714.85 96.00 L 731.18 96.00 L 731.18 96.00 L 747.51 96.00 L 747.51 96.00 L 763.84 96.00 L 763.84 96.00 L 780.16 96.00 L 780.16 96.00 L 796.49 96.00 L 796.49 96.00 L 812.82 96.00 L 812.82 96.00 L 829.15 96.00 L 829.15 96.00 L 845.48 96.00 L 845.48 96.00 L 861.81 96.00 L 861.81 96.00 L 878.14 96.00 L 878.14 96.00 L 894.47 96.00 L 894.47 96.00 L 910.80 96.00 L 910.80 96.00 L 927.13 96.00 L 927.13 96.00 L 943.46 96.00 L 943.46 96.00 L 959.79 96.00 L 959.79 96.00 L 976.12 96.00 L 976.12 96.00 L 992.45 96.00 L 992.45 96.00 L 1008.78 96.00 L 1008.78 96.00 L 1025.11 96.00 L 1025.11 96.00 L 1041.44 96.00 L 1041.44 96.00 L 1057.76 96.00 L 1057.76 96.00 L 1074.09 96.00 L 1074.09 96.00 L 1090.42 96.00 L 1090.42 182.00 L 1106.75 182.00 L 1106.75 182.00 L 1123.08 182.00 L 1123.08 182.00 L 1139.41 182.00 L 1139.41 182.00 L 1155.74 182.00 L 1155.74 182.00 L 1172.07 182.00 L 1172.07 182.00 L 1188.40 182.00 L 1188.40 182.00 L 1204.73 182.00 L 1204.73 182.00 L 1221.06 182.00 L 1221.06 182.00 L 1237.39 182.00 L 1237.39 182.00 L 1253.72 182.00 L 1253.72 182.00 L 1270.05 182.00 L 1270.05 182.00 L 1286.38 182.00 L 1286.38 182.00 L 1302.71 182.00 L 1302.71 182.00 L 1319.04 182.00 L 1319.04 182.00 L 1335.36 182.00 L 1335.36 182.00 L 1351.69 182.00 L 1351.69 182.00 L 1368.02 182.00 L 1368.02 182.00 L 1384.35 182.00 L 1384.35 182.00 L 1400.68 182.00 L 1400.68 182.00 L 1417.01 182.00 L 1417.01 182.00 L 1433.34 182.00 L 1433.34 182.00 L 1449.67 182.00 L 1449.67 182.00 L 1466.00 182.00 L 1466.00 182.00" fill="none" stroke="#b91c1c" stroke-width="2.4" stroke-linejoin="round" stroke-linecap="round" />
<text x="78" y="86" font-size="13" font-family="Arial, sans-serif" fill="#111827">lag_gt around this block</text>
<rect x="469.91" y="214.00" width="506.21" height="118.00" fill="#cbd5e1" opacity="0.40" />
<rect x="567.88" y="214.00" width="506.21" height="118.00" fill="#b91c1c" opacity="0.14" />
<line x1="567.88" y1="214.00" x2="567.88" y2="332.00" stroke="#b91c1c" stroke-width="1.4" stroke-dasharray="5 4" />
<line x1="1074.09" y1="214.00" x2="1074.09" y2="332.00" stroke="#b91c1c" stroke-width="1.4" stroke-dasharray="5 4" />
<line x1="78" y1="332.00" x2="1466" y2="332.00" stroke="#e2e8f0" stroke-width="1" />
<line x1="78" y1="273.00" x2="1466" y2="273.00" stroke="#e2e8f0" stroke-width="1" />
<line x1="78" y1="214.00" x2="1466" y2="214.00" stroke="#e2e8f0" stroke-width="1" />
<polyline points="78.00,294.50 94.33,293.51 110.66,292.51 126.99,291.52 143.32,269.80 159.65,264.32 175.98,272.09 192.31,282.28 208.64,255.77 224.96,247.80 241.29,225.21 257.62,242.60 273.95,222.14 290.28,224.72 306.61,238.01 322.94,248.11 339.27,258.21 355.60,255.04 371.93,265.76 388.26,284.07 404.59,285.87 420.92,273.44 437.25,258.18 453.58,264.80 469.91,254.92 486.24,273.76 502.56,274.36 518.89,259.12 535.22,270.46 551.55,282.35 567.88,267.91 584.21,268.94 600.54,297.39 616.87,302.80 633.20,323.86 649.53,265.16 665.86,281.31 682.19,263.60 698.52,282.64 714.85,275.56 731.18,278.51 747.51,278.77 763.84,279.03 780.16,295.43 796.49,293.94 812.82,282.19 829.15,299.07 845.48,284.62 861.81,294.08 878.14,289.52 894.47,284.95 910.80,269.46 927.13,253.96 943.46,273.49 959.79,265.01 976.12,261.31 992.45,262.25 1008.78,263.19 1025.11,270.07 1041.44,242.76 1057.76,237.22 1074.09,231.69 1090.42,246.76 1106.75,257.76 1123.08,268.75 1139.41,294.45 1155.74,276.45 1172.07,276.83 1188.40,285.74 1204.73,293.91 1221.06,288.69 1237.39,290.30 1253.72,291.90 1270.05,290.56 1286.38,290.11 1302.71,290.56 1319.04,291.00 1335.36,284.51 1351.69,297.52 1368.02,290.71 1384.35,290.01 1400.68,289.31 1417.01,275.93 1433.34,262.55 1449.67,269.77 1466.00,290.24" fill="none" stroke="#64748b" stroke-width="1.70" stroke-linejoin="round" stroke-linecap="round" />
<polyline points="78.00,294.50 94.33,293.51 110.66,292.51 126.99,291.52 143.32,269.80 159.65,264.32 175.98,272.09 192.31,282.28 208.64,255.77 224.96,247.80 241.29,225.21 257.62,242.60 273.95,222.14 290.28,224.72 306.61,238.01 322.94,248.11 339.27,258.21 355.60,255.04 371.93,265.76 388.26,284.07 404.59,285.87 420.92,273.44 437.25,258.18 453.58,264.80 469.91,254.92 486.24,273.76 502.56,274.36 518.89,259.12 535.22,270.46 551.55,282.35 567.88,254.92 584.21,273.76 600.54,274.36 616.87,259.12 633.20,270.46 649.53,282.35 665.86,267.91 682.19,268.94 698.52,297.39 714.85,302.80 731.18,323.86 747.51,265.16 763.84,281.31 780.16,263.60 796.49,282.64 812.82,275.56 829.15,278.51 845.48,278.77 861.81,279.03 878.14,295.43 894.47,293.94 910.80,282.19 927.13,299.07 943.46,284.62 959.79,294.08 976.12,289.52 992.45,284.95 1008.78,269.46 1025.11,253.96 1041.44,273.49 1057.76,265.01 1074.09,261.31 1090.42,246.76 1106.75,257.76 1123.08,268.75 1139.41,294.45 1155.74,276.45 1172.07,276.83 1188.40,285.74 1204.73,293.91 1221.06,288.69 1237.39,290.30 1253.72,291.90 1270.05,290.56 1286.38,290.11 1302.71,290.56 1319.04,291.00 1335.36,284.51 1351.69,297.52 1368.02,290.71 1384.35,290.01 1400.68,289.31 1417.01,275.93 1433.34,262.55 1449.67,269.77 1466.00,290.24" fill="none" stroke="#b91c1c" stroke-width="2.30" stroke-linejoin="round" stroke-linecap="round" />
<text x="78" y="204" font-size="13" font-family="Arial, sans-serif" fill="#111827">stage2_var1</text>
<rect x="469.91" y="364.00" width="506.21" height="118.00" fill="#cbd5e1" opacity="0.40" />
<rect x="567.88" y="364.00" width="506.21" height="118.00" fill="#b91c1c" opacity="0.14" />
<line x1="567.88" y1="364.00" x2="567.88" y2="482.00" stroke="#b91c1c" stroke-width="1.4" stroke-dasharray="5 4" />
<line x1="1074.09" y1="364.00" x2="1074.09" y2="482.00" stroke="#b91c1c" stroke-width="1.4" stroke-dasharray="5 4" />
<line x1="78" y1="482.00" x2="1466" y2="482.00" stroke="#e2e8f0" stroke-width="1" />
<line x1="78" y1="423.00" x2="1466" y2="423.00" stroke="#e2e8f0" stroke-width="1" />
<line x1="78" y1="364.00" x2="1466" y2="364.00" stroke="#e2e8f0" stroke-width="1" />
<polyline points="78.00,387.44 94.33,387.14 110.66,386.85 126.99,386.55 143.32,383.06 159.65,378.78 175.98,406.41 192.31,411.05 208.64,400.32 224.96,403.79 241.29,433.02 257.62,433.69 273.95,444.48 290.28,445.91 306.61,450.90 322.94,448.53 339.27,446.15 355.60,447.18 371.93,418.65 388.26,405.96 404.59,404.01 420.92,394.79 437.25,409.82 453.58,396.44 469.91,398.48 486.24,391.94 502.56,393.16 518.89,397.39 535.22,387.41 551.55,393.48 567.88,393.27 584.21,386.01 600.54,399.25 616.87,390.22 633.20,382.95 649.53,429.61 665.86,440.37 682.19,473.86 698.52,447.12 714.85,428.64 731.18,412.83 747.51,402.66 763.84,392.49 780.16,382.73 796.49,372.14 812.82,385.12 829.15,381.61 845.48,394.79 861.81,393.88 878.14,389.36 894.47,384.85 910.80,393.74 927.13,402.63 943.46,393.92 959.79,398.05 976.12,407.91 992.45,413.51 1008.78,419.11 1025.11,420.30 1041.44,410.09 1057.76,419.90 1074.09,429.71 1090.42,432.98 1106.75,414.82 1123.08,396.65 1139.41,390.21 1155.74,440.68 1172.07,443.56 1188.40,420.47 1204.73,393.71 1221.06,392.54 1237.39,389.52 1253.72,386.50 1270.05,416.46 1286.38,448.01 1302.71,441.48 1319.04,434.95 1335.36,411.92 1351.69,390.56 1368.02,402.06 1384.35,400.75 1400.68,399.44 1417.01,400.48 1433.34,401.52 1449.67,397.80 1466.00,380.35" fill="none" stroke="#64748b" stroke-width="1.70" stroke-linejoin="round" stroke-linecap="round" />
<polyline points="78.00,387.44 94.33,387.14 110.66,386.85 126.99,386.55 143.32,383.06 159.65,378.78 175.98,406.41 192.31,411.05 208.64,400.32 224.96,403.79 241.29,433.02 257.62,433.69 273.95,444.48 290.28,445.91 306.61,450.90 322.94,448.53 339.27,446.15 355.60,447.18 371.93,418.65 388.26,405.96 404.59,404.01 420.92,394.79 437.25,409.82 453.58,396.44 469.91,398.48 486.24,391.94 502.56,393.16 518.89,397.39 535.22,387.41 551.55,393.48 567.88,398.48 584.21,391.94 600.54,393.16 616.87,397.39 633.20,387.41 649.53,393.48 665.86,393.27 682.19,386.01 698.52,399.25 714.85,390.22 731.18,382.95 747.51,429.61 763.84,440.37 780.16,473.86 796.49,447.12 812.82,428.64 829.15,412.83 845.48,402.66 861.81,392.49 878.14,382.73 894.47,372.14 910.80,385.12 927.13,381.61 943.46,394.79 959.79,393.88 976.12,389.36 992.45,384.85 1008.78,393.74 1025.11,402.63 1041.44,393.92 1057.76,398.05 1074.09,407.91 1090.42,432.98 1106.75,414.82 1123.08,396.65 1139.41,390.21 1155.74,440.68 1172.07,443.56 1188.40,420.47 1204.73,393.71 1221.06,392.54 1237.39,389.52 1253.72,386.50 1270.05,416.46 1286.38,448.01 1302.71,441.48 1319.04,434.95 1335.36,411.92 1351.69,390.56 1368.02,402.06 1384.35,400.75 1400.68,399.44 1417.01,400.48 1433.34,401.52 1449.67,397.80 1466.00,380.35" fill="none" stroke="#b91c1c" stroke-width="2.30" stroke-linejoin="round" stroke-linecap="round" />
<text x="78" y="354" font-size="13" font-family="Arial, sans-serif" fill="#111827">stage2_var5</text>
<rect x="469.91" y="514.00" width="506.21" height="118.00" fill="#cbd5e1" opacity="0.40" />
<rect x="567.88" y="514.00" width="506.21" height="118.00" fill="#b91c1c" opacity="0.14" />
<line x1="567.88" y1="514.00" x2="567.88" y2="632.00" stroke="#b91c1c" stroke-width="1.4" stroke-dasharray="5 4" />
<line x1="1074.09" y1="514.00" x2="1074.09" y2="632.00" stroke="#b91c1c" stroke-width="1.4" stroke-dasharray="5 4" />
<line x1="78" y1="632.00" x2="1466" y2="632.00" stroke="#e2e8f0" stroke-width="1" />
<line x1="78" y1="573.00" x2="1466" y2="573.00" stroke="#e2e8f0" stroke-width="1" />
<line x1="78" y1="514.00" x2="1466" y2="514.00" stroke="#e2e8f0" stroke-width="1" />
<polyline points="78.00,543.71 94.33,544.07 110.66,544.42 126.99,544.77 143.32,542.38 159.65,542.16 175.98,555.99 192.31,552.03 208.64,554.95 224.96,553.58 241.29,560.03 257.62,558.82 273.95,549.12 290.28,550.74 306.61,557.12 322.94,555.39 339.27,553.67 355.60,553.34 371.93,546.45 388.26,552.50 404.59,548.76 420.92,550.57 437.25,553.34 453.58,552.37 469.91,549.67 486.24,553.66 502.56,550.42 518.89,554.99 535.22,552.26 551.55,540.89 567.88,545.01 584.21,548.86 600.54,542.23 616.87,542.70 633.20,532.10 649.53,544.81 665.86,623.86 682.19,534.49 698.52,547.16 714.85,543.07 731.18,540.67 747.51,542.46 763.84,544.24 780.16,530.57 796.49,529.92 812.82,526.27 829.15,529.35 845.48,522.14 861.81,522.25 878.14,527.38 894.47,532.51 910.80,536.42 927.13,540.33 943.46,542.29 959.79,540.08 976.12,536.82 992.45,537.56 1008.78,538.29 1025.11,540.94 1041.44,552.61 1057.76,554.31 1074.09,556.01 1090.42,549.05 1106.75,541.44 1123.08,533.83 1139.41,524.05 1155.74,535.52 1172.07,532.26 1188.40,536.32 1204.73,539.26 1221.06,538.11 1237.39,536.84 1253.72,535.56 1270.05,532.64 1286.38,529.31 1302.71,531.11 1319.04,532.91 1335.36,537.91 1351.69,534.84 1368.02,537.90 1384.35,539.37 1400.68,540.85 1417.01,544.67 1433.34,548.50 1449.67,550.39 1466.00,542.56" fill="none" stroke="#64748b" stroke-width="1.70" stroke-linejoin="round" stroke-linecap="round" />
<polyline points="78.00,543.71 94.33,544.07 110.66,544.42 126.99,544.77 143.32,542.38 159.65,542.16 175.98,555.99 192.31,552.03 208.64,554.95 224.96,553.58 241.29,560.03 257.62,558.82 273.95,549.12 290.28,550.74 306.61,557.12 322.94,555.39 339.27,553.67 355.60,553.34 371.93,546.45 388.26,552.50 404.59,548.76 420.92,550.57 437.25,553.34 453.58,552.37 469.91,549.67 486.24,553.66 502.56,550.42 518.89,554.99 535.22,552.26 551.55,540.89 567.88,549.67 584.21,553.66 600.54,550.42 616.87,554.99 633.20,552.26 649.53,540.89 665.86,545.01 682.19,548.86 698.52,542.23 714.85,542.70 731.18,532.10 747.51,544.81 763.84,623.86 780.16,534.49 796.49,547.16 812.82,543.07 829.15,540.67 845.48,542.46 861.81,544.24 878.14,530.57 894.47,529.92 910.80,526.27 927.13,529.35 943.46,522.14 959.79,522.25 976.12,527.38 992.45,532.51 1008.78,536.42 1025.11,540.33 1041.44,542.29 1057.76,540.08 1074.09,536.82 1090.42,549.05 1106.75,541.44 1123.08,533.83 1139.41,524.05 1155.74,535.52 1172.07,532.26 1188.40,536.32 1204.73,539.26 1221.06,538.11 1237.39,536.84 1253.72,535.56 1270.05,532.64 1286.38,529.31 1302.71,531.11 1319.04,532.91 1335.36,537.91 1351.69,534.84 1368.02,537.90 1384.35,539.37 1400.68,540.85 1417.01,544.67 1433.34,548.50 1449.67,550.39 1466.00,542.56" fill="none" stroke="#b91c1c" stroke-width="2.30" stroke-linejoin="round" stroke-linecap="round" />
<text x="78" y="504" font-size="13" font-family="Arial, sans-serif" fill="#111827">stage2_var8</text>
<rect x="469.91" y="664.00" width="506.21" height="118.00" fill="#cbd5e1" opacity="0.40" />
<rect x="567.88" y="664.00" width="506.21" height="118.00" fill="#b91c1c" opacity="0.14" />
<line x1="567.88" y1="664.00" x2="567.88" y2="782.00" stroke="#b91c1c" stroke-width="1.4" stroke-dasharray="5 4" />
<line x1="1074.09" y1="664.00" x2="1074.09" y2="782.00" stroke="#b91c1c" stroke-width="1.4" stroke-dasharray="5 4" />
<line x1="78" y1="782.00" x2="1466" y2="782.00" stroke="#e2e8f0" stroke-width="1" />
<line x1="78" y1="723.00" x2="1466" y2="723.00" stroke="#e2e8f0" stroke-width="1" />
<line x1="78" y1="664.00" x2="1466" y2="664.00" stroke="#e2e8f0" stroke-width="1" />
<polyline points="78.00,773.86 94.33,773.86 110.66,773.86 126.99,773.86 143.32,773.86 159.65,773.86 175.98,773.86 192.31,773.86 208.64,773.86 224.96,773.86 241.29,773.86 257.62,773.86 273.95,773.86 290.28,773.86 306.61,773.86 322.94,773.86 339.27,773.86 355.60,773.86 371.93,773.86 388.26,773.86 404.59,773.86 420.92,773.86 437.25,773.86 453.58,773.86 469.91,773.86 486.24,773.86 502.56,773.86 518.89,773.86 535.22,773.86 551.55,773.86 567.88,773.86 584.21,773.86 600.54,773.86 616.87,773.86 633.20,672.14 649.53,672.14 665.86,672.14 682.19,672.14 698.52,672.14 714.85,672.14 731.18,672.14 747.51,672.14 763.84,672.14 780.16,672.14 796.49,672.14 812.82,672.14 829.15,672.14 845.48,672.14 861.81,672.14 878.14,672.14 894.47,672.14 910.80,672.14 927.13,672.14 943.46,672.14 959.79,672.14 976.12,672.14 992.45,672.14 1008.78,672.14 1025.11,672.14 1041.44,672.14 1057.76,672.14 1074.09,672.14 1090.42,672.14 1106.75,672.14 1123.08,672.14 1139.41,672.14 1155.74,672.14 1172.07,672.14 1188.40,672.14 1204.73,672.14 1221.06,672.14 1237.39,672.14 1253.72,672.14 1270.05,672.14 1286.38,672.14 1302.71,672.14 1319.04,672.14 1335.36,672.14 1351.69,672.14 1368.02,672.14 1384.35,672.14 1400.68,672.14 1417.01,672.14 1433.34,672.14 1449.67,672.14 1466.00,672.14" fill="none" stroke="#64748b" stroke-width="1.70" stroke-linejoin="round" stroke-linecap="round" />
<polyline points="78.00,773.86 94.33,773.86 110.66,773.86 126.99,773.86 143.32,773.86 159.65,773.86 175.98,773.86 192.31,773.86 208.64,773.86 224.96,773.86 241.29,773.86 257.62,773.86 273.95,773.86 290.28,773.86 306.61,773.86 322.94,773.86 339.27,773.86 355.60,773.86 371.93,773.86 388.26,773.86 404.59,773.86 420.92,773.86 437.25,773.86 453.58,773.86 469.91,773.86 486.24,773.86 502.56,773.86 518.89,773.86 535.22,773.86 551.55,773.86 567.88,773.86 584.21,773.86 600.54,773.86 616.87,773.86 633.20,773.86 649.53,773.86 665.86,773.86 682.19,773.86 698.52,773.86 714.85,773.86 731.18,672.14 747.51,672.14 763.84,672.14 780.16,672.14 796.49,672.14 812.82,672.14 829.15,672.14 845.48,672.14 861.81,672.14 878.14,672.14 894.47,672.14 910.80,672.14 927.13,672.14 943.46,672.14 959.79,672.14 976.12,672.14 992.45,672.14 1008.78,672.14 1025.11,672.14 1041.44,672.14 1057.76,672.14 1074.09,672.14 1090.42,672.14 1106.75,672.14 1123.08,672.14 1139.41,672.14 1155.74,672.14 1172.07,672.14 1188.40,672.14 1204.73,672.14 1221.06,672.14 1237.39,672.14 1253.72,672.14 1270.05,672.14 1286.38,672.14 1302.71,672.14 1319.04,672.14 1335.36,672.14 1351.69,672.14 1368.02,672.14 1384.35,672.14 1400.68,672.14 1417.01,672.14 1433.34,672.14 1449.67,672.14 1466.00,672.14" fill="none" stroke="#b91c1c" stroke-width="2.30" stroke-linejoin="round" stroke-linecap="round" />
<text x="78" y="654" font-size="13" font-family="Arial, sans-serif" fill="#111827">stage2_var12</text>
<rect x="1140" y="20" width="14" height="10" fill="#cbd5e1" opacity="0.8" />
<text x="1160" y="29" font-size="11" font-family="Arial, sans-serif" fill="#334155">source slice</text>
<rect x="1250" y="20" width="14" height="10" fill="#b91c1c" opacity="0.35" />
<text x="1270" y="29" font-size="11" font-family="Arial, sans-serif" fill="#334155">injected block</text>
<line x1="1390" y1="25" x2="1406" y2="25" stroke="#b91c1c" stroke-width="2.3" />
<text x="1414" y="29" font-size="11" font-family="Arial, sans-serif" fill="#334155">lagged curve</text>
<text x="78" y="844" font-size="11" font-family="Arial, sans-serif" fill="#475569">2021-09-15 00:30</text>
<text x="1466" y="844" text-anchor="end" font-size="11" font-family="Arial, sans-serif" fill="#475569">2021-09-15 21:45</text>
<text x="469.91" y="112.00" font-size="10" font-family="Arial, sans-serif" fill="#334155">source</text>
<text x="567.88" y="126.00" font-size="10" font-family="Arial, sans-serif" fill="#b91c1c">inject</text>
</svg>